M48
; DRILL file {KiCad (5.1.9)-1} date 07/02/21 20:36:35
; FORMAT={-:-/ absolute / inch / decimal}
; #@! TF.CreationDate,2021-07-02T20:36:35+01:00
; #@! TF.GenerationSoftware,Kicad,Pcbnew,(5.1.9)-1
FMAT,2
INCH
T1C0.0157
T2C0.0276
T3C0.0315
T4C0.0394
T5C0.0400
T6C0.0469
T7C0.0709
%
G90
G05
T1
X7.1836Y-3.3414
X7.189Y-3.6102
X7.2087Y-3.9016
X7.2559Y-3.5
X7.2835Y-3.248
X7.2835Y-6.4173
X7.3323Y-3.5826
X7.3408Y-3.5234
X7.3819Y-3.248
X7.3819Y-3.3071
X7.3979Y-3.5277
X7.4016Y-5.1181
X7.4274Y-4.3706
X7.4803Y-3.248
X7.4803Y-3.6378
X7.5Y-5.9055
X7.5197Y-6.9094
X7.5394Y-5.2559
X7.7559Y-3.622
X7.7992Y-3.5472
X7.8425Y-4.0984
X8.0315Y-5.5906
X8.2087Y-6.0039
T3
X6.7126Y-3.1299
X6.7126Y-3.4299
X6.811Y-2.9528
X6.8504Y-3.1252
X6.8504Y-3.4252
X6.8504Y-3.622
X6.9291Y-4.7244
X6.9291Y-4.9213
X6.9984Y-3.1102
X6.9984Y-3.4102
X7.0079Y-2.9528
X7.0472Y-3.622
X7.0819Y-6.2598
X7.0819Y-7.2638
X7.0866Y-5.7677
X7.0866Y-8.1102
X7.0969Y-4.685
X7.0969Y-4.985
X7.0984Y-3.1102
X7.0984Y-3.4102
X7.1016Y-6.7913
X7.1063Y-7.7362
X7.1969Y-4.685
X7.1969Y-4.985
X7.1984Y-3.1102
X7.1984Y-3.4102
X7.2969Y-4.685
X7.2969Y-4.985
X7.2984Y-3.1102
X7.2984Y-3.4102
X7.3819Y-6.2598
X7.3819Y-7.2638
X7.3866Y-5.7677
X7.3866Y-8.1102
X7.3969Y-4.685
X7.3969Y-4.985
X7.3984Y-3.1102
X7.3984Y-3.4102
X7.4016Y-3.5827
X7.4016Y-6.7913
X7.4063Y-7.7362
X7.4409Y-6.0236
X7.4559Y-2.8701
X7.4559Y-2.9882
X7.4559Y-3.8583
X7.4559Y-4.4488
X7.4559Y-5.2362
X7.4559Y-5.374
X7.4969Y-4.685
X7.4969Y-4.985
X7.4984Y-3.1102
X7.4984Y-3.4102
X7.5969Y-4.685
X7.5969Y-4.985
X7.5984Y-3.1102
X7.5984Y-3.4102
X7.5984Y-3.5827
X7.6969Y-4.685
X7.6969Y-4.985
X7.7409Y-6.0236
X7.7559Y-2.8701
X7.7559Y-2.9882
X7.7559Y-3.8583
X7.7559Y-4.4488
X7.7559Y-5.2362
X7.7559Y-5.374
X7.7756Y-3.1693
X7.7756Y-3.3661
X7.874Y-8.1496
X7.8937Y-7.7953
X7.9134Y-4.7244
X7.9134Y-4.9213
X7.9724Y-8.1496
X7.9921Y-7.7953
X8.1496Y-7.2047
X8.1496Y-7.3228
X8.4496Y-7.2047
X8.4496Y-7.3228
T4
X7.9333Y-2.7772
X7.9333Y-2.8756
X7.9333Y-2.974
X7.9333Y-3.5646
X7.9333Y-3.663
X7.9333Y-3.7614
X7.9333Y-4.352
X7.9333Y-4.4504
X7.9333Y-4.5488
X7.9333Y-5.1394
X7.9333Y-5.2378
X7.9333Y-5.3362
X7.9333Y-5.9268
X7.9333Y-6.0252
X7.9333Y-6.1236
T5
X8.2776Y-7.7067
X8.2776Y-7.8067
X8.2776Y-7.9067
X8.2776Y-8.0067
X8.2776Y-8.1067
X8.3776Y-7.7067
X8.3776Y-7.8067
X8.3776Y-7.9067
X8.3776Y-8.0067
X8.3776Y-8.1067
T6
X6.8685Y-5.374
X6.8685Y-8.1102
X6.8701Y-5.7726
X6.8701Y-6.2598
X6.8701Y-7.2785
X6.8848Y-6.7913
X6.8848Y-7.7215
X6.9685Y-5.374
X6.9685Y-8.1102
X6.9701Y-5.7726
X6.9701Y-6.2598
X6.9701Y-7.2785
X6.9848Y-6.7913
X6.9848Y-7.7215
X8.3465Y-4.8425
X8.3465Y-6.4173
X8.3646Y-3.2677
X8.3646Y-4.0551
X8.3646Y-5.6299
X8.3646Y-6.8898
X8.4465Y-4.8425
X8.4465Y-6.4173
X8.4646Y-3.2677
X8.4646Y-4.0551
X8.4646Y-5.6299
X8.4646Y-6.8898
T7
X8.2286Y-2.6866
X8.2286Y-3.0646
X8.2286Y-3.474
X8.2286Y-3.852
X8.2286Y-4.2614
X8.2286Y-4.6394
X8.2286Y-5.0488
X8.2286Y-5.4268
X8.2286Y-5.8362
X8.2286Y-6.2142
T2
G00X7.2638Y-2.7756
M15
G01X7.2244Y-2.7756
M16
G05
G00X7.2638Y-2.874
M15
G01X7.2244Y-2.874
M16
G05
G00X7.2638Y-2.9724
M15
G01X7.2244Y-2.9724
M16
G05
G00X7.2638Y-3.563
M15
G01X7.2244Y-3.563
M16
G05
G00X7.2638Y-3.6614
M15
G01X7.2244Y-3.6614
M16
G05
G00X7.2638Y-3.7598
M15
G01X7.2244Y-3.7598
M16
G05
G00X7.2638Y-4.3504
M15
G01X7.2244Y-4.3504
M16
G05
G00X7.2638Y-4.4488
M15
G01X7.2244Y-4.4488
M16
G05
G00X7.2638Y-4.5472
M15
G01X7.2244Y-4.5472
M16
G05
G00X7.2638Y-5.1378
M15
G01X7.2244Y-5.1378
M16
G05
G00X7.2638Y-5.2362
M15
G01X7.2244Y-5.2362
M16
G05
G00X7.2638Y-5.3346
M15
G01X7.2244Y-5.3346
M16
G05
G00X7.2638Y-5.9252
M15
G01X7.2244Y-5.9252
M16
G05
G00X7.2638Y-6.0236
M15
G01X7.2244Y-6.0236
M16
G05
G00X7.2638Y-6.122
M15
G01X7.2244Y-6.122
M16
G05
T0
M30
