%TF.GenerationSoftware,KiCad,Pcbnew,(5.1.9)-1*%
%TF.CreationDate,2021-07-02T20:36:40+01:00*%
%TF.ProjectId,MultMixer,4d756c74-4d69-4786-9572-2e6b69636164,rev?*%
%TF.SameCoordinates,Original*%
%TF.FileFunction,Legend,Bot*%
%TF.FilePolarity,Positive*%
%FSLAX46Y46*%
G04 Gerber Fmt 4.6, Leading zero omitted, Abs format (unit mm)*
G04 Created by KiCad (PCBNEW (5.1.9)-1) date 2021-07-02 20:36:40*
%MOMM*%
%LPD*%
G01*
G04 APERTURE LIST*
%ADD10C,0.120000*%
%ADD11C,0.150000*%
%ADD12O,1.740000X2.190000*%
%ADD13O,2.362000X1.362000*%
%ADD14O,1.600000X2.400000*%
%ADD15R,1.600000X2.400000*%
%ADD16C,3.240000*%
%ADD17C,1.800000*%
%ADD18R,1.800000X1.800000*%
%ADD19O,1.600000X1.600000*%
%ADD20C,1.600000*%
%ADD21R,1.727200X1.727200*%
%ADD22O,1.727200X1.727200*%
%ADD23R,1.600000X1.600000*%
G04 APERTURE END LIST*
D10*
%TO.C,SW5*%
X181400000Y-148900000D02*
X181400000Y-157100000D01*
X186600000Y-148900000D02*
X181400000Y-148900000D01*
X186600000Y-148900000D02*
X186600000Y-157100000D01*
X186600000Y-157100000D02*
X181400000Y-157100000D01*
%TO.C,SW4*%
X181400000Y-128900000D02*
X181400000Y-137100000D01*
X186600000Y-128900000D02*
X181400000Y-128900000D01*
X186600000Y-128900000D02*
X186600000Y-137100000D01*
X186600000Y-137100000D02*
X181400000Y-137100000D01*
%TO.C,SW3*%
X181400000Y-108900000D02*
X181400000Y-117100000D01*
X186600000Y-108900000D02*
X181400000Y-108900000D01*
X186600000Y-108900000D02*
X186600000Y-117100000D01*
X186600000Y-117100000D02*
X181400000Y-117100000D01*
%TO.C,SW2*%
X181400000Y-88900000D02*
X181400000Y-97100000D01*
X186600000Y-88900000D02*
X181400000Y-88900000D01*
X186600000Y-88900000D02*
X186600000Y-97100000D01*
X186600000Y-97100000D02*
X181400000Y-97100000D01*
%TO.C,SW1*%
X181400000Y-68900000D02*
X181400000Y-77100000D01*
X186600000Y-68900000D02*
X181400000Y-68900000D01*
X186600000Y-68900000D02*
X186600000Y-77100000D01*
X186600000Y-77100000D02*
X181400000Y-77100000D01*
%TO.C,RV5*%
X202387000Y-151380000D02*
X202387000Y-152210000D01*
X202387000Y-153830000D02*
X202387000Y-154360000D01*
X202387000Y-156730000D02*
X202387000Y-157910000D01*
X202387000Y-148170000D02*
X207107000Y-148170000D01*
X210917000Y-157910000D02*
X213977000Y-157910000D01*
X202387000Y-157920000D02*
X207107000Y-157920000D01*
X210917000Y-148170000D02*
X213977000Y-148170000D01*
X202387000Y-148170000D02*
X202387000Y-149660000D01*
X213977000Y-148170000D02*
X213977000Y-157910000D01*
%TO.C,RV4*%
X202387000Y-131380000D02*
X202387000Y-132210000D01*
X202387000Y-133830000D02*
X202387000Y-134360000D01*
X202387000Y-136730000D02*
X202387000Y-137910000D01*
X202387000Y-128170000D02*
X207107000Y-128170000D01*
X210917000Y-137910000D02*
X213977000Y-137910000D01*
X202387000Y-137920000D02*
X207107000Y-137920000D01*
X210917000Y-128170000D02*
X213977000Y-128170000D01*
X202387000Y-128170000D02*
X202387000Y-129660000D01*
X213977000Y-128170000D02*
X213977000Y-137910000D01*
%TO.C,RV3*%
X202387000Y-111380000D02*
X202387000Y-112210000D01*
X202387000Y-113830000D02*
X202387000Y-114360000D01*
X202387000Y-116730000D02*
X202387000Y-117910000D01*
X202387000Y-108170000D02*
X207107000Y-108170000D01*
X210917000Y-117910000D02*
X213977000Y-117910000D01*
X202387000Y-117920000D02*
X207107000Y-117920000D01*
X210917000Y-108170000D02*
X213977000Y-108170000D01*
X202387000Y-108170000D02*
X202387000Y-109660000D01*
X213977000Y-108170000D02*
X213977000Y-117910000D01*
%TO.C,RV2*%
X202387000Y-91380000D02*
X202387000Y-92210000D01*
X202387000Y-93830000D02*
X202387000Y-94360000D01*
X202387000Y-96730000D02*
X202387000Y-97910000D01*
X202387000Y-88170000D02*
X207107000Y-88170000D01*
X210917000Y-97910000D02*
X213977000Y-97910000D01*
X202387000Y-97920000D02*
X207107000Y-97920000D01*
X210917000Y-88170000D02*
X213977000Y-88170000D01*
X202387000Y-88170000D02*
X202387000Y-89660000D01*
X213977000Y-88170000D02*
X213977000Y-97910000D01*
%TO.C,RV1*%
X202387000Y-71380000D02*
X202387000Y-72210000D01*
X202387000Y-73830000D02*
X202387000Y-74360000D01*
X202387000Y-76730000D02*
X202387000Y-77910000D01*
X202387000Y-68170000D02*
X207107000Y-68170000D01*
X210917000Y-77910000D02*
X213977000Y-77910000D01*
X202387000Y-77920000D02*
X207107000Y-77920000D01*
X210917000Y-68170000D02*
X213977000Y-68170000D01*
X202387000Y-68170000D02*
X202387000Y-69660000D01*
X213977000Y-68170000D02*
X213977000Y-77910000D01*
%TO.C,SW5*%
D11*
X187804761Y-151966666D02*
X187852380Y-152109523D01*
X187852380Y-152347619D01*
X187804761Y-152442857D01*
X187757142Y-152490476D01*
X187661904Y-152538095D01*
X187566666Y-152538095D01*
X187471428Y-152490476D01*
X187423809Y-152442857D01*
X187376190Y-152347619D01*
X187328571Y-152157142D01*
X187280952Y-152061904D01*
X187233333Y-152014285D01*
X187138095Y-151966666D01*
X187042857Y-151966666D01*
X186947619Y-152014285D01*
X186900000Y-152061904D01*
X186852380Y-152157142D01*
X186852380Y-152395238D01*
X186900000Y-152538095D01*
X186852380Y-152871428D02*
X187852380Y-153109523D01*
X187138095Y-153300000D01*
X187852380Y-153490476D01*
X186852380Y-153728571D01*
X186852380Y-154585714D02*
X186852380Y-154109523D01*
X187328571Y-154061904D01*
X187280952Y-154109523D01*
X187233333Y-154204761D01*
X187233333Y-154442857D01*
X187280952Y-154538095D01*
X187328571Y-154585714D01*
X187423809Y-154633333D01*
X187661904Y-154633333D01*
X187757142Y-154585714D01*
X187804761Y-154538095D01*
X187852380Y-154442857D01*
X187852380Y-154204761D01*
X187804761Y-154109523D01*
X187757142Y-154061904D01*
%TO.C,SW4*%
X187804761Y-131966666D02*
X187852380Y-132109523D01*
X187852380Y-132347619D01*
X187804761Y-132442857D01*
X187757142Y-132490476D01*
X187661904Y-132538095D01*
X187566666Y-132538095D01*
X187471428Y-132490476D01*
X187423809Y-132442857D01*
X187376190Y-132347619D01*
X187328571Y-132157142D01*
X187280952Y-132061904D01*
X187233333Y-132014285D01*
X187138095Y-131966666D01*
X187042857Y-131966666D01*
X186947619Y-132014285D01*
X186900000Y-132061904D01*
X186852380Y-132157142D01*
X186852380Y-132395238D01*
X186900000Y-132538095D01*
X186852380Y-132871428D02*
X187852380Y-133109523D01*
X187138095Y-133300000D01*
X187852380Y-133490476D01*
X186852380Y-133728571D01*
X187185714Y-134538095D02*
X187852380Y-134538095D01*
X186804761Y-134300000D02*
X187519047Y-134061904D01*
X187519047Y-134680952D01*
%TO.C,SW3*%
X187804761Y-111966666D02*
X187852380Y-112109523D01*
X187852380Y-112347619D01*
X187804761Y-112442857D01*
X187757142Y-112490476D01*
X187661904Y-112538095D01*
X187566666Y-112538095D01*
X187471428Y-112490476D01*
X187423809Y-112442857D01*
X187376190Y-112347619D01*
X187328571Y-112157142D01*
X187280952Y-112061904D01*
X187233333Y-112014285D01*
X187138095Y-111966666D01*
X187042857Y-111966666D01*
X186947619Y-112014285D01*
X186900000Y-112061904D01*
X186852380Y-112157142D01*
X186852380Y-112395238D01*
X186900000Y-112538095D01*
X186852380Y-112871428D02*
X187852380Y-113109523D01*
X187138095Y-113300000D01*
X187852380Y-113490476D01*
X186852380Y-113728571D01*
X186852380Y-114014285D02*
X186852380Y-114633333D01*
X187233333Y-114300000D01*
X187233333Y-114442857D01*
X187280952Y-114538095D01*
X187328571Y-114585714D01*
X187423809Y-114633333D01*
X187661904Y-114633333D01*
X187757142Y-114585714D01*
X187804761Y-114538095D01*
X187852380Y-114442857D01*
X187852380Y-114157142D01*
X187804761Y-114061904D01*
X187757142Y-114014285D01*
%TO.C,SW2*%
X187804761Y-91966666D02*
X187852380Y-92109523D01*
X187852380Y-92347619D01*
X187804761Y-92442857D01*
X187757142Y-92490476D01*
X187661904Y-92538095D01*
X187566666Y-92538095D01*
X187471428Y-92490476D01*
X187423809Y-92442857D01*
X187376190Y-92347619D01*
X187328571Y-92157142D01*
X187280952Y-92061904D01*
X187233333Y-92014285D01*
X187138095Y-91966666D01*
X187042857Y-91966666D01*
X186947619Y-92014285D01*
X186900000Y-92061904D01*
X186852380Y-92157142D01*
X186852380Y-92395238D01*
X186900000Y-92538095D01*
X186852380Y-92871428D02*
X187852380Y-93109523D01*
X187138095Y-93300000D01*
X187852380Y-93490476D01*
X186852380Y-93728571D01*
X186947619Y-94061904D02*
X186900000Y-94109523D01*
X186852380Y-94204761D01*
X186852380Y-94442857D01*
X186900000Y-94538095D01*
X186947619Y-94585714D01*
X187042857Y-94633333D01*
X187138095Y-94633333D01*
X187280952Y-94585714D01*
X187852380Y-94014285D01*
X187852380Y-94633333D01*
%TO.C,SW1*%
X187804761Y-71966666D02*
X187852380Y-72109523D01*
X187852380Y-72347619D01*
X187804761Y-72442857D01*
X187757142Y-72490476D01*
X187661904Y-72538095D01*
X187566666Y-72538095D01*
X187471428Y-72490476D01*
X187423809Y-72442857D01*
X187376190Y-72347619D01*
X187328571Y-72157142D01*
X187280952Y-72061904D01*
X187233333Y-72014285D01*
X187138095Y-71966666D01*
X187042857Y-71966666D01*
X186947619Y-72014285D01*
X186900000Y-72061904D01*
X186852380Y-72157142D01*
X186852380Y-72395238D01*
X186900000Y-72538095D01*
X186852380Y-72871428D02*
X187852380Y-73109523D01*
X187138095Y-73300000D01*
X187852380Y-73490476D01*
X186852380Y-73728571D01*
X187852380Y-74633333D02*
X187852380Y-74061904D01*
X187852380Y-74347619D02*
X186852380Y-74347619D01*
X186995238Y-74252380D01*
X187090476Y-74157142D01*
X187138095Y-74061904D01*
%TO.C,RV5*%
X208552238Y-160792380D02*
X208885571Y-160316190D01*
X209123666Y-160792380D02*
X209123666Y-159792380D01*
X208742714Y-159792380D01*
X208647476Y-159840000D01*
X208599857Y-159887619D01*
X208552238Y-159982857D01*
X208552238Y-160125714D01*
X208599857Y-160220952D01*
X208647476Y-160268571D01*
X208742714Y-160316190D01*
X209123666Y-160316190D01*
X208266523Y-159792380D02*
X207933190Y-160792380D01*
X207599857Y-159792380D01*
X206790333Y-159792380D02*
X207266523Y-159792380D01*
X207314142Y-160268571D01*
X207266523Y-160220952D01*
X207171285Y-160173333D01*
X206933190Y-160173333D01*
X206837952Y-160220952D01*
X206790333Y-160268571D01*
X206742714Y-160363809D01*
X206742714Y-160601904D01*
X206790333Y-160697142D01*
X206837952Y-160744761D01*
X206933190Y-160792380D01*
X207171285Y-160792380D01*
X207266523Y-160744761D01*
X207314142Y-160697142D01*
%TO.C,RV4*%
X208552238Y-140792380D02*
X208885571Y-140316190D01*
X209123666Y-140792380D02*
X209123666Y-139792380D01*
X208742714Y-139792380D01*
X208647476Y-139840000D01*
X208599857Y-139887619D01*
X208552238Y-139982857D01*
X208552238Y-140125714D01*
X208599857Y-140220952D01*
X208647476Y-140268571D01*
X208742714Y-140316190D01*
X209123666Y-140316190D01*
X208266523Y-139792380D02*
X207933190Y-140792380D01*
X207599857Y-139792380D01*
X206837952Y-140125714D02*
X206837952Y-140792380D01*
X207076047Y-139744761D02*
X207314142Y-140459047D01*
X206695095Y-140459047D01*
%TO.C,RV3*%
X208552238Y-120792380D02*
X208885571Y-120316190D01*
X209123666Y-120792380D02*
X209123666Y-119792380D01*
X208742714Y-119792380D01*
X208647476Y-119840000D01*
X208599857Y-119887619D01*
X208552238Y-119982857D01*
X208552238Y-120125714D01*
X208599857Y-120220952D01*
X208647476Y-120268571D01*
X208742714Y-120316190D01*
X209123666Y-120316190D01*
X208266523Y-119792380D02*
X207933190Y-120792380D01*
X207599857Y-119792380D01*
X207361761Y-119792380D02*
X206742714Y-119792380D01*
X207076047Y-120173333D01*
X206933190Y-120173333D01*
X206837952Y-120220952D01*
X206790333Y-120268571D01*
X206742714Y-120363809D01*
X206742714Y-120601904D01*
X206790333Y-120697142D01*
X206837952Y-120744761D01*
X206933190Y-120792380D01*
X207218904Y-120792380D01*
X207314142Y-120744761D01*
X207361761Y-120697142D01*
%TO.C,RV2*%
X208552238Y-100792380D02*
X208885571Y-100316190D01*
X209123666Y-100792380D02*
X209123666Y-99792380D01*
X208742714Y-99792380D01*
X208647476Y-99840000D01*
X208599857Y-99887619D01*
X208552238Y-99982857D01*
X208552238Y-100125714D01*
X208599857Y-100220952D01*
X208647476Y-100268571D01*
X208742714Y-100316190D01*
X209123666Y-100316190D01*
X208266523Y-99792380D02*
X207933190Y-100792380D01*
X207599857Y-99792380D01*
X207314142Y-99887619D02*
X207266523Y-99840000D01*
X207171285Y-99792380D01*
X206933190Y-99792380D01*
X206837952Y-99840000D01*
X206790333Y-99887619D01*
X206742714Y-99982857D01*
X206742714Y-100078095D01*
X206790333Y-100220952D01*
X207361761Y-100792380D01*
X206742714Y-100792380D01*
%TO.C,RV1*%
X208552238Y-80792380D02*
X208885571Y-80316190D01*
X209123666Y-80792380D02*
X209123666Y-79792380D01*
X208742714Y-79792380D01*
X208647476Y-79840000D01*
X208599857Y-79887619D01*
X208552238Y-79982857D01*
X208552238Y-80125714D01*
X208599857Y-80220952D01*
X208647476Y-80268571D01*
X208742714Y-80316190D01*
X209123666Y-80316190D01*
X208266523Y-79792380D02*
X207933190Y-80792380D01*
X207599857Y-79792380D01*
X206742714Y-80792380D02*
X207314142Y-80792380D01*
X207028428Y-80792380D02*
X207028428Y-79792380D01*
X207123666Y-79935238D01*
X207218904Y-80030476D01*
X207314142Y-80078095D01*
%TD*%
%LPC*%
D12*
%TO.C,LED*%
X177000000Y-206000000D03*
G36*
G01*
X173590000Y-206844441D02*
X173590000Y-205155559D01*
G75*
G02*
X173840559Y-204905000I250559J0D01*
G01*
X175079441Y-204905000D01*
G75*
G02*
X175330000Y-205155559I0J-250559D01*
G01*
X175330000Y-206844441D01*
G75*
G02*
X175079441Y-207095000I-250559J0D01*
G01*
X173840559Y-207095000D01*
G75*
G02*
X173590000Y-206844441I0J250559D01*
G01*
G37*
%TD*%
D13*
%TO.C,SW5*%
X184000000Y-155500000D03*
X184000000Y-150500000D03*
X184000000Y-153000000D03*
%TD*%
%TO.C,SW4*%
X184000000Y-135500000D03*
X184000000Y-130500000D03*
X184000000Y-133000000D03*
%TD*%
%TO.C,SW3*%
X184000000Y-115500000D03*
X184000000Y-110500000D03*
X184000000Y-113000000D03*
%TD*%
%TO.C,SW2*%
X184000000Y-95500000D03*
X184000000Y-90500000D03*
X184000000Y-93000000D03*
%TD*%
%TO.C,SW1*%
X184000000Y-75500000D03*
X184000000Y-70500000D03*
X184000000Y-73000000D03*
%TD*%
D12*
%TO.C,MIX OUT*%
X215000000Y-175000000D03*
G36*
G01*
X211590000Y-175845001D02*
X211590000Y-174154999D01*
G75*
G02*
X211839999Y-173905000I249999J0D01*
G01*
X213080001Y-173905000D01*
G75*
G02*
X213330000Y-174154999I0J-249999D01*
G01*
X213330000Y-175845001D01*
G75*
G02*
X213080001Y-176095000I-249999J0D01*
G01*
X211839999Y-176095000D01*
G75*
G02*
X211590000Y-175845001I0J249999D01*
G01*
G37*
%TD*%
%TO.C,IN 5*%
X214540000Y-163000000D03*
G36*
G01*
X211130000Y-163845001D02*
X211130000Y-162154999D01*
G75*
G02*
X211379999Y-161905000I249999J0D01*
G01*
X212620001Y-161905000D01*
G75*
G02*
X212870000Y-162154999I0J-249999D01*
G01*
X212870000Y-163845001D01*
G75*
G02*
X212620001Y-164095000I-249999J0D01*
G01*
X211379999Y-164095000D01*
G75*
G02*
X211130000Y-163845001I0J249999D01*
G01*
G37*
%TD*%
%TO.C,IN 4*%
X215000000Y-143000000D03*
G36*
G01*
X211590000Y-143845001D02*
X211590000Y-142154999D01*
G75*
G02*
X211839999Y-141905000I249999J0D01*
G01*
X213080001Y-141905000D01*
G75*
G02*
X213330000Y-142154999I0J-249999D01*
G01*
X213330000Y-143845001D01*
G75*
G02*
X213080001Y-144095000I-249999J0D01*
G01*
X211839999Y-144095000D01*
G75*
G02*
X211590000Y-143845001I0J249999D01*
G01*
G37*
%TD*%
%TO.C,IN 3*%
X214540000Y-123000000D03*
G36*
G01*
X211130000Y-123845001D02*
X211130000Y-122154999D01*
G75*
G02*
X211379999Y-121905000I249999J0D01*
G01*
X212620001Y-121905000D01*
G75*
G02*
X212870000Y-122154999I0J-249999D01*
G01*
X212870000Y-123845001D01*
G75*
G02*
X212620001Y-124095000I-249999J0D01*
G01*
X211379999Y-124095000D01*
G75*
G02*
X211130000Y-123845001I0J249999D01*
G01*
G37*
%TD*%
%TO.C,IN 2*%
X215000000Y-103000000D03*
G36*
G01*
X211590000Y-103845001D02*
X211590000Y-102154999D01*
G75*
G02*
X211839999Y-101905000I249999J0D01*
G01*
X213080001Y-101905000D01*
G75*
G02*
X213330000Y-102154999I0J-249999D01*
G01*
X213330000Y-103845001D01*
G75*
G02*
X213080001Y-104095000I-249999J0D01*
G01*
X211839999Y-104095000D01*
G75*
G02*
X211590000Y-103845001I0J249999D01*
G01*
G37*
%TD*%
%TO.C,IN 1*%
X215000000Y-83000000D03*
G36*
G01*
X211590000Y-83845001D02*
X211590000Y-82154999D01*
G75*
G02*
X211839999Y-81905000I249999J0D01*
G01*
X213080001Y-81905000D01*
G75*
G02*
X213330000Y-82154999I0J-249999D01*
G01*
X213330000Y-83845001D01*
G75*
G02*
X213080001Y-84095000I-249999J0D01*
G01*
X211839999Y-84095000D01*
G75*
G02*
X211590000Y-83845001I0J249999D01*
G01*
G37*
%TD*%
%TO.C,OUT 5*%
X177415000Y-196125000D03*
G36*
G01*
X174005000Y-196970001D02*
X174005000Y-195279999D01*
G75*
G02*
X174254999Y-195030000I249999J0D01*
G01*
X175495001Y-195030000D01*
G75*
G02*
X175745000Y-195279999I0J-249999D01*
G01*
X175745000Y-196970001D01*
G75*
G02*
X175495001Y-197220000I-249999J0D01*
G01*
X174254999Y-197220000D01*
G75*
G02*
X174005000Y-196970001I0J249999D01*
G01*
G37*
%TD*%
%TO.C,OUT 3*%
X177415000Y-172500000D03*
G36*
G01*
X174005000Y-173345001D02*
X174005000Y-171654999D01*
G75*
G02*
X174254999Y-171405000I249999J0D01*
G01*
X175495001Y-171405000D01*
G75*
G02*
X175745000Y-171654999I0J-249999D01*
G01*
X175745000Y-173345001D01*
G75*
G02*
X175495001Y-173595000I-249999J0D01*
G01*
X174254999Y-173595000D01*
G75*
G02*
X174005000Y-173345001I0J249999D01*
G01*
G37*
%TD*%
%TO.C,OUT 4*%
X177040000Y-184875000D03*
G36*
G01*
X173630000Y-185720001D02*
X173630000Y-184029999D01*
G75*
G02*
X173879999Y-183780000I249999J0D01*
G01*
X175120001Y-183780000D01*
G75*
G02*
X175370000Y-184029999I0J-249999D01*
G01*
X175370000Y-185720001D01*
G75*
G02*
X175120001Y-185970000I-249999J0D01*
G01*
X173879999Y-185970000D01*
G75*
G02*
X173630000Y-185720001I0J249999D01*
G01*
G37*
%TD*%
%TO.C,OUT 2*%
X177040000Y-159000000D03*
G36*
G01*
X173630000Y-159845001D02*
X173630000Y-158154999D01*
G75*
G02*
X173879999Y-157905000I249999J0D01*
G01*
X175120001Y-157905000D01*
G75*
G02*
X175370000Y-158154999I0J-249999D01*
G01*
X175370000Y-159845001D01*
G75*
G02*
X175120001Y-160095000I-249999J0D01*
G01*
X173879999Y-160095000D01*
G75*
G02*
X173630000Y-159845001I0J249999D01*
G01*
G37*
%TD*%
%TO.C,OUT 1*%
X177040000Y-146625000D03*
G36*
G01*
X173630000Y-147470001D02*
X173630000Y-145779999D01*
G75*
G02*
X173879999Y-145530000I249999J0D01*
G01*
X175120001Y-145530000D01*
G75*
G02*
X175370000Y-145779999I0J-249999D01*
G01*
X175370000Y-147470001D01*
G75*
G02*
X175120001Y-147720000I-249999J0D01*
G01*
X173879999Y-147720000D01*
G75*
G02*
X173630000Y-147470001I0J249999D01*
G01*
G37*
%TD*%
%TO.C,MULT IN*%
X177000000Y-136500000D03*
G36*
G01*
X173590000Y-137345001D02*
X173590000Y-135654999D01*
G75*
G02*
X173839999Y-135405000I249999J0D01*
G01*
X175080001Y-135405000D01*
G75*
G02*
X175330000Y-135654999I0J-249999D01*
G01*
X175330000Y-137345001D01*
G75*
G02*
X175080001Y-137595000I-249999J0D01*
G01*
X173839999Y-137595000D01*
G75*
G02*
X173590000Y-137345001I0J249999D01*
G01*
G37*
%TD*%
D14*
%TO.C,U2*%
X193000000Y-86620000D03*
X177760000Y-79000000D03*
X190460000Y-86620000D03*
X180300000Y-79000000D03*
X187920000Y-86620000D03*
X182840000Y-79000000D03*
X185380000Y-86620000D03*
X185380000Y-79000000D03*
X182840000Y-86620000D03*
X187920000Y-79000000D03*
X180300000Y-86620000D03*
X190460000Y-79000000D03*
X177760000Y-86620000D03*
D15*
X193000000Y-79000000D03*
%TD*%
D14*
%TO.C,U1*%
X195500000Y-126620000D03*
X180260000Y-119000000D03*
X192960000Y-126620000D03*
X182800000Y-119000000D03*
X190420000Y-126620000D03*
X185340000Y-119000000D03*
X187880000Y-126620000D03*
X187880000Y-119000000D03*
X185340000Y-126620000D03*
X190420000Y-119000000D03*
X182800000Y-126620000D03*
X192960000Y-119000000D03*
X180260000Y-126620000D03*
D15*
X195500000Y-119000000D03*
%TD*%
D16*
%TO.C,RV5*%
X209007000Y-157840000D03*
X209007000Y-148240000D03*
D17*
X201507000Y-150540000D03*
X201507000Y-153040000D03*
D18*
X201507000Y-155540000D03*
%TD*%
D16*
%TO.C,RV4*%
X209007000Y-137840000D03*
X209007000Y-128240000D03*
D17*
X201507000Y-130540000D03*
X201507000Y-133040000D03*
D18*
X201507000Y-135540000D03*
%TD*%
D16*
%TO.C,RV3*%
X209007000Y-117840000D03*
X209007000Y-108240000D03*
D17*
X201507000Y-110540000D03*
X201507000Y-113040000D03*
D18*
X201507000Y-115540000D03*
%TD*%
D16*
%TO.C,RV2*%
X209007000Y-97840000D03*
X209007000Y-88240000D03*
D17*
X201507000Y-90540000D03*
X201507000Y-93040000D03*
D18*
X201507000Y-95540000D03*
%TD*%
D16*
%TO.C,RV1*%
X209007000Y-77840000D03*
X209007000Y-68240000D03*
D17*
X201507000Y-70540000D03*
X201507000Y-73040000D03*
D18*
X201507000Y-75540000D03*
%TD*%
D19*
%TO.C,R15*%
X197000000Y-75900000D03*
D20*
X189380000Y-75900000D03*
%TD*%
D19*
%TO.C,R14*%
X170500000Y-87120000D03*
D20*
X170500000Y-79500000D03*
%TD*%
D19*
%TO.C,R13*%
X174000000Y-79380000D03*
D20*
X174000000Y-87000000D03*
%TD*%
D19*
%TO.C,R12*%
X196620000Y-153000000D03*
D20*
X189000000Y-153000000D03*
%TD*%
D19*
%TO.C,R11*%
X189380000Y-133000000D03*
D20*
X197000000Y-133000000D03*
%TD*%
D19*
%TO.C,R10*%
X189380000Y-113000000D03*
D20*
X197000000Y-113000000D03*
%TD*%
D19*
%TO.C,R9*%
X189380000Y-98000000D03*
D20*
X197000000Y-98000000D03*
%TD*%
D19*
%TO.C,R8*%
X189380000Y-72900000D03*
D20*
X197000000Y-72900000D03*
%TD*%
D19*
%TO.C,R7*%
X187620000Y-206000000D03*
D20*
X180000000Y-206000000D03*
%TD*%
D19*
%TO.C,R6*%
X188120000Y-196500000D03*
D20*
X180500000Y-196500000D03*
%TD*%
D19*
%TO.C,R5*%
X188000000Y-172500000D03*
D20*
X180380000Y-172500000D03*
%TD*%
D19*
%TO.C,R4*%
X187500000Y-184500000D03*
D20*
X179880000Y-184500000D03*
%TD*%
D19*
%TO.C,R3*%
X187500000Y-159000000D03*
D20*
X179880000Y-159000000D03*
%TD*%
D19*
%TO.C,R2*%
X187620000Y-146500000D03*
D20*
X180000000Y-146500000D03*
%TD*%
D19*
%TO.C,R1*%
X197000000Y-136500000D03*
D20*
X189380000Y-136500000D03*
%TD*%
D21*
%TO.C,J2*%
X210250000Y-195750000D03*
D22*
X212790000Y-195750000D03*
X210250000Y-198290000D03*
X212790000Y-198290000D03*
X210250000Y-200830000D03*
X212790000Y-200830000D03*
X210250000Y-203370000D03*
X212790000Y-203370000D03*
X210250000Y-205910000D03*
X212790000Y-205910000D03*
%TD*%
D19*
%TO.C,D2*%
X214620000Y-183000000D03*
G36*
G01*
X206200000Y-183400000D02*
X206200000Y-182600000D01*
G75*
G02*
X206600000Y-182200000I400000J0D01*
G01*
X207400000Y-182200000D01*
G75*
G02*
X207800000Y-182600000I0J-400000D01*
G01*
X207800000Y-183400000D01*
G75*
G02*
X207400000Y-183800000I-400000J0D01*
G01*
X206600000Y-183800000D01*
G75*
G02*
X206200000Y-183400000I0J400000D01*
G01*
G37*
%TD*%
%TO.C,D1*%
X214620000Y-186000000D03*
G36*
G01*
X206200000Y-186400000D02*
X206200000Y-185600000D01*
G75*
G02*
X206600000Y-185200000I400000J0D01*
G01*
X207400000Y-185200000D01*
G75*
G02*
X207800000Y-185600000I0J-400000D01*
G01*
X207800000Y-186400000D01*
G75*
G02*
X207400000Y-186800000I-400000J0D01*
G01*
X206600000Y-186800000D01*
G75*
G02*
X206200000Y-186400000I0J400000D01*
G01*
G37*
%TD*%
D20*
%TO.C,C8*%
X197500000Y-80500000D03*
X197500000Y-85500000D03*
%TD*%
%TO.C,C7*%
X179000000Y-92000000D03*
X174000000Y-92000000D03*
%TD*%
%TO.C,C6*%
X201000000Y-125000000D03*
X201000000Y-120000000D03*
%TD*%
%TO.C,C5*%
X176000000Y-120000000D03*
X176000000Y-125000000D03*
%TD*%
%TO.C,C4*%
X178000000Y-75000000D03*
X173000000Y-75000000D03*
%TD*%
%TO.C,C3*%
X193000000Y-91000000D03*
X188000000Y-91000000D03*
%TD*%
%TO.C,C2*%
X202500000Y-207000000D03*
D23*
X200000000Y-207000000D03*
%TD*%
D20*
%TO.C,C1*%
X203000000Y-198000000D03*
D23*
X200500000Y-198000000D03*
%TD*%
M02*
