%TF.GenerationSoftware,KiCad,Pcbnew,(5.1.9)-1*%
%TF.CreationDate,2021-07-02T20:28:59+01:00*%
%TF.ProjectId,MultMixer,4d756c74-4d69-4786-9572-2e6b69636164,rev?*%
%TF.SameCoordinates,Original*%
%TF.FileFunction,Legend,Top*%
%TF.FilePolarity,Positive*%
%FSLAX46Y46*%
G04 Gerber Fmt 4.6, Leading zero omitted, Abs format (unit mm)*
G04 Created by KiCad (PCBNEW (5.1.9)-1) date 2021-07-02 20:28:59*
%MOMM*%
%LPD*%
G01*
G04 APERTURE LIST*
%ADD10C,0.120000*%
%ADD11C,0.150000*%
%ADD12C,0.100000*%
%ADD13C,0.130000*%
%ADD14O,1.740000X2.190000*%
%ADD15O,2.362000X1.362000*%
%ADD16O,1.600000X2.400000*%
%ADD17R,1.600000X2.400000*%
%ADD18C,3.240000*%
%ADD19C,1.800000*%
%ADD20R,1.800000X1.800000*%
%ADD21O,1.600000X1.600000*%
%ADD22C,1.600000*%
%ADD23R,1.727200X1.727200*%
%ADD24O,1.727200X1.727200*%
%ADD25R,1.600000X1.600000*%
G04 APERTURE END LIST*
D10*
%TO.C,LED*%
X173080000Y-202970000D02*
X173080000Y-208990000D01*
X173080000Y-208990000D02*
X178380000Y-208990000D01*
X178380000Y-208990000D02*
X178380000Y-202970000D01*
X178380000Y-202970000D02*
X173080000Y-202970000D01*
X172790000Y-204000000D02*
X172790000Y-208000000D01*
X174460000Y-208990000D02*
X174460000Y-207990000D01*
X174460000Y-207990000D02*
X177000000Y-207990000D01*
X177000000Y-207990000D02*
X177000000Y-208990000D01*
X174460000Y-207990000D02*
X174710000Y-207460000D01*
X174710000Y-207460000D02*
X176750000Y-207460000D01*
X176750000Y-207460000D02*
X177000000Y-207990000D01*
X174710000Y-208990000D02*
X174710000Y-207990000D01*
X176750000Y-208990000D02*
X176750000Y-207990000D01*
X173660000Y-202970000D02*
X173660000Y-203570000D01*
X173660000Y-203570000D02*
X175260000Y-203570000D01*
X175260000Y-203570000D02*
X175260000Y-202970000D01*
X176200000Y-202970000D02*
X176200000Y-203570000D01*
X176200000Y-203570000D02*
X177800000Y-203570000D01*
X177800000Y-203570000D02*
X177800000Y-202970000D01*
%TO.C,MIX OUT*%
X215800000Y-172570000D02*
X215800000Y-171970000D01*
X214200000Y-172570000D02*
X215800000Y-172570000D01*
X214200000Y-171970000D02*
X214200000Y-172570000D01*
X213260000Y-172570000D02*
X213260000Y-171970000D01*
X211660000Y-172570000D02*
X213260000Y-172570000D01*
X211660000Y-171970000D02*
X211660000Y-172570000D01*
X214750000Y-177990000D02*
X214750000Y-176990000D01*
X212710000Y-177990000D02*
X212710000Y-176990000D01*
X214750000Y-176460000D02*
X215000000Y-176990000D01*
X212710000Y-176460000D02*
X214750000Y-176460000D01*
X212460000Y-176990000D02*
X212710000Y-176460000D01*
X215000000Y-176990000D02*
X215000000Y-177990000D01*
X212460000Y-176990000D02*
X215000000Y-176990000D01*
X212460000Y-177990000D02*
X212460000Y-176990000D01*
X210790000Y-173000000D02*
X210790000Y-177000000D01*
X216380000Y-171970000D02*
X211080000Y-171970000D01*
X216380000Y-177990000D02*
X216380000Y-171970000D01*
X211080000Y-177990000D02*
X216380000Y-177990000D01*
X211080000Y-171970000D02*
X211080000Y-177990000D01*
%TO.C,IN 5*%
X215340000Y-160570000D02*
X215340000Y-159970000D01*
X213740000Y-160570000D02*
X215340000Y-160570000D01*
X213740000Y-159970000D02*
X213740000Y-160570000D01*
X212800000Y-160570000D02*
X212800000Y-159970000D01*
X211200000Y-160570000D02*
X212800000Y-160570000D01*
X211200000Y-159970000D02*
X211200000Y-160570000D01*
X214290000Y-165990000D02*
X214290000Y-164990000D01*
X212250000Y-165990000D02*
X212250000Y-164990000D01*
X214290000Y-164460000D02*
X214540000Y-164990000D01*
X212250000Y-164460000D02*
X214290000Y-164460000D01*
X212000000Y-164990000D02*
X212250000Y-164460000D01*
X214540000Y-164990000D02*
X214540000Y-165990000D01*
X212000000Y-164990000D02*
X214540000Y-164990000D01*
X212000000Y-165990000D02*
X212000000Y-164990000D01*
X210330000Y-161000000D02*
X210330000Y-165000000D01*
X215920000Y-159970000D02*
X210620000Y-159970000D01*
X215920000Y-165990000D02*
X215920000Y-159970000D01*
X210620000Y-165990000D02*
X215920000Y-165990000D01*
X210620000Y-159970000D02*
X210620000Y-165990000D01*
%TO.C,IN 4*%
X215800000Y-140570000D02*
X215800000Y-139970000D01*
X214200000Y-140570000D02*
X215800000Y-140570000D01*
X214200000Y-139970000D02*
X214200000Y-140570000D01*
X213260000Y-140570000D02*
X213260000Y-139970000D01*
X211660000Y-140570000D02*
X213260000Y-140570000D01*
X211660000Y-139970000D02*
X211660000Y-140570000D01*
X214750000Y-145990000D02*
X214750000Y-144990000D01*
X212710000Y-145990000D02*
X212710000Y-144990000D01*
X214750000Y-144460000D02*
X215000000Y-144990000D01*
X212710000Y-144460000D02*
X214750000Y-144460000D01*
X212460000Y-144990000D02*
X212710000Y-144460000D01*
X215000000Y-144990000D02*
X215000000Y-145990000D01*
X212460000Y-144990000D02*
X215000000Y-144990000D01*
X212460000Y-145990000D02*
X212460000Y-144990000D01*
X210790000Y-141000000D02*
X210790000Y-145000000D01*
X216380000Y-139970000D02*
X211080000Y-139970000D01*
X216380000Y-145990000D02*
X216380000Y-139970000D01*
X211080000Y-145990000D02*
X216380000Y-145990000D01*
X211080000Y-139970000D02*
X211080000Y-145990000D01*
%TO.C,IN 3*%
X215340000Y-120570000D02*
X215340000Y-119970000D01*
X213740000Y-120570000D02*
X215340000Y-120570000D01*
X213740000Y-119970000D02*
X213740000Y-120570000D01*
X212800000Y-120570000D02*
X212800000Y-119970000D01*
X211200000Y-120570000D02*
X212800000Y-120570000D01*
X211200000Y-119970000D02*
X211200000Y-120570000D01*
X214290000Y-125990000D02*
X214290000Y-124990000D01*
X212250000Y-125990000D02*
X212250000Y-124990000D01*
X214290000Y-124460000D02*
X214540000Y-124990000D01*
X212250000Y-124460000D02*
X214290000Y-124460000D01*
X212000000Y-124990000D02*
X212250000Y-124460000D01*
X214540000Y-124990000D02*
X214540000Y-125990000D01*
X212000000Y-124990000D02*
X214540000Y-124990000D01*
X212000000Y-125990000D02*
X212000000Y-124990000D01*
X210330000Y-121000000D02*
X210330000Y-125000000D01*
X215920000Y-119970000D02*
X210620000Y-119970000D01*
X215920000Y-125990000D02*
X215920000Y-119970000D01*
X210620000Y-125990000D02*
X215920000Y-125990000D01*
X210620000Y-119970000D02*
X210620000Y-125990000D01*
%TO.C,IN 2*%
X215800000Y-100570000D02*
X215800000Y-99970000D01*
X214200000Y-100570000D02*
X215800000Y-100570000D01*
X214200000Y-99970000D02*
X214200000Y-100570000D01*
X213260000Y-100570000D02*
X213260000Y-99970000D01*
X211660000Y-100570000D02*
X213260000Y-100570000D01*
X211660000Y-99970000D02*
X211660000Y-100570000D01*
X214750000Y-105990000D02*
X214750000Y-104990000D01*
X212710000Y-105990000D02*
X212710000Y-104990000D01*
X214750000Y-104460000D02*
X215000000Y-104990000D01*
X212710000Y-104460000D02*
X214750000Y-104460000D01*
X212460000Y-104990000D02*
X212710000Y-104460000D01*
X215000000Y-104990000D02*
X215000000Y-105990000D01*
X212460000Y-104990000D02*
X215000000Y-104990000D01*
X212460000Y-105990000D02*
X212460000Y-104990000D01*
X210790000Y-101000000D02*
X210790000Y-105000000D01*
X216380000Y-99970000D02*
X211080000Y-99970000D01*
X216380000Y-105990000D02*
X216380000Y-99970000D01*
X211080000Y-105990000D02*
X216380000Y-105990000D01*
X211080000Y-99970000D02*
X211080000Y-105990000D01*
%TO.C,IN 1*%
X215800000Y-80570000D02*
X215800000Y-79970000D01*
X214200000Y-80570000D02*
X215800000Y-80570000D01*
X214200000Y-79970000D02*
X214200000Y-80570000D01*
X213260000Y-80570000D02*
X213260000Y-79970000D01*
X211660000Y-80570000D02*
X213260000Y-80570000D01*
X211660000Y-79970000D02*
X211660000Y-80570000D01*
X214750000Y-85990000D02*
X214750000Y-84990000D01*
X212710000Y-85990000D02*
X212710000Y-84990000D01*
X214750000Y-84460000D02*
X215000000Y-84990000D01*
X212710000Y-84460000D02*
X214750000Y-84460000D01*
X212460000Y-84990000D02*
X212710000Y-84460000D01*
X215000000Y-84990000D02*
X215000000Y-85990000D01*
X212460000Y-84990000D02*
X215000000Y-84990000D01*
X212460000Y-85990000D02*
X212460000Y-84990000D01*
X210790000Y-81000000D02*
X210790000Y-85000000D01*
X216380000Y-79970000D02*
X211080000Y-79970000D01*
X216380000Y-85990000D02*
X216380000Y-79970000D01*
X211080000Y-85990000D02*
X216380000Y-85990000D01*
X211080000Y-79970000D02*
X211080000Y-85990000D01*
%TO.C,OUT 5*%
X178215000Y-193695000D02*
X178215000Y-193095000D01*
X176615000Y-193695000D02*
X178215000Y-193695000D01*
X176615000Y-193095000D02*
X176615000Y-193695000D01*
X175675000Y-193695000D02*
X175675000Y-193095000D01*
X174075000Y-193695000D02*
X175675000Y-193695000D01*
X174075000Y-193095000D02*
X174075000Y-193695000D01*
X177165000Y-199115000D02*
X177165000Y-198115000D01*
X175125000Y-199115000D02*
X175125000Y-198115000D01*
X177165000Y-197585000D02*
X177415000Y-198115000D01*
X175125000Y-197585000D02*
X177165000Y-197585000D01*
X174875000Y-198115000D02*
X175125000Y-197585000D01*
X177415000Y-198115000D02*
X177415000Y-199115000D01*
X174875000Y-198115000D02*
X177415000Y-198115000D01*
X174875000Y-199115000D02*
X174875000Y-198115000D01*
X173205000Y-194125000D02*
X173205000Y-198125000D01*
X178795000Y-193095000D02*
X173495000Y-193095000D01*
X178795000Y-199115000D02*
X178795000Y-193095000D01*
X173495000Y-199115000D02*
X178795000Y-199115000D01*
X173495000Y-193095000D02*
X173495000Y-199115000D01*
%TO.C,OUT 3*%
X178215000Y-170070000D02*
X178215000Y-169470000D01*
X176615000Y-170070000D02*
X178215000Y-170070000D01*
X176615000Y-169470000D02*
X176615000Y-170070000D01*
X175675000Y-170070000D02*
X175675000Y-169470000D01*
X174075000Y-170070000D02*
X175675000Y-170070000D01*
X174075000Y-169470000D02*
X174075000Y-170070000D01*
X177165000Y-175490000D02*
X177165000Y-174490000D01*
X175125000Y-175490000D02*
X175125000Y-174490000D01*
X177165000Y-173960000D02*
X177415000Y-174490000D01*
X175125000Y-173960000D02*
X177165000Y-173960000D01*
X174875000Y-174490000D02*
X175125000Y-173960000D01*
X177415000Y-174490000D02*
X177415000Y-175490000D01*
X174875000Y-174490000D02*
X177415000Y-174490000D01*
X174875000Y-175490000D02*
X174875000Y-174490000D01*
X173205000Y-170500000D02*
X173205000Y-174500000D01*
X178795000Y-169470000D02*
X173495000Y-169470000D01*
X178795000Y-175490000D02*
X178795000Y-169470000D01*
X173495000Y-175490000D02*
X178795000Y-175490000D01*
X173495000Y-169470000D02*
X173495000Y-175490000D01*
%TO.C,OUT 4*%
X177840000Y-182445000D02*
X177840000Y-181845000D01*
X176240000Y-182445000D02*
X177840000Y-182445000D01*
X176240000Y-181845000D02*
X176240000Y-182445000D01*
X175300000Y-182445000D02*
X175300000Y-181845000D01*
X173700000Y-182445000D02*
X175300000Y-182445000D01*
X173700000Y-181845000D02*
X173700000Y-182445000D01*
X176790000Y-187865000D02*
X176790000Y-186865000D01*
X174750000Y-187865000D02*
X174750000Y-186865000D01*
X176790000Y-186335000D02*
X177040000Y-186865000D01*
X174750000Y-186335000D02*
X176790000Y-186335000D01*
X174500000Y-186865000D02*
X174750000Y-186335000D01*
X177040000Y-186865000D02*
X177040000Y-187865000D01*
X174500000Y-186865000D02*
X177040000Y-186865000D01*
X174500000Y-187865000D02*
X174500000Y-186865000D01*
X172830000Y-182875000D02*
X172830000Y-186875000D01*
X178420000Y-181845000D02*
X173120000Y-181845000D01*
X178420000Y-187865000D02*
X178420000Y-181845000D01*
X173120000Y-187865000D02*
X178420000Y-187865000D01*
X173120000Y-181845000D02*
X173120000Y-187865000D01*
%TO.C,OUT 2*%
X177840000Y-156570000D02*
X177840000Y-155970000D01*
X176240000Y-156570000D02*
X177840000Y-156570000D01*
X176240000Y-155970000D02*
X176240000Y-156570000D01*
X175300000Y-156570000D02*
X175300000Y-155970000D01*
X173700000Y-156570000D02*
X175300000Y-156570000D01*
X173700000Y-155970000D02*
X173700000Y-156570000D01*
X176790000Y-161990000D02*
X176790000Y-160990000D01*
X174750000Y-161990000D02*
X174750000Y-160990000D01*
X176790000Y-160460000D02*
X177040000Y-160990000D01*
X174750000Y-160460000D02*
X176790000Y-160460000D01*
X174500000Y-160990000D02*
X174750000Y-160460000D01*
X177040000Y-160990000D02*
X177040000Y-161990000D01*
X174500000Y-160990000D02*
X177040000Y-160990000D01*
X174500000Y-161990000D02*
X174500000Y-160990000D01*
X172830000Y-157000000D02*
X172830000Y-161000000D01*
X178420000Y-155970000D02*
X173120000Y-155970000D01*
X178420000Y-161990000D02*
X178420000Y-155970000D01*
X173120000Y-161990000D02*
X178420000Y-161990000D01*
X173120000Y-155970000D02*
X173120000Y-161990000D01*
%TO.C,OUT 1*%
X177840000Y-144195000D02*
X177840000Y-143595000D01*
X176240000Y-144195000D02*
X177840000Y-144195000D01*
X176240000Y-143595000D02*
X176240000Y-144195000D01*
X175300000Y-144195000D02*
X175300000Y-143595000D01*
X173700000Y-144195000D02*
X175300000Y-144195000D01*
X173700000Y-143595000D02*
X173700000Y-144195000D01*
X176790000Y-149615000D02*
X176790000Y-148615000D01*
X174750000Y-149615000D02*
X174750000Y-148615000D01*
X176790000Y-148085000D02*
X177040000Y-148615000D01*
X174750000Y-148085000D02*
X176790000Y-148085000D01*
X174500000Y-148615000D02*
X174750000Y-148085000D01*
X177040000Y-148615000D02*
X177040000Y-149615000D01*
X174500000Y-148615000D02*
X177040000Y-148615000D01*
X174500000Y-149615000D02*
X174500000Y-148615000D01*
X172830000Y-144625000D02*
X172830000Y-148625000D01*
X178420000Y-143595000D02*
X173120000Y-143595000D01*
X178420000Y-149615000D02*
X178420000Y-143595000D01*
X173120000Y-149615000D02*
X178420000Y-149615000D01*
X173120000Y-143595000D02*
X173120000Y-149615000D01*
%TO.C,MULT IN*%
X177800000Y-134070000D02*
X177800000Y-133470000D01*
X176200000Y-134070000D02*
X177800000Y-134070000D01*
X176200000Y-133470000D02*
X176200000Y-134070000D01*
X175260000Y-134070000D02*
X175260000Y-133470000D01*
X173660000Y-134070000D02*
X175260000Y-134070000D01*
X173660000Y-133470000D02*
X173660000Y-134070000D01*
X176750000Y-139490000D02*
X176750000Y-138490000D01*
X174710000Y-139490000D02*
X174710000Y-138490000D01*
X176750000Y-137960000D02*
X177000000Y-138490000D01*
X174710000Y-137960000D02*
X176750000Y-137960000D01*
X174460000Y-138490000D02*
X174710000Y-137960000D01*
X177000000Y-138490000D02*
X177000000Y-139490000D01*
X174460000Y-138490000D02*
X177000000Y-138490000D01*
X174460000Y-139490000D02*
X174460000Y-138490000D01*
X172790000Y-134500000D02*
X172790000Y-138500000D01*
X178380000Y-133470000D02*
X173080000Y-133470000D01*
X178380000Y-139490000D02*
X178380000Y-133470000D01*
X173080000Y-139490000D02*
X178380000Y-139490000D01*
X173080000Y-133470000D02*
X173080000Y-139490000D01*
%TO.C,U2*%
X194390000Y-88060000D02*
X194390000Y-77560000D01*
X176370000Y-88060000D02*
X194390000Y-88060000D01*
X176370000Y-77560000D02*
X176370000Y-88060000D01*
X194390000Y-77560000D02*
X176370000Y-77560000D01*
X194330000Y-85060000D02*
X194330000Y-83810000D01*
X176430000Y-85060000D02*
X194330000Y-85060000D01*
X176430000Y-80560000D02*
X176430000Y-85060000D01*
X194330000Y-80560000D02*
X176430000Y-80560000D01*
X194330000Y-81810000D02*
X194330000Y-80560000D01*
X194330000Y-83810000D02*
G75*
G02*
X194330000Y-81810000I0J1000000D01*
G01*
%TO.C,U1*%
X196890000Y-128060000D02*
X196890000Y-117560000D01*
X178870000Y-128060000D02*
X196890000Y-128060000D01*
X178870000Y-117560000D02*
X178870000Y-128060000D01*
X196890000Y-117560000D02*
X178870000Y-117560000D01*
X196830000Y-125060000D02*
X196830000Y-123810000D01*
X178930000Y-125060000D02*
X196830000Y-125060000D01*
X178930000Y-120560000D02*
X178930000Y-125060000D01*
X196830000Y-120560000D02*
X178930000Y-120560000D01*
X196830000Y-121810000D02*
X196830000Y-120560000D01*
X196830000Y-123810000D02*
G75*
G02*
X196830000Y-121810000I0J1000000D01*
G01*
%TO.C,R15*%
X196460000Y-77270000D02*
X196460000Y-76940000D01*
X189920000Y-77270000D02*
X196460000Y-77270000D01*
X189920000Y-76940000D02*
X189920000Y-77270000D01*
X196460000Y-74530000D02*
X196460000Y-74860000D01*
X189920000Y-74530000D02*
X196460000Y-74530000D01*
X189920000Y-74860000D02*
X189920000Y-74530000D01*
%TO.C,R14*%
X169130000Y-86580000D02*
X169460000Y-86580000D01*
X169130000Y-80040000D02*
X169130000Y-86580000D01*
X169460000Y-80040000D02*
X169130000Y-80040000D01*
X171870000Y-86580000D02*
X171540000Y-86580000D01*
X171870000Y-80040000D02*
X171870000Y-86580000D01*
X171540000Y-80040000D02*
X171870000Y-80040000D01*
%TO.C,R13*%
X175370000Y-79920000D02*
X175040000Y-79920000D01*
X175370000Y-86460000D02*
X175370000Y-79920000D01*
X175040000Y-86460000D02*
X175370000Y-86460000D01*
X172630000Y-79920000D02*
X172960000Y-79920000D01*
X172630000Y-86460000D02*
X172630000Y-79920000D01*
X172960000Y-86460000D02*
X172630000Y-86460000D01*
%TO.C,R12*%
X196080000Y-154370000D02*
X196080000Y-154040000D01*
X189540000Y-154370000D02*
X196080000Y-154370000D01*
X189540000Y-154040000D02*
X189540000Y-154370000D01*
X196080000Y-151630000D02*
X196080000Y-151960000D01*
X189540000Y-151630000D02*
X196080000Y-151630000D01*
X189540000Y-151960000D02*
X189540000Y-151630000D01*
%TO.C,R11*%
X189920000Y-131630000D02*
X189920000Y-131960000D01*
X196460000Y-131630000D02*
X189920000Y-131630000D01*
X196460000Y-131960000D02*
X196460000Y-131630000D01*
X189920000Y-134370000D02*
X189920000Y-134040000D01*
X196460000Y-134370000D02*
X189920000Y-134370000D01*
X196460000Y-134040000D02*
X196460000Y-134370000D01*
%TO.C,R10*%
X189920000Y-111630000D02*
X189920000Y-111960000D01*
X196460000Y-111630000D02*
X189920000Y-111630000D01*
X196460000Y-111960000D02*
X196460000Y-111630000D01*
X189920000Y-114370000D02*
X189920000Y-114040000D01*
X196460000Y-114370000D02*
X189920000Y-114370000D01*
X196460000Y-114040000D02*
X196460000Y-114370000D01*
%TO.C,R9*%
X189920000Y-96630000D02*
X189920000Y-96960000D01*
X196460000Y-96630000D02*
X189920000Y-96630000D01*
X196460000Y-96960000D02*
X196460000Y-96630000D01*
X189920000Y-99370000D02*
X189920000Y-99040000D01*
X196460000Y-99370000D02*
X189920000Y-99370000D01*
X196460000Y-99040000D02*
X196460000Y-99370000D01*
%TO.C,R8*%
X189920000Y-71530000D02*
X189920000Y-71860000D01*
X196460000Y-71530000D02*
X189920000Y-71530000D01*
X196460000Y-71860000D02*
X196460000Y-71530000D01*
X189920000Y-74270000D02*
X189920000Y-73940000D01*
X196460000Y-74270000D02*
X189920000Y-74270000D01*
X196460000Y-73940000D02*
X196460000Y-74270000D01*
%TO.C,R7*%
X187080000Y-207370000D02*
X187080000Y-207040000D01*
X180540000Y-207370000D02*
X187080000Y-207370000D01*
X180540000Y-207040000D02*
X180540000Y-207370000D01*
X187080000Y-204630000D02*
X187080000Y-204960000D01*
X180540000Y-204630000D02*
X187080000Y-204630000D01*
X180540000Y-204960000D02*
X180540000Y-204630000D01*
%TO.C,R6*%
X187580000Y-197870000D02*
X187580000Y-197540000D01*
X181040000Y-197870000D02*
X187580000Y-197870000D01*
X181040000Y-197540000D02*
X181040000Y-197870000D01*
X187580000Y-195130000D02*
X187580000Y-195460000D01*
X181040000Y-195130000D02*
X187580000Y-195130000D01*
X181040000Y-195460000D02*
X181040000Y-195130000D01*
%TO.C,R5*%
X187460000Y-173870000D02*
X187460000Y-173540000D01*
X180920000Y-173870000D02*
X187460000Y-173870000D01*
X180920000Y-173540000D02*
X180920000Y-173870000D01*
X187460000Y-171130000D02*
X187460000Y-171460000D01*
X180920000Y-171130000D02*
X187460000Y-171130000D01*
X180920000Y-171460000D02*
X180920000Y-171130000D01*
%TO.C,R4*%
X186960000Y-185870000D02*
X186960000Y-185540000D01*
X180420000Y-185870000D02*
X186960000Y-185870000D01*
X180420000Y-185540000D02*
X180420000Y-185870000D01*
X186960000Y-183130000D02*
X186960000Y-183460000D01*
X180420000Y-183130000D02*
X186960000Y-183130000D01*
X180420000Y-183460000D02*
X180420000Y-183130000D01*
%TO.C,R3*%
X186960000Y-160370000D02*
X186960000Y-160040000D01*
X180420000Y-160370000D02*
X186960000Y-160370000D01*
X180420000Y-160040000D02*
X180420000Y-160370000D01*
X186960000Y-157630000D02*
X186960000Y-157960000D01*
X180420000Y-157630000D02*
X186960000Y-157630000D01*
X180420000Y-157960000D02*
X180420000Y-157630000D01*
%TO.C,R2*%
X187080000Y-147870000D02*
X187080000Y-147540000D01*
X180540000Y-147870000D02*
X187080000Y-147870000D01*
X180540000Y-147540000D02*
X180540000Y-147870000D01*
X187080000Y-145130000D02*
X187080000Y-145460000D01*
X180540000Y-145130000D02*
X187080000Y-145130000D01*
X180540000Y-145460000D02*
X180540000Y-145130000D01*
%TO.C,R1*%
X196460000Y-137870000D02*
X196460000Y-137540000D01*
X189920000Y-137870000D02*
X196460000Y-137870000D01*
X189920000Y-137540000D02*
X189920000Y-137870000D01*
X196460000Y-135130000D02*
X196460000Y-135460000D01*
X189920000Y-135130000D02*
X196460000Y-135130000D01*
X189920000Y-135460000D02*
X189920000Y-135130000D01*
%TO.C,J2*%
X207650000Y-198580000D02*
X207650000Y-191200000D01*
X207150000Y-198580000D02*
X207630000Y-198580000D01*
X207650000Y-203080000D02*
X207140000Y-203080000D01*
X207650000Y-210450000D02*
X207650000Y-203100000D01*
X207650000Y-210450000D02*
X207150000Y-210950000D01*
X215400000Y-210450000D02*
X207650000Y-210450000D01*
X215400000Y-210450000D02*
X215950000Y-211000000D01*
X215400000Y-191200000D02*
X215400000Y-210450000D01*
X215400000Y-191200000D02*
X215950000Y-190650000D01*
X207650000Y-191200000D02*
X215400000Y-191200000D01*
X207100000Y-190650000D02*
X207650000Y-191200000D01*
X207100000Y-211000000D02*
X207100000Y-190650000D01*
X215950000Y-211000000D02*
X207100000Y-211000000D01*
X215950000Y-190650000D02*
X215950000Y-211000000D01*
X207100000Y-190650000D02*
X215950000Y-190650000D01*
X206845000Y-190400000D02*
X216195000Y-190400000D01*
X206845000Y-211260000D02*
X206845000Y-190400000D01*
X216195000Y-211260000D02*
X206845000Y-211260000D01*
X216195000Y-190400000D02*
X216195000Y-211260000D01*
%TO.C,D2*%
X208690000Y-181880000D02*
X208690000Y-184120000D01*
X208690000Y-184120000D02*
X212930000Y-184120000D01*
X212930000Y-184120000D02*
X212930000Y-181880000D01*
X212930000Y-181880000D02*
X208690000Y-181880000D01*
X208040000Y-183000000D02*
X208690000Y-183000000D01*
X213580000Y-183000000D02*
X212930000Y-183000000D01*
X209410000Y-181880000D02*
X209410000Y-184120000D01*
X209530000Y-181880000D02*
X209530000Y-184120000D01*
X209290000Y-181880000D02*
X209290000Y-184120000D01*
%TO.C,D1*%
X208690000Y-184880000D02*
X208690000Y-187120000D01*
X208690000Y-187120000D02*
X212930000Y-187120000D01*
X212930000Y-187120000D02*
X212930000Y-184880000D01*
X212930000Y-184880000D02*
X208690000Y-184880000D01*
X208040000Y-186000000D02*
X208690000Y-186000000D01*
X213580000Y-186000000D02*
X212930000Y-186000000D01*
X209410000Y-184880000D02*
X209410000Y-187120000D01*
X209530000Y-184880000D02*
X209530000Y-187120000D01*
X209290000Y-184880000D02*
X209290000Y-187120000D01*
%TO.C,C8*%
X195179000Y-86120000D02*
X195179000Y-79880000D01*
X199821000Y-86120000D02*
X199821000Y-79880000D01*
X195179000Y-86120000D02*
X196575000Y-86120000D01*
X198425000Y-86120000D02*
X199821000Y-86120000D01*
X195179000Y-79880000D02*
X196575000Y-79880000D01*
X198425000Y-79880000D02*
X199821000Y-79880000D01*
%TO.C,C7*%
X173380000Y-89679000D02*
X179620000Y-89679000D01*
X173380000Y-94321000D02*
X179620000Y-94321000D01*
X173380000Y-89679000D02*
X173380000Y-91075000D01*
X173380000Y-92925000D02*
X173380000Y-94321000D01*
X179620000Y-89679000D02*
X179620000Y-91075000D01*
X179620000Y-92925000D02*
X179620000Y-94321000D01*
%TO.C,C6*%
X203321000Y-119380000D02*
X203321000Y-125620000D01*
X198679000Y-119380000D02*
X198679000Y-125620000D01*
X203321000Y-119380000D02*
X201925000Y-119380000D01*
X200075000Y-119380000D02*
X198679000Y-119380000D01*
X203321000Y-125620000D02*
X201925000Y-125620000D01*
X200075000Y-125620000D02*
X198679000Y-125620000D01*
%TO.C,C5*%
X173679000Y-125620000D02*
X173679000Y-119380000D01*
X178321000Y-125620000D02*
X178321000Y-119380000D01*
X173679000Y-125620000D02*
X175075000Y-125620000D01*
X176925000Y-125620000D02*
X178321000Y-125620000D01*
X173679000Y-119380000D02*
X175075000Y-119380000D01*
X176925000Y-119380000D02*
X178321000Y-119380000D01*
%TO.C,C4*%
X172380000Y-72679000D02*
X178620000Y-72679000D01*
X172380000Y-77321000D02*
X178620000Y-77321000D01*
X172380000Y-72679000D02*
X172380000Y-74075000D01*
X172380000Y-75925000D02*
X172380000Y-77321000D01*
X178620000Y-72679000D02*
X178620000Y-74075000D01*
X178620000Y-75925000D02*
X178620000Y-77321000D01*
%TO.C,C3*%
X187380000Y-88679000D02*
X193620000Y-88679000D01*
X187380000Y-93321000D02*
X193620000Y-93321000D01*
X187380000Y-88679000D02*
X187380000Y-90075000D01*
X187380000Y-91925000D02*
X187380000Y-93321000D01*
X193620000Y-88679000D02*
X193620000Y-90075000D01*
X193620000Y-91925000D02*
X193620000Y-93321000D01*
%TO.C,C2*%
X198064759Y-204846000D02*
X198064759Y-205476000D01*
X197749759Y-205161000D02*
X198379759Y-205161000D01*
X204491000Y-206598000D02*
X204491000Y-207402000D01*
X204451000Y-206367000D02*
X204451000Y-207633000D01*
X204411000Y-206198000D02*
X204411000Y-207802000D01*
X204371000Y-206060000D02*
X204371000Y-207940000D01*
X204331000Y-205941000D02*
X204331000Y-208059000D01*
X204291000Y-205835000D02*
X204291000Y-208165000D01*
X204251000Y-205738000D02*
X204251000Y-208262000D01*
X204211000Y-205650000D02*
X204211000Y-208350000D01*
X204171000Y-205568000D02*
X204171000Y-208432000D01*
X204131000Y-205491000D02*
X204131000Y-208509000D01*
X204091000Y-205419000D02*
X204091000Y-208581000D01*
X204051000Y-205350000D02*
X204051000Y-208650000D01*
X204011000Y-205286000D02*
X204011000Y-208714000D01*
X203971000Y-205224000D02*
X203971000Y-208776000D01*
X203931000Y-205166000D02*
X203931000Y-208834000D01*
X203891000Y-205110000D02*
X203891000Y-208890000D01*
X203851000Y-205056000D02*
X203851000Y-208944000D01*
X203811000Y-205005000D02*
X203811000Y-208995000D01*
X203771000Y-204956000D02*
X203771000Y-209044000D01*
X203731000Y-204908000D02*
X203731000Y-209092000D01*
X203691000Y-204863000D02*
X203691000Y-209137000D01*
X203651000Y-204818000D02*
X203651000Y-209182000D01*
X203611000Y-204776000D02*
X203611000Y-209224000D01*
X203571000Y-204735000D02*
X203571000Y-209265000D01*
X203531000Y-208040000D02*
X203531000Y-209305000D01*
X203531000Y-204695000D02*
X203531000Y-205960000D01*
X203491000Y-208040000D02*
X203491000Y-209343000D01*
X203491000Y-204657000D02*
X203491000Y-205960000D01*
X203451000Y-208040000D02*
X203451000Y-209380000D01*
X203451000Y-204620000D02*
X203451000Y-205960000D01*
X203411000Y-208040000D02*
X203411000Y-209416000D01*
X203411000Y-204584000D02*
X203411000Y-205960000D01*
X203371000Y-208040000D02*
X203371000Y-209450000D01*
X203371000Y-204550000D02*
X203371000Y-205960000D01*
X203331000Y-208040000D02*
X203331000Y-209484000D01*
X203331000Y-204516000D02*
X203331000Y-205960000D01*
X203291000Y-208040000D02*
X203291000Y-209516000D01*
X203291000Y-204484000D02*
X203291000Y-205960000D01*
X203251000Y-208040000D02*
X203251000Y-209548000D01*
X203251000Y-204452000D02*
X203251000Y-205960000D01*
X203211000Y-208040000D02*
X203211000Y-209578000D01*
X203211000Y-204422000D02*
X203211000Y-205960000D01*
X203171000Y-208040000D02*
X203171000Y-209607000D01*
X203171000Y-204393000D02*
X203171000Y-205960000D01*
X203131000Y-208040000D02*
X203131000Y-209636000D01*
X203131000Y-204364000D02*
X203131000Y-205960000D01*
X203091000Y-208040000D02*
X203091000Y-209664000D01*
X203091000Y-204336000D02*
X203091000Y-205960000D01*
X203051000Y-208040000D02*
X203051000Y-209690000D01*
X203051000Y-204310000D02*
X203051000Y-205960000D01*
X203011000Y-208040000D02*
X203011000Y-209716000D01*
X203011000Y-204284000D02*
X203011000Y-205960000D01*
X202971000Y-208040000D02*
X202971000Y-209742000D01*
X202971000Y-204258000D02*
X202971000Y-205960000D01*
X202931000Y-208040000D02*
X202931000Y-209766000D01*
X202931000Y-204234000D02*
X202931000Y-205960000D01*
X202891000Y-208040000D02*
X202891000Y-209790000D01*
X202891000Y-204210000D02*
X202891000Y-205960000D01*
X202851000Y-208040000D02*
X202851000Y-209812000D01*
X202851000Y-204188000D02*
X202851000Y-205960000D01*
X202811000Y-208040000D02*
X202811000Y-209834000D01*
X202811000Y-204166000D02*
X202811000Y-205960000D01*
X202771000Y-208040000D02*
X202771000Y-209856000D01*
X202771000Y-204144000D02*
X202771000Y-205960000D01*
X202731000Y-208040000D02*
X202731000Y-209876000D01*
X202731000Y-204124000D02*
X202731000Y-205960000D01*
X202691000Y-208040000D02*
X202691000Y-209896000D01*
X202691000Y-204104000D02*
X202691000Y-205960000D01*
X202651000Y-208040000D02*
X202651000Y-209916000D01*
X202651000Y-204084000D02*
X202651000Y-205960000D01*
X202611000Y-208040000D02*
X202611000Y-209934000D01*
X202611000Y-204066000D02*
X202611000Y-205960000D01*
X202571000Y-208040000D02*
X202571000Y-209952000D01*
X202571000Y-204048000D02*
X202571000Y-205960000D01*
X202531000Y-208040000D02*
X202531000Y-209970000D01*
X202531000Y-204030000D02*
X202531000Y-205960000D01*
X202491000Y-208040000D02*
X202491000Y-209986000D01*
X202491000Y-204014000D02*
X202491000Y-205960000D01*
X202451000Y-208040000D02*
X202451000Y-210002000D01*
X202451000Y-203998000D02*
X202451000Y-205960000D01*
X202411000Y-208040000D02*
X202411000Y-210018000D01*
X202411000Y-203982000D02*
X202411000Y-205960000D01*
X202371000Y-208040000D02*
X202371000Y-210033000D01*
X202371000Y-203967000D02*
X202371000Y-205960000D01*
X202331000Y-208040000D02*
X202331000Y-210047000D01*
X202331000Y-203953000D02*
X202331000Y-205960000D01*
X202291000Y-208040000D02*
X202291000Y-210061000D01*
X202291000Y-203939000D02*
X202291000Y-205960000D01*
X202251000Y-208040000D02*
X202251000Y-210074000D01*
X202251000Y-203926000D02*
X202251000Y-205960000D01*
X202211000Y-208040000D02*
X202211000Y-210086000D01*
X202211000Y-203914000D02*
X202211000Y-205960000D01*
X202171000Y-208040000D02*
X202171000Y-210098000D01*
X202171000Y-203902000D02*
X202171000Y-205960000D01*
X202131000Y-208040000D02*
X202131000Y-210110000D01*
X202131000Y-203890000D02*
X202131000Y-205960000D01*
X202091000Y-208040000D02*
X202091000Y-210121000D01*
X202091000Y-203879000D02*
X202091000Y-205960000D01*
X202051000Y-208040000D02*
X202051000Y-210131000D01*
X202051000Y-203869000D02*
X202051000Y-205960000D01*
X202011000Y-208040000D02*
X202011000Y-210141000D01*
X202011000Y-203859000D02*
X202011000Y-205960000D01*
X201971000Y-208040000D02*
X201971000Y-210150000D01*
X201971000Y-203850000D02*
X201971000Y-205960000D01*
X201930000Y-208040000D02*
X201930000Y-210159000D01*
X201930000Y-203841000D02*
X201930000Y-205960000D01*
X201890000Y-208040000D02*
X201890000Y-210167000D01*
X201890000Y-203833000D02*
X201890000Y-205960000D01*
X201850000Y-208040000D02*
X201850000Y-210175000D01*
X201850000Y-203825000D02*
X201850000Y-205960000D01*
X201810000Y-208040000D02*
X201810000Y-210182000D01*
X201810000Y-203818000D02*
X201810000Y-205960000D01*
X201770000Y-208040000D02*
X201770000Y-210189000D01*
X201770000Y-203811000D02*
X201770000Y-205960000D01*
X201730000Y-208040000D02*
X201730000Y-210195000D01*
X201730000Y-203805000D02*
X201730000Y-205960000D01*
X201690000Y-208040000D02*
X201690000Y-210201000D01*
X201690000Y-203799000D02*
X201690000Y-205960000D01*
X201650000Y-208040000D02*
X201650000Y-210206000D01*
X201650000Y-203794000D02*
X201650000Y-205960000D01*
X201610000Y-208040000D02*
X201610000Y-210211000D01*
X201610000Y-203789000D02*
X201610000Y-205960000D01*
X201570000Y-208040000D02*
X201570000Y-210215000D01*
X201570000Y-203785000D02*
X201570000Y-205960000D01*
X201530000Y-208040000D02*
X201530000Y-210218000D01*
X201530000Y-203782000D02*
X201530000Y-205960000D01*
X201490000Y-208040000D02*
X201490000Y-210222000D01*
X201490000Y-203778000D02*
X201490000Y-205960000D01*
X201450000Y-203776000D02*
X201450000Y-210224000D01*
X201410000Y-203773000D02*
X201410000Y-210227000D01*
X201370000Y-203772000D02*
X201370000Y-210228000D01*
X201330000Y-203770000D02*
X201330000Y-210230000D01*
X201290000Y-203770000D02*
X201290000Y-210230000D01*
X201250000Y-203770000D02*
X201250000Y-210230000D01*
X204520000Y-207000000D02*
G75*
G03*
X204520000Y-207000000I-3270000J0D01*
G01*
%TO.C,C1*%
X198564759Y-195846000D02*
X198564759Y-196476000D01*
X198249759Y-196161000D02*
X198879759Y-196161000D01*
X204991000Y-197598000D02*
X204991000Y-198402000D01*
X204951000Y-197367000D02*
X204951000Y-198633000D01*
X204911000Y-197198000D02*
X204911000Y-198802000D01*
X204871000Y-197060000D02*
X204871000Y-198940000D01*
X204831000Y-196941000D02*
X204831000Y-199059000D01*
X204791000Y-196835000D02*
X204791000Y-199165000D01*
X204751000Y-196738000D02*
X204751000Y-199262000D01*
X204711000Y-196650000D02*
X204711000Y-199350000D01*
X204671000Y-196568000D02*
X204671000Y-199432000D01*
X204631000Y-196491000D02*
X204631000Y-199509000D01*
X204591000Y-196419000D02*
X204591000Y-199581000D01*
X204551000Y-196350000D02*
X204551000Y-199650000D01*
X204511000Y-196286000D02*
X204511000Y-199714000D01*
X204471000Y-196224000D02*
X204471000Y-199776000D01*
X204431000Y-196166000D02*
X204431000Y-199834000D01*
X204391000Y-196110000D02*
X204391000Y-199890000D01*
X204351000Y-196056000D02*
X204351000Y-199944000D01*
X204311000Y-196005000D02*
X204311000Y-199995000D01*
X204271000Y-195956000D02*
X204271000Y-200044000D01*
X204231000Y-195908000D02*
X204231000Y-200092000D01*
X204191000Y-195863000D02*
X204191000Y-200137000D01*
X204151000Y-195818000D02*
X204151000Y-200182000D01*
X204111000Y-195776000D02*
X204111000Y-200224000D01*
X204071000Y-195735000D02*
X204071000Y-200265000D01*
X204031000Y-199040000D02*
X204031000Y-200305000D01*
X204031000Y-195695000D02*
X204031000Y-196960000D01*
X203991000Y-199040000D02*
X203991000Y-200343000D01*
X203991000Y-195657000D02*
X203991000Y-196960000D01*
X203951000Y-199040000D02*
X203951000Y-200380000D01*
X203951000Y-195620000D02*
X203951000Y-196960000D01*
X203911000Y-199040000D02*
X203911000Y-200416000D01*
X203911000Y-195584000D02*
X203911000Y-196960000D01*
X203871000Y-199040000D02*
X203871000Y-200450000D01*
X203871000Y-195550000D02*
X203871000Y-196960000D01*
X203831000Y-199040000D02*
X203831000Y-200484000D01*
X203831000Y-195516000D02*
X203831000Y-196960000D01*
X203791000Y-199040000D02*
X203791000Y-200516000D01*
X203791000Y-195484000D02*
X203791000Y-196960000D01*
X203751000Y-199040000D02*
X203751000Y-200548000D01*
X203751000Y-195452000D02*
X203751000Y-196960000D01*
X203711000Y-199040000D02*
X203711000Y-200578000D01*
X203711000Y-195422000D02*
X203711000Y-196960000D01*
X203671000Y-199040000D02*
X203671000Y-200607000D01*
X203671000Y-195393000D02*
X203671000Y-196960000D01*
X203631000Y-199040000D02*
X203631000Y-200636000D01*
X203631000Y-195364000D02*
X203631000Y-196960000D01*
X203591000Y-199040000D02*
X203591000Y-200664000D01*
X203591000Y-195336000D02*
X203591000Y-196960000D01*
X203551000Y-199040000D02*
X203551000Y-200690000D01*
X203551000Y-195310000D02*
X203551000Y-196960000D01*
X203511000Y-199040000D02*
X203511000Y-200716000D01*
X203511000Y-195284000D02*
X203511000Y-196960000D01*
X203471000Y-199040000D02*
X203471000Y-200742000D01*
X203471000Y-195258000D02*
X203471000Y-196960000D01*
X203431000Y-199040000D02*
X203431000Y-200766000D01*
X203431000Y-195234000D02*
X203431000Y-196960000D01*
X203391000Y-199040000D02*
X203391000Y-200790000D01*
X203391000Y-195210000D02*
X203391000Y-196960000D01*
X203351000Y-199040000D02*
X203351000Y-200812000D01*
X203351000Y-195188000D02*
X203351000Y-196960000D01*
X203311000Y-199040000D02*
X203311000Y-200834000D01*
X203311000Y-195166000D02*
X203311000Y-196960000D01*
X203271000Y-199040000D02*
X203271000Y-200856000D01*
X203271000Y-195144000D02*
X203271000Y-196960000D01*
X203231000Y-199040000D02*
X203231000Y-200876000D01*
X203231000Y-195124000D02*
X203231000Y-196960000D01*
X203191000Y-199040000D02*
X203191000Y-200896000D01*
X203191000Y-195104000D02*
X203191000Y-196960000D01*
X203151000Y-199040000D02*
X203151000Y-200916000D01*
X203151000Y-195084000D02*
X203151000Y-196960000D01*
X203111000Y-199040000D02*
X203111000Y-200934000D01*
X203111000Y-195066000D02*
X203111000Y-196960000D01*
X203071000Y-199040000D02*
X203071000Y-200952000D01*
X203071000Y-195048000D02*
X203071000Y-196960000D01*
X203031000Y-199040000D02*
X203031000Y-200970000D01*
X203031000Y-195030000D02*
X203031000Y-196960000D01*
X202991000Y-199040000D02*
X202991000Y-200986000D01*
X202991000Y-195014000D02*
X202991000Y-196960000D01*
X202951000Y-199040000D02*
X202951000Y-201002000D01*
X202951000Y-194998000D02*
X202951000Y-196960000D01*
X202911000Y-199040000D02*
X202911000Y-201018000D01*
X202911000Y-194982000D02*
X202911000Y-196960000D01*
X202871000Y-199040000D02*
X202871000Y-201033000D01*
X202871000Y-194967000D02*
X202871000Y-196960000D01*
X202831000Y-199040000D02*
X202831000Y-201047000D01*
X202831000Y-194953000D02*
X202831000Y-196960000D01*
X202791000Y-199040000D02*
X202791000Y-201061000D01*
X202791000Y-194939000D02*
X202791000Y-196960000D01*
X202751000Y-199040000D02*
X202751000Y-201074000D01*
X202751000Y-194926000D02*
X202751000Y-196960000D01*
X202711000Y-199040000D02*
X202711000Y-201086000D01*
X202711000Y-194914000D02*
X202711000Y-196960000D01*
X202671000Y-199040000D02*
X202671000Y-201098000D01*
X202671000Y-194902000D02*
X202671000Y-196960000D01*
X202631000Y-199040000D02*
X202631000Y-201110000D01*
X202631000Y-194890000D02*
X202631000Y-196960000D01*
X202591000Y-199040000D02*
X202591000Y-201121000D01*
X202591000Y-194879000D02*
X202591000Y-196960000D01*
X202551000Y-199040000D02*
X202551000Y-201131000D01*
X202551000Y-194869000D02*
X202551000Y-196960000D01*
X202511000Y-199040000D02*
X202511000Y-201141000D01*
X202511000Y-194859000D02*
X202511000Y-196960000D01*
X202471000Y-199040000D02*
X202471000Y-201150000D01*
X202471000Y-194850000D02*
X202471000Y-196960000D01*
X202430000Y-199040000D02*
X202430000Y-201159000D01*
X202430000Y-194841000D02*
X202430000Y-196960000D01*
X202390000Y-199040000D02*
X202390000Y-201167000D01*
X202390000Y-194833000D02*
X202390000Y-196960000D01*
X202350000Y-199040000D02*
X202350000Y-201175000D01*
X202350000Y-194825000D02*
X202350000Y-196960000D01*
X202310000Y-199040000D02*
X202310000Y-201182000D01*
X202310000Y-194818000D02*
X202310000Y-196960000D01*
X202270000Y-199040000D02*
X202270000Y-201189000D01*
X202270000Y-194811000D02*
X202270000Y-196960000D01*
X202230000Y-199040000D02*
X202230000Y-201195000D01*
X202230000Y-194805000D02*
X202230000Y-196960000D01*
X202190000Y-199040000D02*
X202190000Y-201201000D01*
X202190000Y-194799000D02*
X202190000Y-196960000D01*
X202150000Y-199040000D02*
X202150000Y-201206000D01*
X202150000Y-194794000D02*
X202150000Y-196960000D01*
X202110000Y-199040000D02*
X202110000Y-201211000D01*
X202110000Y-194789000D02*
X202110000Y-196960000D01*
X202070000Y-199040000D02*
X202070000Y-201215000D01*
X202070000Y-194785000D02*
X202070000Y-196960000D01*
X202030000Y-199040000D02*
X202030000Y-201218000D01*
X202030000Y-194782000D02*
X202030000Y-196960000D01*
X201990000Y-199040000D02*
X201990000Y-201222000D01*
X201990000Y-194778000D02*
X201990000Y-196960000D01*
X201950000Y-194776000D02*
X201950000Y-201224000D01*
X201910000Y-194773000D02*
X201910000Y-201227000D01*
X201870000Y-194772000D02*
X201870000Y-201228000D01*
X201830000Y-194770000D02*
X201830000Y-201230000D01*
X201790000Y-194770000D02*
X201790000Y-201230000D01*
X201750000Y-194770000D02*
X201750000Y-201230000D01*
X205020000Y-198000000D02*
G75*
G03*
X205020000Y-198000000I-3270000J0D01*
G01*
%TO.C,LED*%
D11*
X174957142Y-202252380D02*
X174480952Y-202252380D01*
X174480952Y-201252380D01*
X175290476Y-201728571D02*
X175623809Y-201728571D01*
X175766666Y-202252380D02*
X175290476Y-202252380D01*
X175290476Y-201252380D01*
X175766666Y-201252380D01*
X176195238Y-202252380D02*
X176195238Y-201252380D01*
X176433333Y-201252380D01*
X176576190Y-201300000D01*
X176671428Y-201395238D01*
X176719047Y-201490476D01*
X176766666Y-201680952D01*
X176766666Y-201823809D01*
X176719047Y-202014285D01*
X176671428Y-202109523D01*
X176576190Y-202204761D01*
X176433333Y-202252380D01*
X176195238Y-202252380D01*
%TO.C,MIX OUT*%
X210872857Y-171332380D02*
X210872857Y-170332380D01*
X211206190Y-171046666D01*
X211539523Y-170332380D01*
X211539523Y-171332380D01*
X212015714Y-171332380D02*
X212015714Y-170332380D01*
X212396666Y-170332380D02*
X213063333Y-171332380D01*
X213063333Y-170332380D02*
X212396666Y-171332380D01*
X214396666Y-170332380D02*
X214587142Y-170332380D01*
X214682380Y-170380000D01*
X214777619Y-170475238D01*
X214825238Y-170665714D01*
X214825238Y-170999047D01*
X214777619Y-171189523D01*
X214682380Y-171284761D01*
X214587142Y-171332380D01*
X214396666Y-171332380D01*
X214301428Y-171284761D01*
X214206190Y-171189523D01*
X214158571Y-170999047D01*
X214158571Y-170665714D01*
X214206190Y-170475238D01*
X214301428Y-170380000D01*
X214396666Y-170332380D01*
X215253809Y-170332380D02*
X215253809Y-171141904D01*
X215301428Y-171237142D01*
X215349047Y-171284761D01*
X215444285Y-171332380D01*
X215634761Y-171332380D01*
X215730000Y-171284761D01*
X215777619Y-171237142D01*
X215825238Y-171141904D01*
X215825238Y-170332380D01*
X216158571Y-170332380D02*
X216730000Y-170332380D01*
X216444285Y-171332380D02*
X216444285Y-170332380D01*
%TO.C,IN 5*%
X213519047Y-159252380D02*
X213519047Y-158252380D01*
X213995238Y-159252380D02*
X213995238Y-158252380D01*
X214566666Y-159252380D01*
X214566666Y-158252380D01*
X216280952Y-158252380D02*
X215804761Y-158252380D01*
X215757142Y-158728571D01*
X215804761Y-158680952D01*
X215900000Y-158633333D01*
X216138095Y-158633333D01*
X216233333Y-158680952D01*
X216280952Y-158728571D01*
X216328571Y-158823809D01*
X216328571Y-159061904D01*
X216280952Y-159157142D01*
X216233333Y-159204761D01*
X216138095Y-159252380D01*
X215900000Y-159252380D01*
X215804761Y-159204761D01*
X215757142Y-159157142D01*
%TO.C,IN 4*%
X213719047Y-139252380D02*
X213719047Y-138252380D01*
X214195238Y-139252380D02*
X214195238Y-138252380D01*
X214766666Y-139252380D01*
X214766666Y-138252380D01*
X216433333Y-138585714D02*
X216433333Y-139252380D01*
X216195238Y-138204761D02*
X215957142Y-138919047D01*
X216576190Y-138919047D01*
%TO.C,IN 3*%
X213219047Y-119152380D02*
X213219047Y-118152380D01*
X213695238Y-119152380D02*
X213695238Y-118152380D01*
X214266666Y-119152380D01*
X214266666Y-118152380D01*
X215409523Y-118152380D02*
X216028571Y-118152380D01*
X215695238Y-118533333D01*
X215838095Y-118533333D01*
X215933333Y-118580952D01*
X215980952Y-118628571D01*
X216028571Y-118723809D01*
X216028571Y-118961904D01*
X215980952Y-119057142D01*
X215933333Y-119104761D01*
X215838095Y-119152380D01*
X215552380Y-119152380D01*
X215457142Y-119104761D01*
X215409523Y-119057142D01*
%TO.C,IN 2*%
X213419047Y-99252380D02*
X213419047Y-98252380D01*
X213895238Y-99252380D02*
X213895238Y-98252380D01*
X214466666Y-99252380D01*
X214466666Y-98252380D01*
X215657142Y-98347619D02*
X215704761Y-98300000D01*
X215800000Y-98252380D01*
X216038095Y-98252380D01*
X216133333Y-98300000D01*
X216180952Y-98347619D01*
X216228571Y-98442857D01*
X216228571Y-98538095D01*
X216180952Y-98680952D01*
X215609523Y-99252380D01*
X216228571Y-99252380D01*
%TO.C,IN 1*%
X213019047Y-78952380D02*
X213019047Y-77952380D01*
X213495238Y-78952380D02*
X213495238Y-77952380D01*
X214066666Y-78952380D01*
X214066666Y-77952380D01*
X215828571Y-78952380D02*
X215257142Y-78952380D01*
X215542857Y-78952380D02*
X215542857Y-77952380D01*
X215447619Y-78095238D01*
X215352380Y-78190476D01*
X215257142Y-78238095D01*
%TO.C,OUT 5*%
X173442857Y-191352380D02*
X173633333Y-191352380D01*
X173728571Y-191400000D01*
X173823809Y-191495238D01*
X173871428Y-191685714D01*
X173871428Y-192019047D01*
X173823809Y-192209523D01*
X173728571Y-192304761D01*
X173633333Y-192352380D01*
X173442857Y-192352380D01*
X173347619Y-192304761D01*
X173252380Y-192209523D01*
X173204761Y-192019047D01*
X173204761Y-191685714D01*
X173252380Y-191495238D01*
X173347619Y-191400000D01*
X173442857Y-191352380D01*
X174300000Y-191352380D02*
X174300000Y-192161904D01*
X174347619Y-192257142D01*
X174395238Y-192304761D01*
X174490476Y-192352380D01*
X174680952Y-192352380D01*
X174776190Y-192304761D01*
X174823809Y-192257142D01*
X174871428Y-192161904D01*
X174871428Y-191352380D01*
X175204761Y-191352380D02*
X175776190Y-191352380D01*
X175490476Y-192352380D02*
X175490476Y-191352380D01*
X177347619Y-191352380D02*
X176871428Y-191352380D01*
X176823809Y-191828571D01*
X176871428Y-191780952D01*
X176966666Y-191733333D01*
X177204761Y-191733333D01*
X177300000Y-191780952D01*
X177347619Y-191828571D01*
X177395238Y-191923809D01*
X177395238Y-192161904D01*
X177347619Y-192257142D01*
X177300000Y-192304761D01*
X177204761Y-192352380D01*
X176966666Y-192352380D01*
X176871428Y-192304761D01*
X176823809Y-192257142D01*
%TO.C,OUT 3*%
X173242857Y-167752380D02*
X173433333Y-167752380D01*
X173528571Y-167800000D01*
X173623809Y-167895238D01*
X173671428Y-168085714D01*
X173671428Y-168419047D01*
X173623809Y-168609523D01*
X173528571Y-168704761D01*
X173433333Y-168752380D01*
X173242857Y-168752380D01*
X173147619Y-168704761D01*
X173052380Y-168609523D01*
X173004761Y-168419047D01*
X173004761Y-168085714D01*
X173052380Y-167895238D01*
X173147619Y-167800000D01*
X173242857Y-167752380D01*
X174100000Y-167752380D02*
X174100000Y-168561904D01*
X174147619Y-168657142D01*
X174195238Y-168704761D01*
X174290476Y-168752380D01*
X174480952Y-168752380D01*
X174576190Y-168704761D01*
X174623809Y-168657142D01*
X174671428Y-168561904D01*
X174671428Y-167752380D01*
X175004761Y-167752380D02*
X175576190Y-167752380D01*
X175290476Y-168752380D02*
X175290476Y-167752380D01*
X176576190Y-167752380D02*
X177195238Y-167752380D01*
X176861904Y-168133333D01*
X177004761Y-168133333D01*
X177100000Y-168180952D01*
X177147619Y-168228571D01*
X177195238Y-168323809D01*
X177195238Y-168561904D01*
X177147619Y-168657142D01*
X177100000Y-168704761D01*
X177004761Y-168752380D01*
X176719047Y-168752380D01*
X176623809Y-168704761D01*
X176576190Y-168657142D01*
%TO.C,OUT 4*%
X173142857Y-180252380D02*
X173333333Y-180252380D01*
X173428571Y-180300000D01*
X173523809Y-180395238D01*
X173571428Y-180585714D01*
X173571428Y-180919047D01*
X173523809Y-181109523D01*
X173428571Y-181204761D01*
X173333333Y-181252380D01*
X173142857Y-181252380D01*
X173047619Y-181204761D01*
X172952380Y-181109523D01*
X172904761Y-180919047D01*
X172904761Y-180585714D01*
X172952380Y-180395238D01*
X173047619Y-180300000D01*
X173142857Y-180252380D01*
X174000000Y-180252380D02*
X174000000Y-181061904D01*
X174047619Y-181157142D01*
X174095238Y-181204761D01*
X174190476Y-181252380D01*
X174380952Y-181252380D01*
X174476190Y-181204761D01*
X174523809Y-181157142D01*
X174571428Y-181061904D01*
X174571428Y-180252380D01*
X174904761Y-180252380D02*
X175476190Y-180252380D01*
X175190476Y-181252380D02*
X175190476Y-180252380D01*
X177000000Y-180585714D02*
X177000000Y-181252380D01*
X176761904Y-180204761D02*
X176523809Y-180919047D01*
X177142857Y-180919047D01*
%TO.C,OUT 2*%
X172842857Y-154252380D02*
X173033333Y-154252380D01*
X173128571Y-154300000D01*
X173223809Y-154395238D01*
X173271428Y-154585714D01*
X173271428Y-154919047D01*
X173223809Y-155109523D01*
X173128571Y-155204761D01*
X173033333Y-155252380D01*
X172842857Y-155252380D01*
X172747619Y-155204761D01*
X172652380Y-155109523D01*
X172604761Y-154919047D01*
X172604761Y-154585714D01*
X172652380Y-154395238D01*
X172747619Y-154300000D01*
X172842857Y-154252380D01*
X173700000Y-154252380D02*
X173700000Y-155061904D01*
X173747619Y-155157142D01*
X173795238Y-155204761D01*
X173890476Y-155252380D01*
X174080952Y-155252380D01*
X174176190Y-155204761D01*
X174223809Y-155157142D01*
X174271428Y-155061904D01*
X174271428Y-154252380D01*
X174604761Y-154252380D02*
X175176190Y-154252380D01*
X174890476Y-155252380D02*
X174890476Y-154252380D01*
X176223809Y-154347619D02*
X176271428Y-154300000D01*
X176366666Y-154252380D01*
X176604761Y-154252380D01*
X176700000Y-154300000D01*
X176747619Y-154347619D01*
X176795238Y-154442857D01*
X176795238Y-154538095D01*
X176747619Y-154680952D01*
X176176190Y-155252380D01*
X176795238Y-155252380D01*
%TO.C,OUT 1*%
X172942857Y-141852380D02*
X173133333Y-141852380D01*
X173228571Y-141900000D01*
X173323809Y-141995238D01*
X173371428Y-142185714D01*
X173371428Y-142519047D01*
X173323809Y-142709523D01*
X173228571Y-142804761D01*
X173133333Y-142852380D01*
X172942857Y-142852380D01*
X172847619Y-142804761D01*
X172752380Y-142709523D01*
X172704761Y-142519047D01*
X172704761Y-142185714D01*
X172752380Y-141995238D01*
X172847619Y-141900000D01*
X172942857Y-141852380D01*
X173800000Y-141852380D02*
X173800000Y-142661904D01*
X173847619Y-142757142D01*
X173895238Y-142804761D01*
X173990476Y-142852380D01*
X174180952Y-142852380D01*
X174276190Y-142804761D01*
X174323809Y-142757142D01*
X174371428Y-142661904D01*
X174371428Y-141852380D01*
X174704761Y-141852380D02*
X175276190Y-141852380D01*
X174990476Y-142852380D02*
X174990476Y-141852380D01*
X176895238Y-142852380D02*
X176323809Y-142852380D01*
X176609523Y-142852380D02*
X176609523Y-141852380D01*
X176514285Y-141995238D01*
X176419047Y-142090476D01*
X176323809Y-142138095D01*
%TO.C,MULT IN*%
X172814285Y-132652380D02*
X172814285Y-131652380D01*
X173147619Y-132366666D01*
X173480952Y-131652380D01*
X173480952Y-132652380D01*
X173957142Y-131652380D02*
X173957142Y-132461904D01*
X174004761Y-132557142D01*
X174052380Y-132604761D01*
X174147619Y-132652380D01*
X174338095Y-132652380D01*
X174433333Y-132604761D01*
X174480952Y-132557142D01*
X174528571Y-132461904D01*
X174528571Y-131652380D01*
X175480952Y-132652380D02*
X175004761Y-132652380D01*
X175004761Y-131652380D01*
X175671428Y-131652380D02*
X176242857Y-131652380D01*
X175957142Y-132652380D02*
X175957142Y-131652380D01*
X177338095Y-132652380D02*
X177338095Y-131652380D01*
X177814285Y-132652380D02*
X177814285Y-131652380D01*
X178385714Y-132652380D01*
X178385714Y-131652380D01*
%TO.C,U2*%
X191752380Y-83661904D02*
X192561904Y-83661904D01*
X192657142Y-83614285D01*
X192704761Y-83566666D01*
X192752380Y-83471428D01*
X192752380Y-83280952D01*
X192704761Y-83185714D01*
X192657142Y-83138095D01*
X192561904Y-83090476D01*
X191752380Y-83090476D01*
X191847619Y-82661904D02*
X191800000Y-82614285D01*
X191752380Y-82519047D01*
X191752380Y-82280952D01*
X191800000Y-82185714D01*
X191847619Y-82138095D01*
X191942857Y-82090476D01*
X192038095Y-82090476D01*
X192180952Y-82138095D01*
X192752380Y-82709523D01*
X192752380Y-82090476D01*
%TO.C,U1*%
X194452380Y-123571904D02*
X195261904Y-123571904D01*
X195357142Y-123524285D01*
X195404761Y-123476666D01*
X195452380Y-123381428D01*
X195452380Y-123190952D01*
X195404761Y-123095714D01*
X195357142Y-123048095D01*
X195261904Y-123000476D01*
X194452380Y-123000476D01*
X195452380Y-122000476D02*
X195452380Y-122571904D01*
X195452380Y-122286190D02*
X194452380Y-122286190D01*
X194595238Y-122381428D01*
X194690476Y-122476666D01*
X194738095Y-122571904D01*
%TO.C,R15*%
D12*
X190921428Y-76285714D02*
X190635714Y-76485714D01*
X190921428Y-76628571D02*
X190321428Y-76628571D01*
X190321428Y-76400000D01*
X190350000Y-76342857D01*
X190378571Y-76314285D01*
X190435714Y-76285714D01*
X190521428Y-76285714D01*
X190578571Y-76314285D01*
X190607142Y-76342857D01*
X190635714Y-76400000D01*
X190635714Y-76628571D01*
X190921428Y-75714285D02*
X190921428Y-76057142D01*
X190921428Y-75885714D02*
X190321428Y-75885714D01*
X190407142Y-75942857D01*
X190464285Y-76000000D01*
X190492857Y-76057142D01*
X190321428Y-75171428D02*
X190321428Y-75457142D01*
X190607142Y-75485714D01*
X190578571Y-75457142D01*
X190550000Y-75400000D01*
X190550000Y-75257142D01*
X190578571Y-75200000D01*
X190607142Y-75171428D01*
X190664285Y-75142857D01*
X190807142Y-75142857D01*
X190864285Y-75171428D01*
X190892857Y-75200000D01*
X190921428Y-75257142D01*
X190921428Y-75400000D01*
X190892857Y-75457142D01*
X190864285Y-75485714D01*
D11*
X192118571Y-76352380D02*
X191547142Y-76352380D01*
X191832857Y-76352380D02*
X191832857Y-75352380D01*
X191737619Y-75495238D01*
X191642380Y-75590476D01*
X191547142Y-75638095D01*
X192737619Y-75352380D02*
X192832857Y-75352380D01*
X192928095Y-75400000D01*
X192975714Y-75447619D01*
X193023333Y-75542857D01*
X193070952Y-75733333D01*
X193070952Y-75971428D01*
X193023333Y-76161904D01*
X192975714Y-76257142D01*
X192928095Y-76304761D01*
X192832857Y-76352380D01*
X192737619Y-76352380D01*
X192642380Y-76304761D01*
X192594761Y-76257142D01*
X192547142Y-76161904D01*
X192499523Y-75971428D01*
X192499523Y-75733333D01*
X192547142Y-75542857D01*
X192594761Y-75447619D01*
X192642380Y-75400000D01*
X192737619Y-75352380D01*
X193690000Y-75352380D02*
X193785238Y-75352380D01*
X193880476Y-75400000D01*
X193928095Y-75447619D01*
X193975714Y-75542857D01*
X194023333Y-75733333D01*
X194023333Y-75971428D01*
X193975714Y-76161904D01*
X193928095Y-76257142D01*
X193880476Y-76304761D01*
X193785238Y-76352380D01*
X193690000Y-76352380D01*
X193594761Y-76304761D01*
X193547142Y-76257142D01*
X193499523Y-76161904D01*
X193451904Y-75971428D01*
X193451904Y-75733333D01*
X193499523Y-75542857D01*
X193547142Y-75447619D01*
X193594761Y-75400000D01*
X193690000Y-75352380D01*
X194451904Y-76352380D02*
X194451904Y-75352380D01*
X194547142Y-75971428D02*
X194832857Y-76352380D01*
X194832857Y-75685714D02*
X194451904Y-76066666D01*
%TO.C,R14*%
D12*
X170114285Y-81041428D02*
X169914285Y-80755714D01*
X169771428Y-81041428D02*
X169771428Y-80441428D01*
X170000000Y-80441428D01*
X170057142Y-80470000D01*
X170085714Y-80498571D01*
X170114285Y-80555714D01*
X170114285Y-80641428D01*
X170085714Y-80698571D01*
X170057142Y-80727142D01*
X170000000Y-80755714D01*
X169771428Y-80755714D01*
X170685714Y-81041428D02*
X170342857Y-81041428D01*
X170514285Y-81041428D02*
X170514285Y-80441428D01*
X170457142Y-80527142D01*
X170400000Y-80584285D01*
X170342857Y-80612857D01*
X171200000Y-80641428D02*
X171200000Y-81041428D01*
X171057142Y-80412857D02*
X170914285Y-80841428D01*
X171285714Y-80841428D01*
D11*
X170952380Y-84381428D02*
X170952380Y-84952857D01*
X170952380Y-84667142D02*
X169952380Y-84667142D01*
X170095238Y-84762380D01*
X170190476Y-84857619D01*
X170238095Y-84952857D01*
X169952380Y-83762380D02*
X169952380Y-83667142D01*
X170000000Y-83571904D01*
X170047619Y-83524285D01*
X170142857Y-83476666D01*
X170333333Y-83429047D01*
X170571428Y-83429047D01*
X170761904Y-83476666D01*
X170857142Y-83524285D01*
X170904761Y-83571904D01*
X170952380Y-83667142D01*
X170952380Y-83762380D01*
X170904761Y-83857619D01*
X170857142Y-83905238D01*
X170761904Y-83952857D01*
X170571428Y-84000476D01*
X170333333Y-84000476D01*
X170142857Y-83952857D01*
X170047619Y-83905238D01*
X170000000Y-83857619D01*
X169952380Y-83762380D01*
X169952380Y-82810000D02*
X169952380Y-82714761D01*
X170000000Y-82619523D01*
X170047619Y-82571904D01*
X170142857Y-82524285D01*
X170333333Y-82476666D01*
X170571428Y-82476666D01*
X170761904Y-82524285D01*
X170857142Y-82571904D01*
X170904761Y-82619523D01*
X170952380Y-82714761D01*
X170952380Y-82810000D01*
X170904761Y-82905238D01*
X170857142Y-82952857D01*
X170761904Y-83000476D01*
X170571428Y-83048095D01*
X170333333Y-83048095D01*
X170142857Y-83000476D01*
X170047619Y-82952857D01*
X170000000Y-82905238D01*
X169952380Y-82810000D01*
X170952380Y-82048095D02*
X169952380Y-82048095D01*
X170571428Y-81952857D02*
X170952380Y-81667142D01*
X170285714Y-81667142D02*
X170666666Y-82048095D01*
%TO.C,R13*%
D12*
X173614285Y-86001428D02*
X173414285Y-85715714D01*
X173271428Y-86001428D02*
X173271428Y-85401428D01*
X173500000Y-85401428D01*
X173557142Y-85430000D01*
X173585714Y-85458571D01*
X173614285Y-85515714D01*
X173614285Y-85601428D01*
X173585714Y-85658571D01*
X173557142Y-85687142D01*
X173500000Y-85715714D01*
X173271428Y-85715714D01*
X174185714Y-86001428D02*
X173842857Y-86001428D01*
X174014285Y-86001428D02*
X174014285Y-85401428D01*
X173957142Y-85487142D01*
X173900000Y-85544285D01*
X173842857Y-85572857D01*
X174385714Y-85401428D02*
X174757142Y-85401428D01*
X174557142Y-85630000D01*
X174642857Y-85630000D01*
X174700000Y-85658571D01*
X174728571Y-85687142D01*
X174757142Y-85744285D01*
X174757142Y-85887142D01*
X174728571Y-85944285D01*
X174700000Y-85972857D01*
X174642857Y-86001428D01*
X174471428Y-86001428D01*
X174414285Y-85972857D01*
X174385714Y-85944285D01*
D11*
X174452380Y-84261428D02*
X174452380Y-84832857D01*
X174452380Y-84547142D02*
X173452380Y-84547142D01*
X173595238Y-84642380D01*
X173690476Y-84737619D01*
X173738095Y-84832857D01*
X173452380Y-83642380D02*
X173452380Y-83547142D01*
X173500000Y-83451904D01*
X173547619Y-83404285D01*
X173642857Y-83356666D01*
X173833333Y-83309047D01*
X174071428Y-83309047D01*
X174261904Y-83356666D01*
X174357142Y-83404285D01*
X174404761Y-83451904D01*
X174452380Y-83547142D01*
X174452380Y-83642380D01*
X174404761Y-83737619D01*
X174357142Y-83785238D01*
X174261904Y-83832857D01*
X174071428Y-83880476D01*
X173833333Y-83880476D01*
X173642857Y-83832857D01*
X173547619Y-83785238D01*
X173500000Y-83737619D01*
X173452380Y-83642380D01*
X173452380Y-82690000D02*
X173452380Y-82594761D01*
X173500000Y-82499523D01*
X173547619Y-82451904D01*
X173642857Y-82404285D01*
X173833333Y-82356666D01*
X174071428Y-82356666D01*
X174261904Y-82404285D01*
X174357142Y-82451904D01*
X174404761Y-82499523D01*
X174452380Y-82594761D01*
X174452380Y-82690000D01*
X174404761Y-82785238D01*
X174357142Y-82832857D01*
X174261904Y-82880476D01*
X174071428Y-82928095D01*
X173833333Y-82928095D01*
X173642857Y-82880476D01*
X173547619Y-82832857D01*
X173500000Y-82785238D01*
X173452380Y-82690000D01*
X174452380Y-81928095D02*
X173452380Y-81928095D01*
X174071428Y-81832857D02*
X174452380Y-81547142D01*
X173785714Y-81547142D02*
X174166666Y-81928095D01*
%TO.C,R12*%
D12*
X190541428Y-153385714D02*
X190255714Y-153585714D01*
X190541428Y-153728571D02*
X189941428Y-153728571D01*
X189941428Y-153500000D01*
X189970000Y-153442857D01*
X189998571Y-153414285D01*
X190055714Y-153385714D01*
X190141428Y-153385714D01*
X190198571Y-153414285D01*
X190227142Y-153442857D01*
X190255714Y-153500000D01*
X190255714Y-153728571D01*
X190541428Y-152814285D02*
X190541428Y-153157142D01*
X190541428Y-152985714D02*
X189941428Y-152985714D01*
X190027142Y-153042857D01*
X190084285Y-153100000D01*
X190112857Y-153157142D01*
X189998571Y-152585714D02*
X189970000Y-152557142D01*
X189941428Y-152500000D01*
X189941428Y-152357142D01*
X189970000Y-152300000D01*
X189998571Y-152271428D01*
X190055714Y-152242857D01*
X190112857Y-152242857D01*
X190198571Y-152271428D01*
X190541428Y-152614285D01*
X190541428Y-152242857D01*
D11*
X191738571Y-153452380D02*
X191167142Y-153452380D01*
X191452857Y-153452380D02*
X191452857Y-152452380D01*
X191357619Y-152595238D01*
X191262380Y-152690476D01*
X191167142Y-152738095D01*
X192357619Y-152452380D02*
X192452857Y-152452380D01*
X192548095Y-152500000D01*
X192595714Y-152547619D01*
X192643333Y-152642857D01*
X192690952Y-152833333D01*
X192690952Y-153071428D01*
X192643333Y-153261904D01*
X192595714Y-153357142D01*
X192548095Y-153404761D01*
X192452857Y-153452380D01*
X192357619Y-153452380D01*
X192262380Y-153404761D01*
X192214761Y-153357142D01*
X192167142Y-153261904D01*
X192119523Y-153071428D01*
X192119523Y-152833333D01*
X192167142Y-152642857D01*
X192214761Y-152547619D01*
X192262380Y-152500000D01*
X192357619Y-152452380D01*
X193310000Y-152452380D02*
X193405238Y-152452380D01*
X193500476Y-152500000D01*
X193548095Y-152547619D01*
X193595714Y-152642857D01*
X193643333Y-152833333D01*
X193643333Y-153071428D01*
X193595714Y-153261904D01*
X193548095Y-153357142D01*
X193500476Y-153404761D01*
X193405238Y-153452380D01*
X193310000Y-153452380D01*
X193214761Y-153404761D01*
X193167142Y-153357142D01*
X193119523Y-153261904D01*
X193071904Y-153071428D01*
X193071904Y-152833333D01*
X193119523Y-152642857D01*
X193167142Y-152547619D01*
X193214761Y-152500000D01*
X193310000Y-152452380D01*
X194071904Y-153452380D02*
X194071904Y-152452380D01*
X194167142Y-153071428D02*
X194452857Y-153452380D01*
X194452857Y-152785714D02*
X194071904Y-153166666D01*
%TO.C,R11*%
D12*
X196001428Y-133385714D02*
X195715714Y-133585714D01*
X196001428Y-133728571D02*
X195401428Y-133728571D01*
X195401428Y-133500000D01*
X195430000Y-133442857D01*
X195458571Y-133414285D01*
X195515714Y-133385714D01*
X195601428Y-133385714D01*
X195658571Y-133414285D01*
X195687142Y-133442857D01*
X195715714Y-133500000D01*
X195715714Y-133728571D01*
X196001428Y-132814285D02*
X196001428Y-133157142D01*
X196001428Y-132985714D02*
X195401428Y-132985714D01*
X195487142Y-133042857D01*
X195544285Y-133100000D01*
X195572857Y-133157142D01*
X196001428Y-132242857D02*
X196001428Y-132585714D01*
X196001428Y-132414285D02*
X195401428Y-132414285D01*
X195487142Y-132471428D01*
X195544285Y-132528571D01*
X195572857Y-132585714D01*
D11*
X192118571Y-133452380D02*
X191547142Y-133452380D01*
X191832857Y-133452380D02*
X191832857Y-132452380D01*
X191737619Y-132595238D01*
X191642380Y-132690476D01*
X191547142Y-132738095D01*
X192737619Y-132452380D02*
X192832857Y-132452380D01*
X192928095Y-132500000D01*
X192975714Y-132547619D01*
X193023333Y-132642857D01*
X193070952Y-132833333D01*
X193070952Y-133071428D01*
X193023333Y-133261904D01*
X192975714Y-133357142D01*
X192928095Y-133404761D01*
X192832857Y-133452380D01*
X192737619Y-133452380D01*
X192642380Y-133404761D01*
X192594761Y-133357142D01*
X192547142Y-133261904D01*
X192499523Y-133071428D01*
X192499523Y-132833333D01*
X192547142Y-132642857D01*
X192594761Y-132547619D01*
X192642380Y-132500000D01*
X192737619Y-132452380D01*
X193690000Y-132452380D02*
X193785238Y-132452380D01*
X193880476Y-132500000D01*
X193928095Y-132547619D01*
X193975714Y-132642857D01*
X194023333Y-132833333D01*
X194023333Y-133071428D01*
X193975714Y-133261904D01*
X193928095Y-133357142D01*
X193880476Y-133404761D01*
X193785238Y-133452380D01*
X193690000Y-133452380D01*
X193594761Y-133404761D01*
X193547142Y-133357142D01*
X193499523Y-133261904D01*
X193451904Y-133071428D01*
X193451904Y-132833333D01*
X193499523Y-132642857D01*
X193547142Y-132547619D01*
X193594761Y-132500000D01*
X193690000Y-132452380D01*
X194451904Y-133452380D02*
X194451904Y-132452380D01*
X194547142Y-133071428D02*
X194832857Y-133452380D01*
X194832857Y-132785714D02*
X194451904Y-133166666D01*
%TO.C,R10*%
D12*
X196001428Y-113385714D02*
X195715714Y-113585714D01*
X196001428Y-113728571D02*
X195401428Y-113728571D01*
X195401428Y-113500000D01*
X195430000Y-113442857D01*
X195458571Y-113414285D01*
X195515714Y-113385714D01*
X195601428Y-113385714D01*
X195658571Y-113414285D01*
X195687142Y-113442857D01*
X195715714Y-113500000D01*
X195715714Y-113728571D01*
X196001428Y-112814285D02*
X196001428Y-113157142D01*
X196001428Y-112985714D02*
X195401428Y-112985714D01*
X195487142Y-113042857D01*
X195544285Y-113100000D01*
X195572857Y-113157142D01*
X195401428Y-112442857D02*
X195401428Y-112385714D01*
X195430000Y-112328571D01*
X195458571Y-112300000D01*
X195515714Y-112271428D01*
X195630000Y-112242857D01*
X195772857Y-112242857D01*
X195887142Y-112271428D01*
X195944285Y-112300000D01*
X195972857Y-112328571D01*
X196001428Y-112385714D01*
X196001428Y-112442857D01*
X195972857Y-112500000D01*
X195944285Y-112528571D01*
X195887142Y-112557142D01*
X195772857Y-112585714D01*
X195630000Y-112585714D01*
X195515714Y-112557142D01*
X195458571Y-112528571D01*
X195430000Y-112500000D01*
X195401428Y-112442857D01*
D11*
X192118571Y-113452380D02*
X191547142Y-113452380D01*
X191832857Y-113452380D02*
X191832857Y-112452380D01*
X191737619Y-112595238D01*
X191642380Y-112690476D01*
X191547142Y-112738095D01*
X192737619Y-112452380D02*
X192832857Y-112452380D01*
X192928095Y-112500000D01*
X192975714Y-112547619D01*
X193023333Y-112642857D01*
X193070952Y-112833333D01*
X193070952Y-113071428D01*
X193023333Y-113261904D01*
X192975714Y-113357142D01*
X192928095Y-113404761D01*
X192832857Y-113452380D01*
X192737619Y-113452380D01*
X192642380Y-113404761D01*
X192594761Y-113357142D01*
X192547142Y-113261904D01*
X192499523Y-113071428D01*
X192499523Y-112833333D01*
X192547142Y-112642857D01*
X192594761Y-112547619D01*
X192642380Y-112500000D01*
X192737619Y-112452380D01*
X193690000Y-112452380D02*
X193785238Y-112452380D01*
X193880476Y-112500000D01*
X193928095Y-112547619D01*
X193975714Y-112642857D01*
X194023333Y-112833333D01*
X194023333Y-113071428D01*
X193975714Y-113261904D01*
X193928095Y-113357142D01*
X193880476Y-113404761D01*
X193785238Y-113452380D01*
X193690000Y-113452380D01*
X193594761Y-113404761D01*
X193547142Y-113357142D01*
X193499523Y-113261904D01*
X193451904Y-113071428D01*
X193451904Y-112833333D01*
X193499523Y-112642857D01*
X193547142Y-112547619D01*
X193594761Y-112500000D01*
X193690000Y-112452380D01*
X194451904Y-113452380D02*
X194451904Y-112452380D01*
X194547142Y-113071428D02*
X194832857Y-113452380D01*
X194832857Y-112785714D02*
X194451904Y-113166666D01*
%TO.C,R9*%
D12*
X196001428Y-98100000D02*
X195715714Y-98300000D01*
X196001428Y-98442857D02*
X195401428Y-98442857D01*
X195401428Y-98214285D01*
X195430000Y-98157142D01*
X195458571Y-98128571D01*
X195515714Y-98100000D01*
X195601428Y-98100000D01*
X195658571Y-98128571D01*
X195687142Y-98157142D01*
X195715714Y-98214285D01*
X195715714Y-98442857D01*
X196001428Y-97814285D02*
X196001428Y-97700000D01*
X195972857Y-97642857D01*
X195944285Y-97614285D01*
X195858571Y-97557142D01*
X195744285Y-97528571D01*
X195515714Y-97528571D01*
X195458571Y-97557142D01*
X195430000Y-97585714D01*
X195401428Y-97642857D01*
X195401428Y-97757142D01*
X195430000Y-97814285D01*
X195458571Y-97842857D01*
X195515714Y-97871428D01*
X195658571Y-97871428D01*
X195715714Y-97842857D01*
X195744285Y-97814285D01*
X195772857Y-97757142D01*
X195772857Y-97642857D01*
X195744285Y-97585714D01*
X195715714Y-97557142D01*
X195658571Y-97528571D01*
D11*
X192118571Y-98452380D02*
X191547142Y-98452380D01*
X191832857Y-98452380D02*
X191832857Y-97452380D01*
X191737619Y-97595238D01*
X191642380Y-97690476D01*
X191547142Y-97738095D01*
X192737619Y-97452380D02*
X192832857Y-97452380D01*
X192928095Y-97500000D01*
X192975714Y-97547619D01*
X193023333Y-97642857D01*
X193070952Y-97833333D01*
X193070952Y-98071428D01*
X193023333Y-98261904D01*
X192975714Y-98357142D01*
X192928095Y-98404761D01*
X192832857Y-98452380D01*
X192737619Y-98452380D01*
X192642380Y-98404761D01*
X192594761Y-98357142D01*
X192547142Y-98261904D01*
X192499523Y-98071428D01*
X192499523Y-97833333D01*
X192547142Y-97642857D01*
X192594761Y-97547619D01*
X192642380Y-97500000D01*
X192737619Y-97452380D01*
X193690000Y-97452380D02*
X193785238Y-97452380D01*
X193880476Y-97500000D01*
X193928095Y-97547619D01*
X193975714Y-97642857D01*
X194023333Y-97833333D01*
X194023333Y-98071428D01*
X193975714Y-98261904D01*
X193928095Y-98357142D01*
X193880476Y-98404761D01*
X193785238Y-98452380D01*
X193690000Y-98452380D01*
X193594761Y-98404761D01*
X193547142Y-98357142D01*
X193499523Y-98261904D01*
X193451904Y-98071428D01*
X193451904Y-97833333D01*
X193499523Y-97642857D01*
X193547142Y-97547619D01*
X193594761Y-97500000D01*
X193690000Y-97452380D01*
X194451904Y-98452380D02*
X194451904Y-97452380D01*
X194547142Y-98071428D02*
X194832857Y-98452380D01*
X194832857Y-97785714D02*
X194451904Y-98166666D01*
%TO.C,R8*%
D12*
X196001428Y-73000000D02*
X195715714Y-73200000D01*
X196001428Y-73342857D02*
X195401428Y-73342857D01*
X195401428Y-73114285D01*
X195430000Y-73057142D01*
X195458571Y-73028571D01*
X195515714Y-73000000D01*
X195601428Y-73000000D01*
X195658571Y-73028571D01*
X195687142Y-73057142D01*
X195715714Y-73114285D01*
X195715714Y-73342857D01*
X195658571Y-72657142D02*
X195630000Y-72714285D01*
X195601428Y-72742857D01*
X195544285Y-72771428D01*
X195515714Y-72771428D01*
X195458571Y-72742857D01*
X195430000Y-72714285D01*
X195401428Y-72657142D01*
X195401428Y-72542857D01*
X195430000Y-72485714D01*
X195458571Y-72457142D01*
X195515714Y-72428571D01*
X195544285Y-72428571D01*
X195601428Y-72457142D01*
X195630000Y-72485714D01*
X195658571Y-72542857D01*
X195658571Y-72657142D01*
X195687142Y-72714285D01*
X195715714Y-72742857D01*
X195772857Y-72771428D01*
X195887142Y-72771428D01*
X195944285Y-72742857D01*
X195972857Y-72714285D01*
X196001428Y-72657142D01*
X196001428Y-72542857D01*
X195972857Y-72485714D01*
X195944285Y-72457142D01*
X195887142Y-72428571D01*
X195772857Y-72428571D01*
X195715714Y-72457142D01*
X195687142Y-72485714D01*
X195658571Y-72542857D01*
D11*
X192118571Y-73352380D02*
X191547142Y-73352380D01*
X191832857Y-73352380D02*
X191832857Y-72352380D01*
X191737619Y-72495238D01*
X191642380Y-72590476D01*
X191547142Y-72638095D01*
X192737619Y-72352380D02*
X192832857Y-72352380D01*
X192928095Y-72400000D01*
X192975714Y-72447619D01*
X193023333Y-72542857D01*
X193070952Y-72733333D01*
X193070952Y-72971428D01*
X193023333Y-73161904D01*
X192975714Y-73257142D01*
X192928095Y-73304761D01*
X192832857Y-73352380D01*
X192737619Y-73352380D01*
X192642380Y-73304761D01*
X192594761Y-73257142D01*
X192547142Y-73161904D01*
X192499523Y-72971428D01*
X192499523Y-72733333D01*
X192547142Y-72542857D01*
X192594761Y-72447619D01*
X192642380Y-72400000D01*
X192737619Y-72352380D01*
X193690000Y-72352380D02*
X193785238Y-72352380D01*
X193880476Y-72400000D01*
X193928095Y-72447619D01*
X193975714Y-72542857D01*
X194023333Y-72733333D01*
X194023333Y-72971428D01*
X193975714Y-73161904D01*
X193928095Y-73257142D01*
X193880476Y-73304761D01*
X193785238Y-73352380D01*
X193690000Y-73352380D01*
X193594761Y-73304761D01*
X193547142Y-73257142D01*
X193499523Y-73161904D01*
X193451904Y-72971428D01*
X193451904Y-72733333D01*
X193499523Y-72542857D01*
X193547142Y-72447619D01*
X193594761Y-72400000D01*
X193690000Y-72352380D01*
X194451904Y-73352380D02*
X194451904Y-72352380D01*
X194547142Y-72971428D02*
X194832857Y-73352380D01*
X194832857Y-72685714D02*
X194451904Y-73066666D01*
%TO.C,R7*%
D12*
X181541428Y-206100000D02*
X181255714Y-206300000D01*
X181541428Y-206442857D02*
X180941428Y-206442857D01*
X180941428Y-206214285D01*
X180970000Y-206157142D01*
X180998571Y-206128571D01*
X181055714Y-206100000D01*
X181141428Y-206100000D01*
X181198571Y-206128571D01*
X181227142Y-206157142D01*
X181255714Y-206214285D01*
X181255714Y-206442857D01*
X180941428Y-205900000D02*
X180941428Y-205500000D01*
X181541428Y-205757142D01*
D11*
X183690952Y-206452380D02*
X183119523Y-206452380D01*
X183405238Y-206452380D02*
X183405238Y-205452380D01*
X183310000Y-205595238D01*
X183214761Y-205690476D01*
X183119523Y-205738095D01*
X184119523Y-206452380D02*
X184119523Y-205452380D01*
X184214761Y-206071428D02*
X184500476Y-206452380D01*
X184500476Y-205785714D02*
X184119523Y-206166666D01*
%TO.C,R6*%
D12*
X182041428Y-196600000D02*
X181755714Y-196800000D01*
X182041428Y-196942857D02*
X181441428Y-196942857D01*
X181441428Y-196714285D01*
X181470000Y-196657142D01*
X181498571Y-196628571D01*
X181555714Y-196600000D01*
X181641428Y-196600000D01*
X181698571Y-196628571D01*
X181727142Y-196657142D01*
X181755714Y-196714285D01*
X181755714Y-196942857D01*
X181441428Y-196085714D02*
X181441428Y-196200000D01*
X181470000Y-196257142D01*
X181498571Y-196285714D01*
X181584285Y-196342857D01*
X181698571Y-196371428D01*
X181927142Y-196371428D01*
X181984285Y-196342857D01*
X182012857Y-196314285D01*
X182041428Y-196257142D01*
X182041428Y-196142857D01*
X182012857Y-196085714D01*
X181984285Y-196057142D01*
X181927142Y-196028571D01*
X181784285Y-196028571D01*
X181727142Y-196057142D01*
X181698571Y-196085714D01*
X181670000Y-196142857D01*
X181670000Y-196257142D01*
X181698571Y-196314285D01*
X181727142Y-196342857D01*
X181784285Y-196371428D01*
D11*
X183333809Y-196952380D02*
X182762380Y-196952380D01*
X183048095Y-196952380D02*
X183048095Y-195952380D01*
X182952857Y-196095238D01*
X182857619Y-196190476D01*
X182762380Y-196238095D01*
X183952857Y-195952380D02*
X184048095Y-195952380D01*
X184143333Y-196000000D01*
X184190952Y-196047619D01*
X184238571Y-196142857D01*
X184286190Y-196333333D01*
X184286190Y-196571428D01*
X184238571Y-196761904D01*
X184190952Y-196857142D01*
X184143333Y-196904761D01*
X184048095Y-196952380D01*
X183952857Y-196952380D01*
X183857619Y-196904761D01*
X183810000Y-196857142D01*
X183762380Y-196761904D01*
X183714761Y-196571428D01*
X183714761Y-196333333D01*
X183762380Y-196142857D01*
X183810000Y-196047619D01*
X183857619Y-196000000D01*
X183952857Y-195952380D01*
X184905238Y-195952380D02*
X185000476Y-195952380D01*
X185095714Y-196000000D01*
X185143333Y-196047619D01*
X185190952Y-196142857D01*
X185238571Y-196333333D01*
X185238571Y-196571428D01*
X185190952Y-196761904D01*
X185143333Y-196857142D01*
X185095714Y-196904761D01*
X185000476Y-196952380D01*
X184905238Y-196952380D01*
X184810000Y-196904761D01*
X184762380Y-196857142D01*
X184714761Y-196761904D01*
X184667142Y-196571428D01*
X184667142Y-196333333D01*
X184714761Y-196142857D01*
X184762380Y-196047619D01*
X184810000Y-196000000D01*
X184905238Y-195952380D01*
X185667142Y-196952380D02*
X185667142Y-196285714D01*
X185667142Y-196476190D02*
X185714761Y-196380952D01*
X185762380Y-196333333D01*
X185857619Y-196285714D01*
X185952857Y-196285714D01*
%TO.C,R5*%
D12*
X181921428Y-172600000D02*
X181635714Y-172800000D01*
X181921428Y-172942857D02*
X181321428Y-172942857D01*
X181321428Y-172714285D01*
X181350000Y-172657142D01*
X181378571Y-172628571D01*
X181435714Y-172600000D01*
X181521428Y-172600000D01*
X181578571Y-172628571D01*
X181607142Y-172657142D01*
X181635714Y-172714285D01*
X181635714Y-172942857D01*
X181321428Y-172057142D02*
X181321428Y-172342857D01*
X181607142Y-172371428D01*
X181578571Y-172342857D01*
X181550000Y-172285714D01*
X181550000Y-172142857D01*
X181578571Y-172085714D01*
X181607142Y-172057142D01*
X181664285Y-172028571D01*
X181807142Y-172028571D01*
X181864285Y-172057142D01*
X181892857Y-172085714D01*
X181921428Y-172142857D01*
X181921428Y-172285714D01*
X181892857Y-172342857D01*
X181864285Y-172371428D01*
D11*
X183213809Y-172952380D02*
X182642380Y-172952380D01*
X182928095Y-172952380D02*
X182928095Y-171952380D01*
X182832857Y-172095238D01*
X182737619Y-172190476D01*
X182642380Y-172238095D01*
X183832857Y-171952380D02*
X183928095Y-171952380D01*
X184023333Y-172000000D01*
X184070952Y-172047619D01*
X184118571Y-172142857D01*
X184166190Y-172333333D01*
X184166190Y-172571428D01*
X184118571Y-172761904D01*
X184070952Y-172857142D01*
X184023333Y-172904761D01*
X183928095Y-172952380D01*
X183832857Y-172952380D01*
X183737619Y-172904761D01*
X183690000Y-172857142D01*
X183642380Y-172761904D01*
X183594761Y-172571428D01*
X183594761Y-172333333D01*
X183642380Y-172142857D01*
X183690000Y-172047619D01*
X183737619Y-172000000D01*
X183832857Y-171952380D01*
X184785238Y-171952380D02*
X184880476Y-171952380D01*
X184975714Y-172000000D01*
X185023333Y-172047619D01*
X185070952Y-172142857D01*
X185118571Y-172333333D01*
X185118571Y-172571428D01*
X185070952Y-172761904D01*
X185023333Y-172857142D01*
X184975714Y-172904761D01*
X184880476Y-172952380D01*
X184785238Y-172952380D01*
X184690000Y-172904761D01*
X184642380Y-172857142D01*
X184594761Y-172761904D01*
X184547142Y-172571428D01*
X184547142Y-172333333D01*
X184594761Y-172142857D01*
X184642380Y-172047619D01*
X184690000Y-172000000D01*
X184785238Y-171952380D01*
X185547142Y-172952380D02*
X185547142Y-172285714D01*
X185547142Y-172476190D02*
X185594761Y-172380952D01*
X185642380Y-172333333D01*
X185737619Y-172285714D01*
X185832857Y-172285714D01*
%TO.C,R4*%
D12*
X181421428Y-184600000D02*
X181135714Y-184800000D01*
X181421428Y-184942857D02*
X180821428Y-184942857D01*
X180821428Y-184714285D01*
X180850000Y-184657142D01*
X180878571Y-184628571D01*
X180935714Y-184600000D01*
X181021428Y-184600000D01*
X181078571Y-184628571D01*
X181107142Y-184657142D01*
X181135714Y-184714285D01*
X181135714Y-184942857D01*
X181021428Y-184085714D02*
X181421428Y-184085714D01*
X180792857Y-184228571D02*
X181221428Y-184371428D01*
X181221428Y-184000000D01*
D11*
X182713809Y-184952380D02*
X182142380Y-184952380D01*
X182428095Y-184952380D02*
X182428095Y-183952380D01*
X182332857Y-184095238D01*
X182237619Y-184190476D01*
X182142380Y-184238095D01*
X183332857Y-183952380D02*
X183428095Y-183952380D01*
X183523333Y-184000000D01*
X183570952Y-184047619D01*
X183618571Y-184142857D01*
X183666190Y-184333333D01*
X183666190Y-184571428D01*
X183618571Y-184761904D01*
X183570952Y-184857142D01*
X183523333Y-184904761D01*
X183428095Y-184952380D01*
X183332857Y-184952380D01*
X183237619Y-184904761D01*
X183190000Y-184857142D01*
X183142380Y-184761904D01*
X183094761Y-184571428D01*
X183094761Y-184333333D01*
X183142380Y-184142857D01*
X183190000Y-184047619D01*
X183237619Y-184000000D01*
X183332857Y-183952380D01*
X184285238Y-183952380D02*
X184380476Y-183952380D01*
X184475714Y-184000000D01*
X184523333Y-184047619D01*
X184570952Y-184142857D01*
X184618571Y-184333333D01*
X184618571Y-184571428D01*
X184570952Y-184761904D01*
X184523333Y-184857142D01*
X184475714Y-184904761D01*
X184380476Y-184952380D01*
X184285238Y-184952380D01*
X184190000Y-184904761D01*
X184142380Y-184857142D01*
X184094761Y-184761904D01*
X184047142Y-184571428D01*
X184047142Y-184333333D01*
X184094761Y-184142857D01*
X184142380Y-184047619D01*
X184190000Y-184000000D01*
X184285238Y-183952380D01*
X185047142Y-184952380D02*
X185047142Y-184285714D01*
X185047142Y-184476190D02*
X185094761Y-184380952D01*
X185142380Y-184333333D01*
X185237619Y-184285714D01*
X185332857Y-184285714D01*
%TO.C,R3*%
D12*
X181421428Y-159100000D02*
X181135714Y-159300000D01*
X181421428Y-159442857D02*
X180821428Y-159442857D01*
X180821428Y-159214285D01*
X180850000Y-159157142D01*
X180878571Y-159128571D01*
X180935714Y-159100000D01*
X181021428Y-159100000D01*
X181078571Y-159128571D01*
X181107142Y-159157142D01*
X181135714Y-159214285D01*
X181135714Y-159442857D01*
X180821428Y-158900000D02*
X180821428Y-158528571D01*
X181050000Y-158728571D01*
X181050000Y-158642857D01*
X181078571Y-158585714D01*
X181107142Y-158557142D01*
X181164285Y-158528571D01*
X181307142Y-158528571D01*
X181364285Y-158557142D01*
X181392857Y-158585714D01*
X181421428Y-158642857D01*
X181421428Y-158814285D01*
X181392857Y-158871428D01*
X181364285Y-158900000D01*
D11*
X182713809Y-159452380D02*
X182142380Y-159452380D01*
X182428095Y-159452380D02*
X182428095Y-158452380D01*
X182332857Y-158595238D01*
X182237619Y-158690476D01*
X182142380Y-158738095D01*
X183332857Y-158452380D02*
X183428095Y-158452380D01*
X183523333Y-158500000D01*
X183570952Y-158547619D01*
X183618571Y-158642857D01*
X183666190Y-158833333D01*
X183666190Y-159071428D01*
X183618571Y-159261904D01*
X183570952Y-159357142D01*
X183523333Y-159404761D01*
X183428095Y-159452380D01*
X183332857Y-159452380D01*
X183237619Y-159404761D01*
X183190000Y-159357142D01*
X183142380Y-159261904D01*
X183094761Y-159071428D01*
X183094761Y-158833333D01*
X183142380Y-158642857D01*
X183190000Y-158547619D01*
X183237619Y-158500000D01*
X183332857Y-158452380D01*
X184285238Y-158452380D02*
X184380476Y-158452380D01*
X184475714Y-158500000D01*
X184523333Y-158547619D01*
X184570952Y-158642857D01*
X184618571Y-158833333D01*
X184618571Y-159071428D01*
X184570952Y-159261904D01*
X184523333Y-159357142D01*
X184475714Y-159404761D01*
X184380476Y-159452380D01*
X184285238Y-159452380D01*
X184190000Y-159404761D01*
X184142380Y-159357142D01*
X184094761Y-159261904D01*
X184047142Y-159071428D01*
X184047142Y-158833333D01*
X184094761Y-158642857D01*
X184142380Y-158547619D01*
X184190000Y-158500000D01*
X184285238Y-158452380D01*
X185047142Y-159452380D02*
X185047142Y-158785714D01*
X185047142Y-158976190D02*
X185094761Y-158880952D01*
X185142380Y-158833333D01*
X185237619Y-158785714D01*
X185332857Y-158785714D01*
%TO.C,R2*%
D12*
X181541428Y-146600000D02*
X181255714Y-146800000D01*
X181541428Y-146942857D02*
X180941428Y-146942857D01*
X180941428Y-146714285D01*
X180970000Y-146657142D01*
X180998571Y-146628571D01*
X181055714Y-146600000D01*
X181141428Y-146600000D01*
X181198571Y-146628571D01*
X181227142Y-146657142D01*
X181255714Y-146714285D01*
X181255714Y-146942857D01*
X180998571Y-146371428D02*
X180970000Y-146342857D01*
X180941428Y-146285714D01*
X180941428Y-146142857D01*
X180970000Y-146085714D01*
X180998571Y-146057142D01*
X181055714Y-146028571D01*
X181112857Y-146028571D01*
X181198571Y-146057142D01*
X181541428Y-146400000D01*
X181541428Y-146028571D01*
D11*
X182833809Y-146952380D02*
X182262380Y-146952380D01*
X182548095Y-146952380D02*
X182548095Y-145952380D01*
X182452857Y-146095238D01*
X182357619Y-146190476D01*
X182262380Y-146238095D01*
X183452857Y-145952380D02*
X183548095Y-145952380D01*
X183643333Y-146000000D01*
X183690952Y-146047619D01*
X183738571Y-146142857D01*
X183786190Y-146333333D01*
X183786190Y-146571428D01*
X183738571Y-146761904D01*
X183690952Y-146857142D01*
X183643333Y-146904761D01*
X183548095Y-146952380D01*
X183452857Y-146952380D01*
X183357619Y-146904761D01*
X183310000Y-146857142D01*
X183262380Y-146761904D01*
X183214761Y-146571428D01*
X183214761Y-146333333D01*
X183262380Y-146142857D01*
X183310000Y-146047619D01*
X183357619Y-146000000D01*
X183452857Y-145952380D01*
X184405238Y-145952380D02*
X184500476Y-145952380D01*
X184595714Y-146000000D01*
X184643333Y-146047619D01*
X184690952Y-146142857D01*
X184738571Y-146333333D01*
X184738571Y-146571428D01*
X184690952Y-146761904D01*
X184643333Y-146857142D01*
X184595714Y-146904761D01*
X184500476Y-146952380D01*
X184405238Y-146952380D01*
X184310000Y-146904761D01*
X184262380Y-146857142D01*
X184214761Y-146761904D01*
X184167142Y-146571428D01*
X184167142Y-146333333D01*
X184214761Y-146142857D01*
X184262380Y-146047619D01*
X184310000Y-146000000D01*
X184405238Y-145952380D01*
X185167142Y-146952380D02*
X185167142Y-146285714D01*
X185167142Y-146476190D02*
X185214761Y-146380952D01*
X185262380Y-146333333D01*
X185357619Y-146285714D01*
X185452857Y-146285714D01*
%TO.C,R1*%
D12*
X190921428Y-136600000D02*
X190635714Y-136800000D01*
X190921428Y-136942857D02*
X190321428Y-136942857D01*
X190321428Y-136714285D01*
X190350000Y-136657142D01*
X190378571Y-136628571D01*
X190435714Y-136600000D01*
X190521428Y-136600000D01*
X190578571Y-136628571D01*
X190607142Y-136657142D01*
X190635714Y-136714285D01*
X190635714Y-136942857D01*
X190921428Y-136028571D02*
X190921428Y-136371428D01*
X190921428Y-136200000D02*
X190321428Y-136200000D01*
X190407142Y-136257142D01*
X190464285Y-136314285D01*
X190492857Y-136371428D01*
D11*
X192428095Y-136952380D02*
X191856666Y-136952380D01*
X192142380Y-136952380D02*
X192142380Y-135952380D01*
X192047142Y-136095238D01*
X191951904Y-136190476D01*
X191856666Y-136238095D01*
X193047142Y-135952380D02*
X193142380Y-135952380D01*
X193237619Y-136000000D01*
X193285238Y-136047619D01*
X193332857Y-136142857D01*
X193380476Y-136333333D01*
X193380476Y-136571428D01*
X193332857Y-136761904D01*
X193285238Y-136857142D01*
X193237619Y-136904761D01*
X193142380Y-136952380D01*
X193047142Y-136952380D01*
X192951904Y-136904761D01*
X192904285Y-136857142D01*
X192856666Y-136761904D01*
X192809047Y-136571428D01*
X192809047Y-136333333D01*
X192856666Y-136142857D01*
X192904285Y-136047619D01*
X192951904Y-136000000D01*
X193047142Y-135952380D01*
X193809047Y-136952380D02*
X193809047Y-135952380D01*
X194142380Y-136666666D01*
X194475714Y-135952380D01*
X194475714Y-136952380D01*
%TO.C,J2*%
X204066666Y-200872380D02*
X204066666Y-201586666D01*
X204019047Y-201729523D01*
X203923809Y-201824761D01*
X203780952Y-201872380D01*
X203685714Y-201872380D01*
X204495238Y-200967619D02*
X204542857Y-200920000D01*
X204638095Y-200872380D01*
X204876190Y-200872380D01*
X204971428Y-200920000D01*
X205019047Y-200967619D01*
X205066666Y-201062857D01*
X205066666Y-201158095D01*
X205019047Y-201300952D01*
X204447619Y-201872380D01*
X205066666Y-201872380D01*
X209488095Y-212321428D02*
X210250000Y-212321428D01*
X209869047Y-212702380D02*
X209869047Y-211940476D01*
X211250000Y-212702380D02*
X210678571Y-212702380D01*
X210964285Y-212702380D02*
X210964285Y-211702380D01*
X210869047Y-211845238D01*
X210773809Y-211940476D01*
X210678571Y-211988095D01*
X211630952Y-211797619D02*
X211678571Y-211750000D01*
X211773809Y-211702380D01*
X212011904Y-211702380D01*
X212107142Y-211750000D01*
X212154761Y-211797619D01*
X212202380Y-211892857D01*
X212202380Y-211988095D01*
X212154761Y-212130952D01*
X211583333Y-212702380D01*
X212202380Y-212702380D01*
X212488095Y-211702380D02*
X212821428Y-212702380D01*
X213154761Y-211702380D01*
X209488095Y-188321428D02*
X210250000Y-188321428D01*
X211250000Y-188702380D02*
X210678571Y-188702380D01*
X210964285Y-188702380D02*
X210964285Y-187702380D01*
X210869047Y-187845238D01*
X210773809Y-187940476D01*
X210678571Y-187988095D01*
X211630952Y-187797619D02*
X211678571Y-187750000D01*
X211773809Y-187702380D01*
X212011904Y-187702380D01*
X212107142Y-187750000D01*
X212154761Y-187797619D01*
X212202380Y-187892857D01*
X212202380Y-187988095D01*
X212154761Y-188130952D01*
X211583333Y-188702380D01*
X212202380Y-188702380D01*
X212488095Y-187702380D02*
X212821428Y-188702380D01*
X213154761Y-187702380D01*
X208178571Y-190202380D02*
X207845238Y-189726190D01*
X207607142Y-190202380D02*
X207607142Y-189202380D01*
X207988095Y-189202380D01*
X208083333Y-189250000D01*
X208130952Y-189297619D01*
X208178571Y-189392857D01*
X208178571Y-189535714D01*
X208130952Y-189630952D01*
X208083333Y-189678571D01*
X207988095Y-189726190D01*
X207607142Y-189726190D01*
X208607142Y-189678571D02*
X208940476Y-189678571D01*
X209083333Y-190202380D02*
X208607142Y-190202380D01*
X208607142Y-189202380D01*
X209083333Y-189202380D01*
X209511904Y-190202380D02*
X209511904Y-189202380D01*
X209750000Y-189202380D01*
X209892857Y-189250000D01*
X209988095Y-189345238D01*
X210035714Y-189440476D01*
X210083333Y-189630952D01*
X210083333Y-189773809D01*
X210035714Y-189964285D01*
X209988095Y-190059523D01*
X209892857Y-190154761D01*
X209750000Y-190202380D01*
X209511904Y-190202380D01*
X211226190Y-190154761D02*
X211369047Y-190202380D01*
X211607142Y-190202380D01*
X211702380Y-190154761D01*
X211750000Y-190107142D01*
X211797619Y-190011904D01*
X211797619Y-189916666D01*
X211750000Y-189821428D01*
X211702380Y-189773809D01*
X211607142Y-189726190D01*
X211416666Y-189678571D01*
X211321428Y-189630952D01*
X211273809Y-189583333D01*
X211226190Y-189488095D01*
X211226190Y-189392857D01*
X211273809Y-189297619D01*
X211321428Y-189250000D01*
X211416666Y-189202380D01*
X211654761Y-189202380D01*
X211797619Y-189250000D01*
X212083333Y-189202380D02*
X212654761Y-189202380D01*
X212369047Y-190202380D02*
X212369047Y-189202380D01*
X213559523Y-190202380D02*
X213226190Y-189726190D01*
X212988095Y-190202380D02*
X212988095Y-189202380D01*
X213369047Y-189202380D01*
X213464285Y-189250000D01*
X213511904Y-189297619D01*
X213559523Y-189392857D01*
X213559523Y-189535714D01*
X213511904Y-189630952D01*
X213464285Y-189678571D01*
X213369047Y-189726190D01*
X212988095Y-189726190D01*
X213988095Y-190202380D02*
X213988095Y-189202380D01*
X214464285Y-190202380D02*
X214464285Y-189202380D01*
X214845238Y-189202380D01*
X214940476Y-189250000D01*
X214988095Y-189297619D01*
X215035714Y-189392857D01*
X215035714Y-189535714D01*
X214988095Y-189630952D01*
X214940476Y-189678571D01*
X214845238Y-189726190D01*
X214464285Y-189726190D01*
X215464285Y-189678571D02*
X215797619Y-189678571D01*
X215940476Y-190202380D02*
X215464285Y-190202380D01*
X215464285Y-189202380D01*
X215940476Y-189202380D01*
%TO.C,D2*%
D13*
X210293333Y-183316666D02*
X210293333Y-182616666D01*
X210460000Y-182616666D01*
X210560000Y-182650000D01*
X210626666Y-182716666D01*
X210660000Y-182783333D01*
X210693333Y-182916666D01*
X210693333Y-183016666D01*
X210660000Y-183150000D01*
X210626666Y-183216666D01*
X210560000Y-183283333D01*
X210460000Y-183316666D01*
X210293333Y-183316666D01*
X210960000Y-182683333D02*
X210993333Y-182650000D01*
X211060000Y-182616666D01*
X211226666Y-182616666D01*
X211293333Y-182650000D01*
X211326666Y-182683333D01*
X211360000Y-182750000D01*
X211360000Y-182816666D01*
X211326666Y-182916666D01*
X210926666Y-183316666D01*
X211360000Y-183316666D01*
%TO.C,D1*%
X210293333Y-186316666D02*
X210293333Y-185616666D01*
X210460000Y-185616666D01*
X210560000Y-185650000D01*
X210626666Y-185716666D01*
X210660000Y-185783333D01*
X210693333Y-185916666D01*
X210693333Y-186016666D01*
X210660000Y-186150000D01*
X210626666Y-186216666D01*
X210560000Y-186283333D01*
X210460000Y-186316666D01*
X210293333Y-186316666D01*
X211360000Y-186316666D02*
X210960000Y-186316666D01*
X211160000Y-186316666D02*
X211160000Y-185616666D01*
X211093333Y-185716666D01*
X211026666Y-185783333D01*
X210960000Y-185816666D01*
%TO.C,C8*%
D11*
X196447442Y-82796466D02*
X196495061Y-82844085D01*
X196542680Y-82986942D01*
X196542680Y-83082180D01*
X196495061Y-83225038D01*
X196399823Y-83320276D01*
X196304585Y-83367895D01*
X196114109Y-83415514D01*
X195971252Y-83415514D01*
X195780776Y-83367895D01*
X195685538Y-83320276D01*
X195590300Y-83225038D01*
X195542680Y-83082180D01*
X195542680Y-82986942D01*
X195590300Y-82844085D01*
X195637919Y-82796466D01*
X195971252Y-82225038D02*
X195923633Y-82320276D01*
X195876014Y-82367895D01*
X195780776Y-82415514D01*
X195733157Y-82415514D01*
X195637919Y-82367895D01*
X195590300Y-82320276D01*
X195542680Y-82225038D01*
X195542680Y-82034561D01*
X195590300Y-81939323D01*
X195637919Y-81891704D01*
X195733157Y-81844085D01*
X195780776Y-81844085D01*
X195876014Y-81891704D01*
X195923633Y-81939323D01*
X195971252Y-82034561D01*
X195971252Y-82225038D01*
X196018871Y-82320276D01*
X196066490Y-82367895D01*
X196161728Y-82415514D01*
X196352204Y-82415514D01*
X196447442Y-82367895D01*
X196495061Y-82320276D01*
X196542680Y-82225038D01*
X196542680Y-82034561D01*
X196495061Y-81939323D01*
X196447442Y-81891704D01*
X196352204Y-81844085D01*
X196161728Y-81844085D01*
X196066490Y-81891704D01*
X196018871Y-81939323D01*
X195971252Y-82034561D01*
X199339220Y-84555879D02*
X199339220Y-85127307D01*
X199339220Y-84841593D02*
X198339220Y-84841593D01*
X198482078Y-84936831D01*
X198577316Y-85032069D01*
X198624935Y-85127307D01*
X198339220Y-83936831D02*
X198339220Y-83841593D01*
X198386840Y-83746355D01*
X198434459Y-83698736D01*
X198529697Y-83651117D01*
X198720173Y-83603498D01*
X198958268Y-83603498D01*
X199148744Y-83651117D01*
X199243982Y-83698736D01*
X199291601Y-83746355D01*
X199339220Y-83841593D01*
X199339220Y-83936831D01*
X199291601Y-84032069D01*
X199243982Y-84079688D01*
X199148744Y-84127307D01*
X198958268Y-84174926D01*
X198720173Y-84174926D01*
X198529697Y-84127307D01*
X198434459Y-84079688D01*
X198386840Y-84032069D01*
X198339220Y-83936831D01*
X198339220Y-82984450D02*
X198339220Y-82889212D01*
X198386840Y-82793974D01*
X198434459Y-82746355D01*
X198529697Y-82698736D01*
X198720173Y-82651117D01*
X198958268Y-82651117D01*
X199148744Y-82698736D01*
X199243982Y-82746355D01*
X199291601Y-82793974D01*
X199339220Y-82889212D01*
X199339220Y-82984450D01*
X199291601Y-83079688D01*
X199243982Y-83127307D01*
X199148744Y-83174926D01*
X198958268Y-83222545D01*
X198720173Y-83222545D01*
X198529697Y-83174926D01*
X198434459Y-83127307D01*
X198386840Y-83079688D01*
X198339220Y-82984450D01*
X198672554Y-82222545D02*
X199672554Y-82222545D01*
X198720173Y-82222545D02*
X198672554Y-82127307D01*
X198672554Y-81936831D01*
X198720173Y-81841593D01*
X198767792Y-81793974D01*
X198863030Y-81746355D01*
X199148744Y-81746355D01*
X199243982Y-81793974D01*
X199291601Y-81841593D01*
X199339220Y-81936831D01*
X199339220Y-82127307D01*
X199291601Y-82222545D01*
X198815411Y-80984450D02*
X198815411Y-81317783D01*
X199339220Y-81317783D02*
X198339220Y-81317783D01*
X198339220Y-80841593D01*
%TO.C,C7*%
X176703533Y-90947442D02*
X176655914Y-90995061D01*
X176513057Y-91042680D01*
X176417819Y-91042680D01*
X176274961Y-90995061D01*
X176179723Y-90899823D01*
X176132104Y-90804585D01*
X176084485Y-90614109D01*
X176084485Y-90471252D01*
X176132104Y-90280776D01*
X176179723Y-90185538D01*
X176274961Y-90090300D01*
X176417819Y-90042680D01*
X176513057Y-90042680D01*
X176655914Y-90090300D01*
X176703533Y-90137919D01*
X177036866Y-90042680D02*
X177703533Y-90042680D01*
X177274961Y-91042680D01*
X174944120Y-93839220D02*
X174372692Y-93839220D01*
X174658406Y-93839220D02*
X174658406Y-92839220D01*
X174563168Y-92982078D01*
X174467930Y-93077316D01*
X174372692Y-93124935D01*
X175563168Y-92839220D02*
X175658406Y-92839220D01*
X175753644Y-92886840D01*
X175801263Y-92934459D01*
X175848882Y-93029697D01*
X175896501Y-93220173D01*
X175896501Y-93458268D01*
X175848882Y-93648744D01*
X175801263Y-93743982D01*
X175753644Y-93791601D01*
X175658406Y-93839220D01*
X175563168Y-93839220D01*
X175467930Y-93791601D01*
X175420311Y-93743982D01*
X175372692Y-93648744D01*
X175325073Y-93458268D01*
X175325073Y-93220173D01*
X175372692Y-93029697D01*
X175420311Y-92934459D01*
X175467930Y-92886840D01*
X175563168Y-92839220D01*
X176515549Y-92839220D02*
X176610787Y-92839220D01*
X176706025Y-92886840D01*
X176753644Y-92934459D01*
X176801263Y-93029697D01*
X176848882Y-93220173D01*
X176848882Y-93458268D01*
X176801263Y-93648744D01*
X176753644Y-93743982D01*
X176706025Y-93791601D01*
X176610787Y-93839220D01*
X176515549Y-93839220D01*
X176420311Y-93791601D01*
X176372692Y-93743982D01*
X176325073Y-93648744D01*
X176277454Y-93458268D01*
X176277454Y-93220173D01*
X176325073Y-93029697D01*
X176372692Y-92934459D01*
X176420311Y-92886840D01*
X176515549Y-92839220D01*
X177277454Y-93172554D02*
X177277454Y-94172554D01*
X177277454Y-93220173D02*
X177372692Y-93172554D01*
X177563168Y-93172554D01*
X177658406Y-93220173D01*
X177706025Y-93267792D01*
X177753644Y-93363030D01*
X177753644Y-93648744D01*
X177706025Y-93743982D01*
X177658406Y-93791601D01*
X177563168Y-93839220D01*
X177372692Y-93839220D01*
X177277454Y-93791601D01*
X178515549Y-93315411D02*
X178182216Y-93315411D01*
X178182216Y-93839220D02*
X178182216Y-92839220D01*
X178658406Y-92839220D01*
%TO.C,C6*%
X202766842Y-123036866D02*
X202814461Y-123084485D01*
X202862080Y-123227342D01*
X202862080Y-123322580D01*
X202814461Y-123465438D01*
X202719223Y-123560676D01*
X202623985Y-123608295D01*
X202433509Y-123655914D01*
X202290652Y-123655914D01*
X202100176Y-123608295D01*
X202004938Y-123560676D01*
X201909700Y-123465438D01*
X201862080Y-123322580D01*
X201862080Y-123227342D01*
X201909700Y-123084485D01*
X201957319Y-123036866D01*
X201862080Y-122179723D02*
X201862080Y-122370200D01*
X201909700Y-122465438D01*
X201957319Y-122513057D01*
X202100176Y-122608295D01*
X202290652Y-122655914D01*
X202671604Y-122655914D01*
X202766842Y-122608295D01*
X202814461Y-122560676D01*
X202862080Y-122465438D01*
X202862080Y-122274961D01*
X202814461Y-122179723D01*
X202766842Y-122132104D01*
X202671604Y-122084485D01*
X202433509Y-122084485D01*
X202338271Y-122132104D01*
X202290652Y-122179723D01*
X202243033Y-122274961D01*
X202243033Y-122465438D01*
X202290652Y-122560676D01*
X202338271Y-122608295D01*
X202433509Y-122655914D01*
X200065540Y-124039359D02*
X200065540Y-124610787D01*
X200065540Y-124325073D02*
X199065540Y-124325073D01*
X199208398Y-124420311D01*
X199303636Y-124515549D01*
X199351255Y-124610787D01*
X199065540Y-123420311D02*
X199065540Y-123325073D01*
X199113160Y-123229835D01*
X199160779Y-123182216D01*
X199256017Y-123134597D01*
X199446493Y-123086978D01*
X199684588Y-123086978D01*
X199875064Y-123134597D01*
X199970302Y-123182216D01*
X200017921Y-123229835D01*
X200065540Y-123325073D01*
X200065540Y-123420311D01*
X200017921Y-123515549D01*
X199970302Y-123563168D01*
X199875064Y-123610787D01*
X199684588Y-123658406D01*
X199446493Y-123658406D01*
X199256017Y-123610787D01*
X199160779Y-123563168D01*
X199113160Y-123515549D01*
X199065540Y-123420311D01*
X199065540Y-122467930D02*
X199065540Y-122372692D01*
X199113160Y-122277454D01*
X199160779Y-122229835D01*
X199256017Y-122182216D01*
X199446493Y-122134597D01*
X199684588Y-122134597D01*
X199875064Y-122182216D01*
X199970302Y-122229835D01*
X200017921Y-122277454D01*
X200065540Y-122372692D01*
X200065540Y-122467930D01*
X200017921Y-122563168D01*
X199970302Y-122610787D01*
X199875064Y-122658406D01*
X199684588Y-122706025D01*
X199446493Y-122706025D01*
X199256017Y-122658406D01*
X199160779Y-122610787D01*
X199113160Y-122563168D01*
X199065540Y-122467930D01*
X199398874Y-121706025D02*
X200065540Y-121706025D01*
X199494112Y-121706025D02*
X199446493Y-121658406D01*
X199398874Y-121563168D01*
X199398874Y-121420311D01*
X199446493Y-121325073D01*
X199541731Y-121277454D01*
X200065540Y-121277454D01*
X199541731Y-120467930D02*
X199541731Y-120801263D01*
X200065540Y-120801263D02*
X199065540Y-120801263D01*
X199065540Y-120325073D01*
%TO.C,C5*%
X174947442Y-122296466D02*
X174995061Y-122344085D01*
X175042680Y-122486942D01*
X175042680Y-122582180D01*
X174995061Y-122725038D01*
X174899823Y-122820276D01*
X174804585Y-122867895D01*
X174614109Y-122915514D01*
X174471252Y-122915514D01*
X174280776Y-122867895D01*
X174185538Y-122820276D01*
X174090300Y-122725038D01*
X174042680Y-122582180D01*
X174042680Y-122486942D01*
X174090300Y-122344085D01*
X174137919Y-122296466D01*
X174042680Y-121391704D02*
X174042680Y-121867895D01*
X174518871Y-121915514D01*
X174471252Y-121867895D01*
X174423633Y-121772657D01*
X174423633Y-121534561D01*
X174471252Y-121439323D01*
X174518871Y-121391704D01*
X174614109Y-121344085D01*
X174852204Y-121344085D01*
X174947442Y-121391704D01*
X174995061Y-121439323D01*
X175042680Y-121534561D01*
X175042680Y-121772657D01*
X174995061Y-121867895D01*
X174947442Y-121915514D01*
X177839220Y-124055879D02*
X177839220Y-124627307D01*
X177839220Y-124341593D02*
X176839220Y-124341593D01*
X176982078Y-124436831D01*
X177077316Y-124532069D01*
X177124935Y-124627307D01*
X176839220Y-123436831D02*
X176839220Y-123341593D01*
X176886840Y-123246355D01*
X176934459Y-123198736D01*
X177029697Y-123151117D01*
X177220173Y-123103498D01*
X177458268Y-123103498D01*
X177648744Y-123151117D01*
X177743982Y-123198736D01*
X177791601Y-123246355D01*
X177839220Y-123341593D01*
X177839220Y-123436831D01*
X177791601Y-123532069D01*
X177743982Y-123579688D01*
X177648744Y-123627307D01*
X177458268Y-123674926D01*
X177220173Y-123674926D01*
X177029697Y-123627307D01*
X176934459Y-123579688D01*
X176886840Y-123532069D01*
X176839220Y-123436831D01*
X176839220Y-122484450D02*
X176839220Y-122389212D01*
X176886840Y-122293974D01*
X176934459Y-122246355D01*
X177029697Y-122198736D01*
X177220173Y-122151117D01*
X177458268Y-122151117D01*
X177648744Y-122198736D01*
X177743982Y-122246355D01*
X177791601Y-122293974D01*
X177839220Y-122389212D01*
X177839220Y-122484450D01*
X177791601Y-122579688D01*
X177743982Y-122627307D01*
X177648744Y-122674926D01*
X177458268Y-122722545D01*
X177220173Y-122722545D01*
X177029697Y-122674926D01*
X176934459Y-122627307D01*
X176886840Y-122579688D01*
X176839220Y-122484450D01*
X177172554Y-121722545D02*
X177839220Y-121722545D01*
X177267792Y-121722545D02*
X177220173Y-121674926D01*
X177172554Y-121579688D01*
X177172554Y-121436831D01*
X177220173Y-121341593D01*
X177315411Y-121293974D01*
X177839220Y-121293974D01*
X177315411Y-120484450D02*
X177315411Y-120817783D01*
X177839220Y-120817783D02*
X176839220Y-120817783D01*
X176839220Y-120341593D01*
%TO.C,C4*%
X175703533Y-73947442D02*
X175655914Y-73995061D01*
X175513057Y-74042680D01*
X175417819Y-74042680D01*
X175274961Y-73995061D01*
X175179723Y-73899823D01*
X175132104Y-73804585D01*
X175084485Y-73614109D01*
X175084485Y-73471252D01*
X175132104Y-73280776D01*
X175179723Y-73185538D01*
X175274961Y-73090300D01*
X175417819Y-73042680D01*
X175513057Y-73042680D01*
X175655914Y-73090300D01*
X175703533Y-73137919D01*
X176560676Y-73376014D02*
X176560676Y-74042680D01*
X176322580Y-72995061D02*
X176084485Y-73709347D01*
X176703533Y-73709347D01*
X173944120Y-76839220D02*
X173372692Y-76839220D01*
X173658406Y-76839220D02*
X173658406Y-75839220D01*
X173563168Y-75982078D01*
X173467930Y-76077316D01*
X173372692Y-76124935D01*
X174563168Y-75839220D02*
X174658406Y-75839220D01*
X174753644Y-75886840D01*
X174801263Y-75934459D01*
X174848882Y-76029697D01*
X174896501Y-76220173D01*
X174896501Y-76458268D01*
X174848882Y-76648744D01*
X174801263Y-76743982D01*
X174753644Y-76791601D01*
X174658406Y-76839220D01*
X174563168Y-76839220D01*
X174467930Y-76791601D01*
X174420311Y-76743982D01*
X174372692Y-76648744D01*
X174325073Y-76458268D01*
X174325073Y-76220173D01*
X174372692Y-76029697D01*
X174420311Y-75934459D01*
X174467930Y-75886840D01*
X174563168Y-75839220D01*
X175515549Y-75839220D02*
X175610787Y-75839220D01*
X175706025Y-75886840D01*
X175753644Y-75934459D01*
X175801263Y-76029697D01*
X175848882Y-76220173D01*
X175848882Y-76458268D01*
X175801263Y-76648744D01*
X175753644Y-76743982D01*
X175706025Y-76791601D01*
X175610787Y-76839220D01*
X175515549Y-76839220D01*
X175420311Y-76791601D01*
X175372692Y-76743982D01*
X175325073Y-76648744D01*
X175277454Y-76458268D01*
X175277454Y-76220173D01*
X175325073Y-76029697D01*
X175372692Y-75934459D01*
X175420311Y-75886840D01*
X175515549Y-75839220D01*
X176277454Y-76172554D02*
X176277454Y-76839220D01*
X176277454Y-76267792D02*
X176325073Y-76220173D01*
X176420311Y-76172554D01*
X176563168Y-76172554D01*
X176658406Y-76220173D01*
X176706025Y-76315411D01*
X176706025Y-76839220D01*
X177515549Y-76315411D02*
X177182216Y-76315411D01*
X177182216Y-76839220D02*
X177182216Y-75839220D01*
X177658406Y-75839220D01*
%TO.C,C3*%
X190703533Y-89947442D02*
X190655914Y-89995061D01*
X190513057Y-90042680D01*
X190417819Y-90042680D01*
X190274961Y-89995061D01*
X190179723Y-89899823D01*
X190132104Y-89804585D01*
X190084485Y-89614109D01*
X190084485Y-89471252D01*
X190132104Y-89280776D01*
X190179723Y-89185538D01*
X190274961Y-89090300D01*
X190417819Y-89042680D01*
X190513057Y-89042680D01*
X190655914Y-89090300D01*
X190703533Y-89137919D01*
X191036866Y-89042680D02*
X191655914Y-89042680D01*
X191322580Y-89423633D01*
X191465438Y-89423633D01*
X191560676Y-89471252D01*
X191608295Y-89518871D01*
X191655914Y-89614109D01*
X191655914Y-89852204D01*
X191608295Y-89947442D01*
X191560676Y-89995061D01*
X191465438Y-90042680D01*
X191179723Y-90042680D01*
X191084485Y-89995061D01*
X191036866Y-89947442D01*
X188944120Y-92839220D02*
X188372692Y-92839220D01*
X188658406Y-92839220D02*
X188658406Y-91839220D01*
X188563168Y-91982078D01*
X188467930Y-92077316D01*
X188372692Y-92124935D01*
X189563168Y-91839220D02*
X189658406Y-91839220D01*
X189753644Y-91886840D01*
X189801263Y-91934459D01*
X189848882Y-92029697D01*
X189896501Y-92220173D01*
X189896501Y-92458268D01*
X189848882Y-92648744D01*
X189801263Y-92743982D01*
X189753644Y-92791601D01*
X189658406Y-92839220D01*
X189563168Y-92839220D01*
X189467930Y-92791601D01*
X189420311Y-92743982D01*
X189372692Y-92648744D01*
X189325073Y-92458268D01*
X189325073Y-92220173D01*
X189372692Y-92029697D01*
X189420311Y-91934459D01*
X189467930Y-91886840D01*
X189563168Y-91839220D01*
X190515549Y-91839220D02*
X190610787Y-91839220D01*
X190706025Y-91886840D01*
X190753644Y-91934459D01*
X190801263Y-92029697D01*
X190848882Y-92220173D01*
X190848882Y-92458268D01*
X190801263Y-92648744D01*
X190753644Y-92743982D01*
X190706025Y-92791601D01*
X190610787Y-92839220D01*
X190515549Y-92839220D01*
X190420311Y-92791601D01*
X190372692Y-92743982D01*
X190325073Y-92648744D01*
X190277454Y-92458268D01*
X190277454Y-92220173D01*
X190325073Y-92029697D01*
X190372692Y-91934459D01*
X190420311Y-91886840D01*
X190515549Y-91839220D01*
X191277454Y-92172554D02*
X191277454Y-92839220D01*
X191277454Y-92267792D02*
X191325073Y-92220173D01*
X191420311Y-92172554D01*
X191563168Y-92172554D01*
X191658406Y-92220173D01*
X191706025Y-92315411D01*
X191706025Y-92839220D01*
X192515549Y-92315411D02*
X192182216Y-92315411D01*
X192182216Y-92839220D02*
X192182216Y-91839220D01*
X192658406Y-91839220D01*
%TO.C,C2*%
X201083333Y-202957142D02*
X201035714Y-203004761D01*
X200892857Y-203052380D01*
X200797619Y-203052380D01*
X200654761Y-203004761D01*
X200559523Y-202909523D01*
X200511904Y-202814285D01*
X200464285Y-202623809D01*
X200464285Y-202480952D01*
X200511904Y-202290476D01*
X200559523Y-202195238D01*
X200654761Y-202100000D01*
X200797619Y-202052380D01*
X200892857Y-202052380D01*
X201035714Y-202100000D01*
X201083333Y-202147619D01*
X201464285Y-202147619D02*
X201511904Y-202100000D01*
X201607142Y-202052380D01*
X201845238Y-202052380D01*
X201940476Y-202100000D01*
X201988095Y-202147619D01*
X202035714Y-202242857D01*
X202035714Y-202338095D01*
X201988095Y-202480952D01*
X201416666Y-203052380D01*
X202035714Y-203052380D01*
%TO.C,C1*%
X201583333Y-193957142D02*
X201535714Y-194004761D01*
X201392857Y-194052380D01*
X201297619Y-194052380D01*
X201154761Y-194004761D01*
X201059523Y-193909523D01*
X201011904Y-193814285D01*
X200964285Y-193623809D01*
X200964285Y-193480952D01*
X201011904Y-193290476D01*
X201059523Y-193195238D01*
X201154761Y-193100000D01*
X201297619Y-193052380D01*
X201392857Y-193052380D01*
X201535714Y-193100000D01*
X201583333Y-193147619D01*
X202535714Y-194052380D02*
X201964285Y-194052380D01*
X202250000Y-194052380D02*
X202250000Y-193052380D01*
X202154761Y-193195238D01*
X202059523Y-193290476D01*
X201964285Y-193338095D01*
%TD*%
%LPC*%
D14*
%TO.C,LED*%
X177000000Y-206000000D03*
G36*
G01*
X173590000Y-206844441D02*
X173590000Y-205155559D01*
G75*
G02*
X173840559Y-204905000I250559J0D01*
G01*
X175079441Y-204905000D01*
G75*
G02*
X175330000Y-205155559I0J-250559D01*
G01*
X175330000Y-206844441D01*
G75*
G02*
X175079441Y-207095000I-250559J0D01*
G01*
X173840559Y-207095000D01*
G75*
G02*
X173590000Y-206844441I0J250559D01*
G01*
G37*
%TD*%
D15*
%TO.C,SW5*%
X184000000Y-155500000D03*
X184000000Y-150500000D03*
X184000000Y-153000000D03*
%TD*%
%TO.C,SW4*%
X184000000Y-135500000D03*
X184000000Y-130500000D03*
X184000000Y-133000000D03*
%TD*%
%TO.C,SW3*%
X184000000Y-115500000D03*
X184000000Y-110500000D03*
X184000000Y-113000000D03*
%TD*%
%TO.C,SW2*%
X184000000Y-95500000D03*
X184000000Y-90500000D03*
X184000000Y-93000000D03*
%TD*%
%TO.C,SW1*%
X184000000Y-75500000D03*
X184000000Y-70500000D03*
X184000000Y-73000000D03*
%TD*%
D14*
%TO.C,MIX OUT*%
X215000000Y-175000000D03*
G36*
G01*
X211590000Y-175845001D02*
X211590000Y-174154999D01*
G75*
G02*
X211839999Y-173905000I249999J0D01*
G01*
X213080001Y-173905000D01*
G75*
G02*
X213330000Y-174154999I0J-249999D01*
G01*
X213330000Y-175845001D01*
G75*
G02*
X213080001Y-176095000I-249999J0D01*
G01*
X211839999Y-176095000D01*
G75*
G02*
X211590000Y-175845001I0J249999D01*
G01*
G37*
%TD*%
%TO.C,IN 5*%
X214540000Y-163000000D03*
G36*
G01*
X211130000Y-163845001D02*
X211130000Y-162154999D01*
G75*
G02*
X211379999Y-161905000I249999J0D01*
G01*
X212620001Y-161905000D01*
G75*
G02*
X212870000Y-162154999I0J-249999D01*
G01*
X212870000Y-163845001D01*
G75*
G02*
X212620001Y-164095000I-249999J0D01*
G01*
X211379999Y-164095000D01*
G75*
G02*
X211130000Y-163845001I0J249999D01*
G01*
G37*
%TD*%
%TO.C,IN 4*%
X215000000Y-143000000D03*
G36*
G01*
X211590000Y-143845001D02*
X211590000Y-142154999D01*
G75*
G02*
X211839999Y-141905000I249999J0D01*
G01*
X213080001Y-141905000D01*
G75*
G02*
X213330000Y-142154999I0J-249999D01*
G01*
X213330000Y-143845001D01*
G75*
G02*
X213080001Y-144095000I-249999J0D01*
G01*
X211839999Y-144095000D01*
G75*
G02*
X211590000Y-143845001I0J249999D01*
G01*
G37*
%TD*%
%TO.C,IN 3*%
X214540000Y-123000000D03*
G36*
G01*
X211130000Y-123845001D02*
X211130000Y-122154999D01*
G75*
G02*
X211379999Y-121905000I249999J0D01*
G01*
X212620001Y-121905000D01*
G75*
G02*
X212870000Y-122154999I0J-249999D01*
G01*
X212870000Y-123845001D01*
G75*
G02*
X212620001Y-124095000I-249999J0D01*
G01*
X211379999Y-124095000D01*
G75*
G02*
X211130000Y-123845001I0J249999D01*
G01*
G37*
%TD*%
%TO.C,IN 2*%
X215000000Y-103000000D03*
G36*
G01*
X211590000Y-103845001D02*
X211590000Y-102154999D01*
G75*
G02*
X211839999Y-101905000I249999J0D01*
G01*
X213080001Y-101905000D01*
G75*
G02*
X213330000Y-102154999I0J-249999D01*
G01*
X213330000Y-103845001D01*
G75*
G02*
X213080001Y-104095000I-249999J0D01*
G01*
X211839999Y-104095000D01*
G75*
G02*
X211590000Y-103845001I0J249999D01*
G01*
G37*
%TD*%
%TO.C,IN 1*%
X215000000Y-83000000D03*
G36*
G01*
X211590000Y-83845001D02*
X211590000Y-82154999D01*
G75*
G02*
X211839999Y-81905000I249999J0D01*
G01*
X213080001Y-81905000D01*
G75*
G02*
X213330000Y-82154999I0J-249999D01*
G01*
X213330000Y-83845001D01*
G75*
G02*
X213080001Y-84095000I-249999J0D01*
G01*
X211839999Y-84095000D01*
G75*
G02*
X211590000Y-83845001I0J249999D01*
G01*
G37*
%TD*%
%TO.C,OUT 5*%
X177415000Y-196125000D03*
G36*
G01*
X174005000Y-196970001D02*
X174005000Y-195279999D01*
G75*
G02*
X174254999Y-195030000I249999J0D01*
G01*
X175495001Y-195030000D01*
G75*
G02*
X175745000Y-195279999I0J-249999D01*
G01*
X175745000Y-196970001D01*
G75*
G02*
X175495001Y-197220000I-249999J0D01*
G01*
X174254999Y-197220000D01*
G75*
G02*
X174005000Y-196970001I0J249999D01*
G01*
G37*
%TD*%
%TO.C,OUT 3*%
X177415000Y-172500000D03*
G36*
G01*
X174005000Y-173345001D02*
X174005000Y-171654999D01*
G75*
G02*
X174254999Y-171405000I249999J0D01*
G01*
X175495001Y-171405000D01*
G75*
G02*
X175745000Y-171654999I0J-249999D01*
G01*
X175745000Y-173345001D01*
G75*
G02*
X175495001Y-173595000I-249999J0D01*
G01*
X174254999Y-173595000D01*
G75*
G02*
X174005000Y-173345001I0J249999D01*
G01*
G37*
%TD*%
%TO.C,OUT 4*%
X177040000Y-184875000D03*
G36*
G01*
X173630000Y-185720001D02*
X173630000Y-184029999D01*
G75*
G02*
X173879999Y-183780000I249999J0D01*
G01*
X175120001Y-183780000D01*
G75*
G02*
X175370000Y-184029999I0J-249999D01*
G01*
X175370000Y-185720001D01*
G75*
G02*
X175120001Y-185970000I-249999J0D01*
G01*
X173879999Y-185970000D01*
G75*
G02*
X173630000Y-185720001I0J249999D01*
G01*
G37*
%TD*%
%TO.C,OUT 2*%
X177040000Y-159000000D03*
G36*
G01*
X173630000Y-159845001D02*
X173630000Y-158154999D01*
G75*
G02*
X173879999Y-157905000I249999J0D01*
G01*
X175120001Y-157905000D01*
G75*
G02*
X175370000Y-158154999I0J-249999D01*
G01*
X175370000Y-159845001D01*
G75*
G02*
X175120001Y-160095000I-249999J0D01*
G01*
X173879999Y-160095000D01*
G75*
G02*
X173630000Y-159845001I0J249999D01*
G01*
G37*
%TD*%
%TO.C,OUT 1*%
X177040000Y-146625000D03*
G36*
G01*
X173630000Y-147470001D02*
X173630000Y-145779999D01*
G75*
G02*
X173879999Y-145530000I249999J0D01*
G01*
X175120001Y-145530000D01*
G75*
G02*
X175370000Y-145779999I0J-249999D01*
G01*
X175370000Y-147470001D01*
G75*
G02*
X175120001Y-147720000I-249999J0D01*
G01*
X173879999Y-147720000D01*
G75*
G02*
X173630000Y-147470001I0J249999D01*
G01*
G37*
%TD*%
%TO.C,MULT IN*%
X177000000Y-136500000D03*
G36*
G01*
X173590000Y-137345001D02*
X173590000Y-135654999D01*
G75*
G02*
X173839999Y-135405000I249999J0D01*
G01*
X175080001Y-135405000D01*
G75*
G02*
X175330000Y-135654999I0J-249999D01*
G01*
X175330000Y-137345001D01*
G75*
G02*
X175080001Y-137595000I-249999J0D01*
G01*
X173839999Y-137595000D01*
G75*
G02*
X173590000Y-137345001I0J249999D01*
G01*
G37*
%TD*%
D16*
%TO.C,U2*%
X193000000Y-86620000D03*
X177760000Y-79000000D03*
X190460000Y-86620000D03*
X180300000Y-79000000D03*
X187920000Y-86620000D03*
X182840000Y-79000000D03*
X185380000Y-86620000D03*
X185380000Y-79000000D03*
X182840000Y-86620000D03*
X187920000Y-79000000D03*
X180300000Y-86620000D03*
X190460000Y-79000000D03*
X177760000Y-86620000D03*
D17*
X193000000Y-79000000D03*
%TD*%
D16*
%TO.C,U1*%
X195500000Y-126620000D03*
X180260000Y-119000000D03*
X192960000Y-126620000D03*
X182800000Y-119000000D03*
X190420000Y-126620000D03*
X185340000Y-119000000D03*
X187880000Y-126620000D03*
X187880000Y-119000000D03*
X185340000Y-126620000D03*
X190420000Y-119000000D03*
X182800000Y-126620000D03*
X192960000Y-119000000D03*
X180260000Y-126620000D03*
D17*
X195500000Y-119000000D03*
%TD*%
D18*
%TO.C,RV5*%
X209007000Y-157840000D03*
X209007000Y-148240000D03*
D19*
X201507000Y-150540000D03*
X201507000Y-153040000D03*
D20*
X201507000Y-155540000D03*
%TD*%
D18*
%TO.C,RV4*%
X209007000Y-137840000D03*
X209007000Y-128240000D03*
D19*
X201507000Y-130540000D03*
X201507000Y-133040000D03*
D20*
X201507000Y-135540000D03*
%TD*%
D18*
%TO.C,RV3*%
X209007000Y-117840000D03*
X209007000Y-108240000D03*
D19*
X201507000Y-110540000D03*
X201507000Y-113040000D03*
D20*
X201507000Y-115540000D03*
%TD*%
D18*
%TO.C,RV2*%
X209007000Y-97840000D03*
X209007000Y-88240000D03*
D19*
X201507000Y-90540000D03*
X201507000Y-93040000D03*
D20*
X201507000Y-95540000D03*
%TD*%
D18*
%TO.C,RV1*%
X209007000Y-77840000D03*
X209007000Y-68240000D03*
D19*
X201507000Y-70540000D03*
X201507000Y-73040000D03*
D20*
X201507000Y-75540000D03*
%TD*%
D21*
%TO.C,R15*%
X197000000Y-75900000D03*
D22*
X189380000Y-75900000D03*
%TD*%
D21*
%TO.C,R14*%
X170500000Y-87120000D03*
D22*
X170500000Y-79500000D03*
%TD*%
D21*
%TO.C,R13*%
X174000000Y-79380000D03*
D22*
X174000000Y-87000000D03*
%TD*%
D21*
%TO.C,R12*%
X196620000Y-153000000D03*
D22*
X189000000Y-153000000D03*
%TD*%
D21*
%TO.C,R11*%
X189380000Y-133000000D03*
D22*
X197000000Y-133000000D03*
%TD*%
D21*
%TO.C,R10*%
X189380000Y-113000000D03*
D22*
X197000000Y-113000000D03*
%TD*%
D21*
%TO.C,R9*%
X189380000Y-98000000D03*
D22*
X197000000Y-98000000D03*
%TD*%
D21*
%TO.C,R8*%
X189380000Y-72900000D03*
D22*
X197000000Y-72900000D03*
%TD*%
D21*
%TO.C,R7*%
X187620000Y-206000000D03*
D22*
X180000000Y-206000000D03*
%TD*%
D21*
%TO.C,R6*%
X188120000Y-196500000D03*
D22*
X180500000Y-196500000D03*
%TD*%
D21*
%TO.C,R5*%
X188000000Y-172500000D03*
D22*
X180380000Y-172500000D03*
%TD*%
D21*
%TO.C,R4*%
X187500000Y-184500000D03*
D22*
X179880000Y-184500000D03*
%TD*%
D21*
%TO.C,R3*%
X187500000Y-159000000D03*
D22*
X179880000Y-159000000D03*
%TD*%
D21*
%TO.C,R2*%
X187620000Y-146500000D03*
D22*
X180000000Y-146500000D03*
%TD*%
D21*
%TO.C,R1*%
X197000000Y-136500000D03*
D22*
X189380000Y-136500000D03*
%TD*%
D23*
%TO.C,J2*%
X210250000Y-195750000D03*
D24*
X212790000Y-195750000D03*
X210250000Y-198290000D03*
X212790000Y-198290000D03*
X210250000Y-200830000D03*
X212790000Y-200830000D03*
X210250000Y-203370000D03*
X212790000Y-203370000D03*
X210250000Y-205910000D03*
X212790000Y-205910000D03*
%TD*%
D21*
%TO.C,D2*%
X214620000Y-183000000D03*
G36*
G01*
X206200000Y-183400000D02*
X206200000Y-182600000D01*
G75*
G02*
X206600000Y-182200000I400000J0D01*
G01*
X207400000Y-182200000D01*
G75*
G02*
X207800000Y-182600000I0J-400000D01*
G01*
X207800000Y-183400000D01*
G75*
G02*
X207400000Y-183800000I-400000J0D01*
G01*
X206600000Y-183800000D01*
G75*
G02*
X206200000Y-183400000I0J400000D01*
G01*
G37*
%TD*%
%TO.C,D1*%
X214620000Y-186000000D03*
G36*
G01*
X206200000Y-186400000D02*
X206200000Y-185600000D01*
G75*
G02*
X206600000Y-185200000I400000J0D01*
G01*
X207400000Y-185200000D01*
G75*
G02*
X207800000Y-185600000I0J-400000D01*
G01*
X207800000Y-186400000D01*
G75*
G02*
X207400000Y-186800000I-400000J0D01*
G01*
X206600000Y-186800000D01*
G75*
G02*
X206200000Y-186400000I0J400000D01*
G01*
G37*
%TD*%
D22*
%TO.C,C8*%
X197500000Y-80500000D03*
X197500000Y-85500000D03*
%TD*%
%TO.C,C7*%
X179000000Y-92000000D03*
X174000000Y-92000000D03*
%TD*%
%TO.C,C6*%
X201000000Y-125000000D03*
X201000000Y-120000000D03*
%TD*%
%TO.C,C5*%
X176000000Y-120000000D03*
X176000000Y-125000000D03*
%TD*%
%TO.C,C4*%
X178000000Y-75000000D03*
X173000000Y-75000000D03*
%TD*%
%TO.C,C3*%
X193000000Y-91000000D03*
X188000000Y-91000000D03*
%TD*%
%TO.C,C2*%
X202500000Y-207000000D03*
D25*
X200000000Y-207000000D03*
%TD*%
D22*
%TO.C,C1*%
X203000000Y-198000000D03*
D25*
X200500000Y-198000000D03*
%TD*%
M02*
