%TF.GenerationSoftware,KiCad,Pcbnew,(5.1.9)-1*%
%TF.CreationDate,2021-07-02T20:36:41+01:00*%
%TF.ProjectId,MultMixer,4d756c74-4d69-4786-9572-2e6b69636164,rev?*%
%TF.SameCoordinates,Original*%
%TF.FileFunction,Soldermask,Top*%
%TF.FilePolarity,Negative*%
%FSLAX46Y46*%
G04 Gerber Fmt 4.6, Leading zero omitted, Abs format (unit mm)*
G04 Created by KiCad (PCBNEW (5.1.9)-1) date 2021-07-02 20:36:41*
%MOMM*%
%LPD*%
G01*
G04 APERTURE LIST*
%ADD10O,1.740000X2.190000*%
%ADD11O,2.362000X1.362000*%
%ADD12O,1.600000X2.400000*%
%ADD13R,1.600000X2.400000*%
%ADD14C,3.240000*%
%ADD15C,1.800000*%
%ADD16R,1.800000X1.800000*%
%ADD17O,1.600000X1.600000*%
%ADD18C,1.600000*%
%ADD19R,1.727200X1.727200*%
%ADD20O,1.727200X1.727200*%
%ADD21R,1.600000X1.600000*%
G04 APERTURE END LIST*
D10*
%TO.C,LED*%
X177000000Y-206000000D03*
G36*
G01*
X173590000Y-206844441D02*
X173590000Y-205155559D01*
G75*
G02*
X173840559Y-204905000I250559J0D01*
G01*
X175079441Y-204905000D01*
G75*
G02*
X175330000Y-205155559I0J-250559D01*
G01*
X175330000Y-206844441D01*
G75*
G02*
X175079441Y-207095000I-250559J0D01*
G01*
X173840559Y-207095000D01*
G75*
G02*
X173590000Y-206844441I0J250559D01*
G01*
G37*
%TD*%
D11*
%TO.C,SW5*%
X184000000Y-155500000D03*
X184000000Y-150500000D03*
X184000000Y-153000000D03*
%TD*%
%TO.C,SW4*%
X184000000Y-135500000D03*
X184000000Y-130500000D03*
X184000000Y-133000000D03*
%TD*%
%TO.C,SW3*%
X184000000Y-115500000D03*
X184000000Y-110500000D03*
X184000000Y-113000000D03*
%TD*%
%TO.C,SW2*%
X184000000Y-95500000D03*
X184000000Y-90500000D03*
X184000000Y-93000000D03*
%TD*%
%TO.C,SW1*%
X184000000Y-75500000D03*
X184000000Y-70500000D03*
X184000000Y-73000000D03*
%TD*%
D10*
%TO.C,MIX OUT*%
X215000000Y-175000000D03*
G36*
G01*
X211590000Y-175845001D02*
X211590000Y-174154999D01*
G75*
G02*
X211839999Y-173905000I249999J0D01*
G01*
X213080001Y-173905000D01*
G75*
G02*
X213330000Y-174154999I0J-249999D01*
G01*
X213330000Y-175845001D01*
G75*
G02*
X213080001Y-176095000I-249999J0D01*
G01*
X211839999Y-176095000D01*
G75*
G02*
X211590000Y-175845001I0J249999D01*
G01*
G37*
%TD*%
%TO.C,IN 5*%
X214540000Y-163000000D03*
G36*
G01*
X211130000Y-163845001D02*
X211130000Y-162154999D01*
G75*
G02*
X211379999Y-161905000I249999J0D01*
G01*
X212620001Y-161905000D01*
G75*
G02*
X212870000Y-162154999I0J-249999D01*
G01*
X212870000Y-163845001D01*
G75*
G02*
X212620001Y-164095000I-249999J0D01*
G01*
X211379999Y-164095000D01*
G75*
G02*
X211130000Y-163845001I0J249999D01*
G01*
G37*
%TD*%
%TO.C,IN 4*%
X215000000Y-143000000D03*
G36*
G01*
X211590000Y-143845001D02*
X211590000Y-142154999D01*
G75*
G02*
X211839999Y-141905000I249999J0D01*
G01*
X213080001Y-141905000D01*
G75*
G02*
X213330000Y-142154999I0J-249999D01*
G01*
X213330000Y-143845001D01*
G75*
G02*
X213080001Y-144095000I-249999J0D01*
G01*
X211839999Y-144095000D01*
G75*
G02*
X211590000Y-143845001I0J249999D01*
G01*
G37*
%TD*%
%TO.C,IN 3*%
X214540000Y-123000000D03*
G36*
G01*
X211130000Y-123845001D02*
X211130000Y-122154999D01*
G75*
G02*
X211379999Y-121905000I249999J0D01*
G01*
X212620001Y-121905000D01*
G75*
G02*
X212870000Y-122154999I0J-249999D01*
G01*
X212870000Y-123845001D01*
G75*
G02*
X212620001Y-124095000I-249999J0D01*
G01*
X211379999Y-124095000D01*
G75*
G02*
X211130000Y-123845001I0J249999D01*
G01*
G37*
%TD*%
%TO.C,IN 2*%
X215000000Y-103000000D03*
G36*
G01*
X211590000Y-103845001D02*
X211590000Y-102154999D01*
G75*
G02*
X211839999Y-101905000I249999J0D01*
G01*
X213080001Y-101905000D01*
G75*
G02*
X213330000Y-102154999I0J-249999D01*
G01*
X213330000Y-103845001D01*
G75*
G02*
X213080001Y-104095000I-249999J0D01*
G01*
X211839999Y-104095000D01*
G75*
G02*
X211590000Y-103845001I0J249999D01*
G01*
G37*
%TD*%
%TO.C,IN 1*%
X215000000Y-83000000D03*
G36*
G01*
X211590000Y-83845001D02*
X211590000Y-82154999D01*
G75*
G02*
X211839999Y-81905000I249999J0D01*
G01*
X213080001Y-81905000D01*
G75*
G02*
X213330000Y-82154999I0J-249999D01*
G01*
X213330000Y-83845001D01*
G75*
G02*
X213080001Y-84095000I-249999J0D01*
G01*
X211839999Y-84095000D01*
G75*
G02*
X211590000Y-83845001I0J249999D01*
G01*
G37*
%TD*%
%TO.C,OUT 5*%
X177415000Y-196125000D03*
G36*
G01*
X174005000Y-196970001D02*
X174005000Y-195279999D01*
G75*
G02*
X174254999Y-195030000I249999J0D01*
G01*
X175495001Y-195030000D01*
G75*
G02*
X175745000Y-195279999I0J-249999D01*
G01*
X175745000Y-196970001D01*
G75*
G02*
X175495001Y-197220000I-249999J0D01*
G01*
X174254999Y-197220000D01*
G75*
G02*
X174005000Y-196970001I0J249999D01*
G01*
G37*
%TD*%
%TO.C,OUT 3*%
X177415000Y-172500000D03*
G36*
G01*
X174005000Y-173345001D02*
X174005000Y-171654999D01*
G75*
G02*
X174254999Y-171405000I249999J0D01*
G01*
X175495001Y-171405000D01*
G75*
G02*
X175745000Y-171654999I0J-249999D01*
G01*
X175745000Y-173345001D01*
G75*
G02*
X175495001Y-173595000I-249999J0D01*
G01*
X174254999Y-173595000D01*
G75*
G02*
X174005000Y-173345001I0J249999D01*
G01*
G37*
%TD*%
%TO.C,OUT 4*%
X177040000Y-184875000D03*
G36*
G01*
X173630000Y-185720001D02*
X173630000Y-184029999D01*
G75*
G02*
X173879999Y-183780000I249999J0D01*
G01*
X175120001Y-183780000D01*
G75*
G02*
X175370000Y-184029999I0J-249999D01*
G01*
X175370000Y-185720001D01*
G75*
G02*
X175120001Y-185970000I-249999J0D01*
G01*
X173879999Y-185970000D01*
G75*
G02*
X173630000Y-185720001I0J249999D01*
G01*
G37*
%TD*%
%TO.C,OUT 2*%
X177040000Y-159000000D03*
G36*
G01*
X173630000Y-159845001D02*
X173630000Y-158154999D01*
G75*
G02*
X173879999Y-157905000I249999J0D01*
G01*
X175120001Y-157905000D01*
G75*
G02*
X175370000Y-158154999I0J-249999D01*
G01*
X175370000Y-159845001D01*
G75*
G02*
X175120001Y-160095000I-249999J0D01*
G01*
X173879999Y-160095000D01*
G75*
G02*
X173630000Y-159845001I0J249999D01*
G01*
G37*
%TD*%
%TO.C,OUT 1*%
X177040000Y-146625000D03*
G36*
G01*
X173630000Y-147470001D02*
X173630000Y-145779999D01*
G75*
G02*
X173879999Y-145530000I249999J0D01*
G01*
X175120001Y-145530000D01*
G75*
G02*
X175370000Y-145779999I0J-249999D01*
G01*
X175370000Y-147470001D01*
G75*
G02*
X175120001Y-147720000I-249999J0D01*
G01*
X173879999Y-147720000D01*
G75*
G02*
X173630000Y-147470001I0J249999D01*
G01*
G37*
%TD*%
%TO.C,MULT IN*%
X177000000Y-136500000D03*
G36*
G01*
X173590000Y-137345001D02*
X173590000Y-135654999D01*
G75*
G02*
X173839999Y-135405000I249999J0D01*
G01*
X175080001Y-135405000D01*
G75*
G02*
X175330000Y-135654999I0J-249999D01*
G01*
X175330000Y-137345001D01*
G75*
G02*
X175080001Y-137595000I-249999J0D01*
G01*
X173839999Y-137595000D01*
G75*
G02*
X173590000Y-137345001I0J249999D01*
G01*
G37*
%TD*%
D12*
%TO.C,U2*%
X193000000Y-86620000D03*
X177760000Y-79000000D03*
X190460000Y-86620000D03*
X180300000Y-79000000D03*
X187920000Y-86620000D03*
X182840000Y-79000000D03*
X185380000Y-86620000D03*
X185380000Y-79000000D03*
X182840000Y-86620000D03*
X187920000Y-79000000D03*
X180300000Y-86620000D03*
X190460000Y-79000000D03*
X177760000Y-86620000D03*
D13*
X193000000Y-79000000D03*
%TD*%
D12*
%TO.C,U1*%
X195500000Y-126620000D03*
X180260000Y-119000000D03*
X192960000Y-126620000D03*
X182800000Y-119000000D03*
X190420000Y-126620000D03*
X185340000Y-119000000D03*
X187880000Y-126620000D03*
X187880000Y-119000000D03*
X185340000Y-126620000D03*
X190420000Y-119000000D03*
X182800000Y-126620000D03*
X192960000Y-119000000D03*
X180260000Y-126620000D03*
D13*
X195500000Y-119000000D03*
%TD*%
D14*
%TO.C,RV5*%
X209007000Y-157840000D03*
X209007000Y-148240000D03*
D15*
X201507000Y-150540000D03*
X201507000Y-153040000D03*
D16*
X201507000Y-155540000D03*
%TD*%
D14*
%TO.C,RV4*%
X209007000Y-137840000D03*
X209007000Y-128240000D03*
D15*
X201507000Y-130540000D03*
X201507000Y-133040000D03*
D16*
X201507000Y-135540000D03*
%TD*%
D14*
%TO.C,RV3*%
X209007000Y-117840000D03*
X209007000Y-108240000D03*
D15*
X201507000Y-110540000D03*
X201507000Y-113040000D03*
D16*
X201507000Y-115540000D03*
%TD*%
D14*
%TO.C,RV2*%
X209007000Y-97840000D03*
X209007000Y-88240000D03*
D15*
X201507000Y-90540000D03*
X201507000Y-93040000D03*
D16*
X201507000Y-95540000D03*
%TD*%
D14*
%TO.C,RV1*%
X209007000Y-77840000D03*
X209007000Y-68240000D03*
D15*
X201507000Y-70540000D03*
X201507000Y-73040000D03*
D16*
X201507000Y-75540000D03*
%TD*%
D17*
%TO.C,R15*%
X197000000Y-75900000D03*
D18*
X189380000Y-75900000D03*
%TD*%
D17*
%TO.C,R14*%
X170500000Y-87120000D03*
D18*
X170500000Y-79500000D03*
%TD*%
D17*
%TO.C,R13*%
X174000000Y-79380000D03*
D18*
X174000000Y-87000000D03*
%TD*%
D17*
%TO.C,R12*%
X196620000Y-153000000D03*
D18*
X189000000Y-153000000D03*
%TD*%
D17*
%TO.C,R11*%
X189380000Y-133000000D03*
D18*
X197000000Y-133000000D03*
%TD*%
D17*
%TO.C,R10*%
X189380000Y-113000000D03*
D18*
X197000000Y-113000000D03*
%TD*%
D17*
%TO.C,R9*%
X189380000Y-98000000D03*
D18*
X197000000Y-98000000D03*
%TD*%
D17*
%TO.C,R8*%
X189380000Y-72900000D03*
D18*
X197000000Y-72900000D03*
%TD*%
D17*
%TO.C,R7*%
X187620000Y-206000000D03*
D18*
X180000000Y-206000000D03*
%TD*%
D17*
%TO.C,R6*%
X188120000Y-196500000D03*
D18*
X180500000Y-196500000D03*
%TD*%
D17*
%TO.C,R5*%
X188000000Y-172500000D03*
D18*
X180380000Y-172500000D03*
%TD*%
D17*
%TO.C,R4*%
X187500000Y-184500000D03*
D18*
X179880000Y-184500000D03*
%TD*%
D17*
%TO.C,R3*%
X187500000Y-159000000D03*
D18*
X179880000Y-159000000D03*
%TD*%
D17*
%TO.C,R2*%
X187620000Y-146500000D03*
D18*
X180000000Y-146500000D03*
%TD*%
D17*
%TO.C,R1*%
X197000000Y-136500000D03*
D18*
X189380000Y-136500000D03*
%TD*%
D19*
%TO.C,J2*%
X210250000Y-195750000D03*
D20*
X212790000Y-195750000D03*
X210250000Y-198290000D03*
X212790000Y-198290000D03*
X210250000Y-200830000D03*
X212790000Y-200830000D03*
X210250000Y-203370000D03*
X212790000Y-203370000D03*
X210250000Y-205910000D03*
X212790000Y-205910000D03*
%TD*%
D17*
%TO.C,D2*%
X214620000Y-183000000D03*
G36*
G01*
X206200000Y-183400000D02*
X206200000Y-182600000D01*
G75*
G02*
X206600000Y-182200000I400000J0D01*
G01*
X207400000Y-182200000D01*
G75*
G02*
X207800000Y-182600000I0J-400000D01*
G01*
X207800000Y-183400000D01*
G75*
G02*
X207400000Y-183800000I-400000J0D01*
G01*
X206600000Y-183800000D01*
G75*
G02*
X206200000Y-183400000I0J400000D01*
G01*
G37*
%TD*%
%TO.C,D1*%
X214620000Y-186000000D03*
G36*
G01*
X206200000Y-186400000D02*
X206200000Y-185600000D01*
G75*
G02*
X206600000Y-185200000I400000J0D01*
G01*
X207400000Y-185200000D01*
G75*
G02*
X207800000Y-185600000I0J-400000D01*
G01*
X207800000Y-186400000D01*
G75*
G02*
X207400000Y-186800000I-400000J0D01*
G01*
X206600000Y-186800000D01*
G75*
G02*
X206200000Y-186400000I0J400000D01*
G01*
G37*
%TD*%
D18*
%TO.C,C8*%
X197500000Y-80500000D03*
X197500000Y-85500000D03*
%TD*%
%TO.C,C7*%
X179000000Y-92000000D03*
X174000000Y-92000000D03*
%TD*%
%TO.C,C6*%
X201000000Y-125000000D03*
X201000000Y-120000000D03*
%TD*%
%TO.C,C5*%
X176000000Y-120000000D03*
X176000000Y-125000000D03*
%TD*%
%TO.C,C4*%
X178000000Y-75000000D03*
X173000000Y-75000000D03*
%TD*%
%TO.C,C3*%
X193000000Y-91000000D03*
X188000000Y-91000000D03*
%TD*%
%TO.C,C2*%
X202500000Y-207000000D03*
D21*
X200000000Y-207000000D03*
%TD*%
D18*
%TO.C,C1*%
X203000000Y-198000000D03*
D21*
X200500000Y-198000000D03*
%TD*%
M02*
